<?xml version="1.0" encoding="UTF-8"?>
<svg id="Layer_1" data-name="Layer 1" xmlns="http://www.w3.org/2000/svg" viewBox="0 0 485 485">
  <defs>
    <style>
      .cls-1 {
        fill: #3443f4;
        stroke-width: 0px;
      }
    </style>
  </defs>
  <path class="cls-1" d="M482.54,341.09c-2.24-7.14-16.55-14.01-19.68-20.41-3.62-7.01,3.6-13.64-1.32-20.1-4.62-6.06-10.59-10.96-17.23-14.66-3.29-1.83-6.74-3.38-10.27-4.69-4.31-1.59-8.55-2.88-13.09-3.57-4.65-.7-9.35-1.04-14.05-1.02-1.86,0-3.75.23-5.61.16-2.2-.08-5.22-.35-5.92-2.85-.33-1.17.3-2.65.68-3.72.64-1.8,1.45-3.54,2.22-5.28,2.54-5.67,3.37-11.7,4.01-17.83,3.33-31.41-3.19-66.02-15.72-96.17-15.24-36.36-39.04-70.77-70.06-95.65-22.25-17.56-50.59-26.48-79.22-25.49-77.2.79-127.38,81.23-147.56,141.5-10.14,29.87-13.62,57.96-7.42,87.14,2.08,9.8,4.75,11.11,3.64,13.26-1.53,3.47-10.47,2.92-14.46,3.51-7.64,1.16-15.06,2.64-22.54,5.51-13.46,5.13-25.19,13.41-32.82,25.35-4.19,6.81-2.63,10.91-1.47,18.41.55,3.57-4.73,7.58-6.89,9.75-3.41,3.43-6,6.56-6.55,11.58-.91,8.25,1.7,16.65,5.8,23.71,20.03,34.51,59.45,43.09,95.94,32.07,8.45-1.98,13.88,1.61,19.66,7.18,22.33,20.7,62.07,26.68,87.36,8.82,5.51-3.99,10.07-9.25,13.71-15.01,4.09-6.31,6.92-13.55,11.05-19.71,10.73-15.95,19.1-.28,24.37,10.2,3.9,7.71,9.23,15.19,16.15,20.61,13.41,10.61,30.62,13.46,47.15,13.06,14.1-.43,29.24-4.38,40.16-13.81,4.5-3.87,8.96-9.06,14.86-10.2,3.61-.84,8.02-.15,11.91.64,17.82,3.71,37.45,2.19,54.48-4.87,21.46-8.51,46.28-32.52,38.78-57.22l-.06-.19ZM370.83,360.41c-3.19-3.78-11.95-15.66-16.13-6.42-2.38,6.42-3.51,13.68-7.18,19.78-5.09,9.4-11.87,16.92-23.54,17.58-8.78.74-18.66-.03-26.48-4.12-4.6-2.51-8.17-6.41-11.47-10.41-3.4-4.13-6.89-8.06-10.49-12.01-7.73-8.5-14.87-17.55-21.25-27.11-1.69-2.54-3.39-5.17-5.85-6.96-9.03-6.58-17.39,6.42-21.98,12.49-7.95,10.52-16.32,20.75-25.28,30.43-8.6,9.3-16.65,18.84-30.18,19.56-13.3.85-29.36-1.99-34.35-15.54-2-5.21-2.96-11.12-2.71-16.63.83-17.87.15-16.97-11.24-7.41-11.72,9.83-27.66,13.61-42.71,16.31-13.77,2.56-29.42.79-40.18-8.83-3.1-2.74-6.33-6.78-5.73-10.72,1.59-6.54,8.81-11.25,15.65-14.23,7.98-3.48,18.94-7.74,3.64-9.37-3.25-.35-7.19-2.41-8.05-4.86-.24-6.28,17.56-11.05,22.84-11.81,31.28-4.54,72.24-1.97,48.25-43.5-16.92-29.3-5.76-68.39,8.21-99.91,14.99-34.46,32.51-63.67,60.33-84.54,23.16-18.2,57.18-22.84,84.86-12.75,14.34,5.2,26.42,14.18,37.06,24.92,21.87,22.13,38.5,49.49,48.53,78.92,4.75,13.94,8.01,28.41,9.49,43.07,1.18,11.7.74,23.33-.08,35.02-.49,7.02-1.3,14.07-3.24,20.85-1.84,6.41-7.72,13.46-5.64,20.33,2.76,9.09,14.94,12.27,23.04,13.82,14.76,2.82,33.39-2.56,44.24,8.22,1.49,1.48.46,4.9-2.26,4.89-18.67-.07-22.96,1.41,9.65,15.78,6.99,3.08,17.02,8.69,15.27,17.06-2.16,7.23-10.11,11.76-16.86,14.36-19.57,7.43-41.64,6.33-56.72-4.77"/>
  <path class="cls-1" d="M184.17,244.61l26.62-28.08c-6.94-6.58-16.3-10.65-26.62-10.65-21.39,0-38.73,17.34-38.73,38.73s17.34,38.73,38.73,38.73,38.24-17.72,38.69-38.73h-38.69Z"/>
  <path class="cls-1" d="M299.9,244.61l26.62-28.08c-6.94-6.58-16.3-10.65-26.62-10.65-21.39,0-38.73,17.34-38.73,38.73s17.34,38.73,38.73,38.73,38.24-17.72,38.69-38.73h-38.69Z"/>
</svg>