<svg width="337" height="292" viewBox="0 0 337 292" fill="none" xmlns="http://www.w3.org/2000/svg">
<path fill-rule="evenodd" clip-rule="evenodd" d="M277.708 176.125C280.37 166.92 281.816 156.833 281.816 145.862C281.816 77.2389 225.214 0 168.681 0C112.149 0 55.5453 77.2389 55.5453 145.862C55.5453 160.824 58.2362 174.141 63.0304 185.819L29.0486 183.903C15.2079 183.123 2.45654 193.016 4.61524 206.744C5.45252 212.069 7.04814 217.519 9.89786 222.226C0.277753 229.011 -3.65198 241.483 4.14295 251.257C11.968 261.069 23.4573 270.11 39.2282 270.11C56.3338 270.11 66.6285 265.678 72.8805 260.112C73.3368 262.542 74.2781 264.936 75.7643 267.198C83.4417 278.883 96.157 291.728 114.955 291.728C146.933 291.728 150.499 271.593 152.289 261.489C152.429 260.698 152.558 259.968 152.689 259.315L174.059 248.601L195.429 259.315C195.56 259.968 195.689 260.696 195.828 261.487C197.619 271.591 201.184 291.728 233.163 291.728C251.96 291.728 264.676 278.883 272.354 267.198C272.655 266.739 272.935 266.274 273.191 265.803C279.217 268.414 287.192 270.11 297.771 270.11C313.542 270.11 325.032 261.069 332.858 251.257C342.441 239.238 334.3 223.144 319.65 218.555L314.81 217.039C329.024 209.652 331.116 195.724 329.593 183.518C327.873 169.727 312.887 163.765 299.804 168.361L277.708 176.125Z" fill="#6226FB"/>
</svg>
