<svg width="325" height="52" viewBox="0 0 325 52" fill="none" xmlns="http://www.w3.org/2000/svg">
<path fill-rule="evenodd" clip-rule="evenodd" d="M44.3536 28.1295C44.7787 26.6593 45.0097 25.0483 45.0097 23.296C45.0097 12.3361 35.9696 0 26.9406 0C17.9116 0 8.87132 12.3361 8.87132 23.296C8.87132 25.6856 9.30108 27.8126 10.0668 29.6777L4.63944 29.3718C2.4289 29.2472 0.392341 30.8273 0.737115 33.0198C0.870839 33.8702 1.12568 34.7407 1.58082 35.4924C0.0443608 36.576 -0.583269 38.568 0.661683 40.1291C1.91145 41.6961 3.74644 43.14 6.26526 43.14C8.99725 43.14 10.6414 42.4322 11.64 41.5432C11.7129 41.9315 11.8632 42.3137 12.1005 42.675C13.3267 44.5414 15.3575 46.5929 18.3598 46.5929C23.4671 46.5929 24.0367 43.3769 24.3226 41.7632C24.3449 41.6369 24.3655 41.5203 24.3864 41.416L27.7995 39.7048L31.2125 41.416C31.2335 41.5203 31.2541 41.6366 31.2763 41.7629C31.5623 43.3766 32.1318 46.5929 37.2392 46.5929C40.2413 46.5929 42.2723 44.5414 43.4985 42.675C43.5466 42.6017 43.5913 42.5274 43.6322 42.4522C44.5946 42.8693 45.8683 43.14 47.5579 43.14C50.0768 43.14 51.9118 41.6961 53.1617 40.1291C54.6923 38.2095 53.3921 35.6391 51.0523 34.9061L50.2794 34.6639C52.5494 33.4842 52.8836 31.2597 52.6404 29.3102C52.3657 27.1076 49.9721 26.1554 47.8827 26.8895L44.3536 28.1295ZM27.8027 39.6731H27.7966L27.7995 39.6747L27.8027 39.6731Z" fill="white"/>
<path d="M85.3181 41.7438C74.9494 41.7438 68.3194 34.997 68.3194 23.1027C68.3194 11.8581 75.7967 4.96146 85.6669 4.96146C94.1912 4.96146 100.323 9.85909 101.22 18.1551H94.4403C93.7924 13.6073 90.8015 10.5088 85.6669 10.5088C79.4858 10.5088 75.0491 15.2565 75.0491 23.1027C75.0491 31.2487 79.4358 36.1965 85.5175 36.1965C90.7018 36.1965 94.1412 32.8481 94.8391 28.2003H101.369C100.522 36.2965 94.6897 41.7438 85.3181 41.7438ZM106.123 40.8441V5.86102H112.204V17.5554C112.204 18.255 112.154 19.0047 112.005 19.9542C113.351 17.5054 115.644 15.6563 119.482 15.6563C124.866 15.6563 128.056 19.4545 128.056 25.4516V40.8441H121.975V26.3511C121.975 22.7529 120.23 20.504 117.388 20.504C114.398 20.504 112.204 23.1527 112.204 26.551V40.8441H106.123ZM141.144 41.7438C136.907 41.7438 132.769 38.9449 132.769 34.1475C132.769 28.65 137.006 26.7509 142.241 26.0513L145.73 25.6015C147.724 25.3516 148.422 24.602 148.422 23.4026C148.422 21.7034 147.026 20.2041 144.434 20.2041C141.592 20.2041 139.798 21.8033 139.549 24.3521H133.268C133.667 19.2546 137.804 15.6563 144.085 15.6563C151.512 15.6563 154.503 19.6544 154.503 26.5011V40.8441H148.871V39.8445C148.871 39.0449 148.97 38.2953 149.12 37.4957C147.824 39.8947 145.331 41.7438 141.144 41.7438ZM142.789 37.2459C146.029 37.2459 148.621 34.8469 148.621 31.3988V28.75C148.073 29.2497 147.225 29.4996 145.73 29.7995L143.736 30.1993C140.895 30.7489 138.95 31.6987 138.95 33.8975C138.95 36.0464 140.645 37.2459 142.789 37.2459ZM160.45 40.8441V16.4559H166.532V40.8441H160.45ZM160.301 12.7577V6.36079H166.632V12.7577H160.301ZM172.815 40.8441V16.4559H178.897V17.5554C178.897 18.255 178.847 19.0047 178.697 19.9542C180.043 17.5054 182.336 15.6563 186.175 15.6563C191.559 15.6563 194.749 19.4545 194.749 25.4516V40.8441H188.667V26.3511C188.667 22.7529 186.922 20.504 184.081 20.504C181.09 20.504 178.897 23.1527 178.897 26.551V40.8441H172.815ZM211.625 51.9386C204.447 51.9386 200.359 48.0907 200.359 42.5434H206.541C206.64 45.4419 208.485 47.1412 211.775 47.1412C214.965 47.1412 217.657 45.242 217.657 41.5937V38.9449C217.657 37.8457 217.707 36.8461 217.856 35.8966C216.41 38.0954 214.067 39.9445 210.279 39.9445C203.948 39.9445 199.362 35.4968 199.362 27.8004C199.362 20.2041 204.646 15.6563 209.98 15.6563C214.267 15.6563 216.41 17.4055 217.856 19.9542C217.707 19.1046 217.657 18.455 217.657 17.5554V16.4559H223.738V40.0946C223.738 48.0907 218.803 51.9386 211.625 51.9386ZM211.824 35.097C215.413 35.097 218.006 32.0484 218.006 27.8004C218.006 23.5525 215.413 20.504 211.824 20.504C208.135 20.504 205.543 23.5525 205.543 27.8004C205.543 32.0484 208.135 35.097 211.824 35.097ZM238.441 41.7438C233.555 41.7438 229.717 38.3953 229.717 31.9484V16.4559H235.849V30.999C235.849 34.3973 237.344 36.8461 240.285 36.8461C243.376 36.8461 245.569 34.547 245.569 30.9488V16.4559H251.651V40.8441H245.619V39.8445C245.619 39.095 245.719 38.2455 245.868 37.4957C244.622 39.8445 242.478 41.7438 238.441 41.7438ZM264.987 41.7438C260.75 41.7438 256.613 38.9449 256.613 34.1475C256.613 28.65 260.85 26.7509 266.084 26.0513L269.574 25.6015C271.568 25.3516 272.266 24.602 272.266 23.4026C272.266 21.7034 270.87 20.2041 268.278 20.2041C265.436 20.2041 263.642 21.8033 263.392 24.3521H257.111C257.51 19.2546 261.648 15.6563 267.929 15.6563C275.356 15.6563 278.347 19.6544 278.347 26.5011V40.8441H272.714V39.8445C272.714 39.0449 272.814 38.2953 272.964 37.4957C271.667 39.8947 269.175 41.7438 264.987 41.7438ZM266.633 37.2459C269.873 37.2459 272.465 34.8469 272.465 31.3988V28.75C271.917 29.2497 271.069 29.4996 269.574 29.7995L267.58 30.1993C264.738 30.7489 262.794 31.6987 262.794 33.8975C262.794 36.0464 264.489 37.2459 266.633 37.2459ZM284.294 40.8441V16.4559H290.376V18.305C290.376 19.2046 290.326 19.9542 290.176 20.8538C291.472 18.1051 293.666 15.6563 297.304 15.6563C297.803 15.6563 298.202 15.7063 298.601 15.8062V21.7034C298.202 21.6034 297.654 21.5035 296.856 21.5035C293.117 21.5035 290.376 23.4026 290.376 28.75V40.8441H284.294ZM311.491 41.7438C305.061 41.7438 300.375 37.3459 300.375 28.75C300.375 20.0042 305.908 15.6563 311.591 15.6563C315.38 15.6563 317.721 17.6054 319.118 19.9542C318.918 19.0546 318.918 18.305 318.918 17.5554V5.86102H325V40.8441H318.918V39.8445C318.918 38.995 318.918 38.3455 319.118 37.4957C318.171 39.2949 315.977 41.7438 311.491 41.7438ZM312.935 36.9461C316.577 36.9461 319.268 33.5976 319.268 28.7C319.268 23.7024 316.577 20.504 312.935 20.504C309.298 20.504 306.556 23.8524 306.556 28.7C306.556 33.7477 309.298 36.9461 312.935 36.9461Z" fill="white"/>
</svg>
