<svg width="498" height="431" viewBox="0 0 498 431" fill="none" xmlns="http://www.w3.org/2000/svg">
<path fill-rule="evenodd" clip-rule="evenodd" d="M410.381 259.736C414.315 246.168 416.453 231.3 416.453 215.128C416.453 113.978 332.808 0.128418 249.267 0.128418C165.727 0.128418 82.0819 113.978 82.0819 215.128C82.0819 237.182 86.0582 256.811 93.1429 274.025L42.9265 271.201C22.4734 270.051 3.63014 284.633 6.82017 304.869C8.05742 312.717 10.4154 320.751 14.6265 327.689C0.410449 337.69 -5.3967 356.072 6.12223 370.479C17.6857 384.942 34.6641 398.27 57.9693 398.27C83.2471 398.27 98.46 391.737 107.699 383.533C108.373 387.116 109.764 390.643 111.96 393.977C123.306 411.201 142.096 430.136 169.875 430.136C217.13 430.136 222.4 400.456 225.044 385.562C225.251 384.396 225.442 383.322 225.636 382.359L257.215 366.566L288.793 382.359C288.987 383.321 289.178 384.395 289.384 385.559L289.385 385.562C292.029 400.456 297.3 430.136 344.555 430.136C372.334 430.136 391.124 411.201 402.469 393.977C402.915 393.3 403.328 392.614 403.709 391.922C412.611 395.77 424.395 398.27 440.031 398.27C463.336 398.27 480.314 384.942 491.878 370.479C506.041 352.765 494.011 329.041 472.363 322.277L465.209 320.042C486.215 309.156 489.306 288.624 487.056 270.633C484.513 250.305 462.368 241.518 443.035 248.293L410.381 259.736ZM257.245 366.271C257.226 366.272 257.207 366.273 257.188 366.274L257.215 366.288L257.245 366.271Z" fill="#14003D"/>
</svg>
