<svg width="322" height="67" viewBox="0 0 322 67" fill="none" xmlns="http://www.w3.org/2000/svg">
<path d="M111.408 28.3255H118.12C117.914 26.4938 117.413 24.8688 116.619 23.4507C115.824 22.0325 114.808 20.8507 113.572 19.9053C112.364 18.9303 110.981 18.1917 109.42 17.6895C107.89 17.1872 106.256 16.9361 104.519 16.9361C102.104 16.9361 99.9259 17.3645 97.9828 18.2213C96.0692 19.0781 94.45 20.2598 93.1251 21.7666C91.8003 23.2734 90.7846 25.0461 90.0781 27.0846C89.3715 29.0937 89.0182 31.28 89.0182 33.6436C89.0182 35.948 89.3715 38.1048 90.0781 40.1138C90.7846 42.0933 91.8003 43.8217 93.1251 45.2989C94.45 46.7761 96.0692 47.9432 97.9828 48.8C99.9259 49.6272 102.104 50.0408 104.519 50.0408C106.462 50.0408 108.243 49.7454 109.862 49.1545C111.481 48.5636 112.894 47.7068 114.101 46.5841C115.308 45.4614 116.28 44.1024 117.016 42.5069C117.752 40.9115 118.208 39.1241 118.385 37.1446H111.673C111.408 39.2718 110.672 40.9854 109.465 42.2854C108.287 43.5853 106.638 44.2353 104.519 44.2353C102.958 44.2353 101.633 43.9399 100.544 43.349C99.4548 42.7285 98.5716 41.9161 97.8945 40.9115C97.2174 39.907 96.7169 38.7843 96.393 37.5434C96.0986 36.273 95.9514 34.9731 95.9514 33.6436C95.9514 32.255 96.0986 30.9107 96.393 29.6107C96.7169 28.3107 97.2174 27.1585 97.8945 26.154C98.5716 25.1199 99.4548 24.3075 100.544 23.7166C101.633 23.0961 102.958 22.7859 104.519 22.7859C105.372 22.7859 106.182 22.9336 106.947 23.2291C107.742 23.495 108.449 23.8791 109.067 24.3813C109.685 24.8836 110.201 25.4745 110.613 26.154C111.025 26.804 111.29 27.5278 111.408 28.3255Z" fill="white"/>
<path d="M121.574 17.6895V49.3318H127.845V37.3219C127.845 34.9878 128.227 33.3186 128.993 32.314C129.758 31.28 130.995 30.763 132.702 30.763C134.204 30.763 135.249 31.2357 135.838 32.1811C136.427 33.097 136.721 34.5004 136.721 36.3912V49.3318H142.992V35.239C142.992 33.8208 142.859 32.5356 142.594 31.3834C142.359 30.2016 141.932 29.2119 141.314 28.4142C140.695 27.5869 139.842 26.9517 138.752 26.5085C137.693 26.0358 136.324 25.7995 134.645 25.7995C133.468 25.7995 132.261 26.1097 131.024 26.7301C129.788 27.321 128.772 28.2812 127.977 29.6107H127.845V17.6895H121.574Z" fill="white"/>
<path d="M146.603 33.4663C146.691 31.9891 147.059 30.763 147.707 29.788C148.355 28.813 149.179 28.0301 150.18 27.4392C151.181 26.8483 152.3 26.4347 153.536 26.1983C154.802 25.9324 156.068 25.7995 157.334 25.7995C158.482 25.7995 159.645 25.8881 160.823 26.0654C162 26.2131 163.075 26.5233 164.046 26.996C165.018 27.4687 165.813 28.1335 166.431 28.9903C167.049 29.8175 167.358 30.9254 167.358 32.314V44.2353C167.358 45.2694 167.417 46.2591 167.535 47.2045C167.653 48.15 167.859 48.859 168.153 49.3318H161.794C161.676 48.9772 161.573 48.6227 161.485 48.2682C161.426 47.8841 161.382 47.5 161.353 47.1159C160.352 48.15 159.174 48.8738 157.82 49.2874C156.466 49.7011 155.082 49.9079 153.669 49.9079C152.579 49.9079 151.564 49.7749 150.622 49.509C149.679 49.2431 148.855 48.8295 148.149 48.2682C147.442 47.7068 146.883 46.9977 146.47 46.1409C146.088 45.2841 145.896 44.2649 145.896 43.0831C145.896 41.7831 146.117 40.7195 146.559 39.8922C147.03 39.0355 147.619 38.3559 148.325 37.8537C149.061 37.3514 149.886 36.9821 150.798 36.7457C151.74 36.4798 152.682 36.273 153.625 36.1253C154.567 35.9776 155.494 35.8594 156.407 35.7708C157.319 35.6821 158.129 35.5492 158.835 35.3719C159.542 35.1947 160.101 34.9435 160.514 34.6185C160.926 34.264 161.117 33.7617 161.088 33.1118C161.088 32.4322 160.97 31.9004 160.734 31.5163C160.528 31.1027 160.234 30.7925 159.851 30.5857C159.498 30.3493 159.071 30.2016 158.57 30.1425C158.099 30.0539 157.584 30.0096 157.025 30.0096C155.788 30.0096 154.817 30.2755 154.11 30.8073C153.404 31.3391 152.992 32.2254 152.874 33.4663H146.603ZM161.088 38.1196C160.823 38.3559 160.484 38.548 160.072 38.6957C159.689 38.8139 159.262 38.9173 158.791 39.0059C158.35 39.0945 157.879 39.1684 157.378 39.2275C156.878 39.2866 156.377 39.3604 155.877 39.4491C155.406 39.5377 154.935 39.6559 154.464 39.8036C154.022 39.9513 153.625 40.1581 153.271 40.4241C152.947 40.6604 152.682 40.9706 152.476 41.3547C152.27 41.7388 152.167 42.2263 152.167 42.8172C152.167 43.3785 152.27 43.8512 152.476 44.2353C152.682 44.6194 152.962 44.9296 153.315 45.166C153.669 45.3728 154.081 45.5205 154.552 45.6091C155.023 45.6978 155.509 45.7421 156.009 45.7421C157.246 45.7421 158.202 45.5353 158.88 45.1216C159.557 44.708 160.057 44.2205 160.381 43.6592C160.705 43.0683 160.896 42.4774 160.955 41.8865C161.043 41.2956 161.088 40.8229 161.088 40.4684V38.1196Z" fill="white"/>
<path d="M177.79 22.8745V17.6895H171.519V22.8745H177.79ZM171.519 26.4199V49.3318H177.79V26.4199H171.519Z" fill="white"/>
<path d="M181.845 26.4199V49.3318H188.115V37.3219C188.115 34.9878 188.498 33.3186 189.264 32.314C190.029 31.28 191.265 30.763 192.973 30.763C194.474 30.763 195.52 31.2357 196.108 32.1811C196.697 33.097 196.992 34.5004 196.992 36.3912V49.3318H203.262V35.239C203.262 33.8208 203.13 32.5356 202.865 31.3834C202.629 30.2016 202.203 29.2119 201.584 28.4142C200.966 27.5869 200.112 26.9517 199.023 26.5085C197.963 26.0358 196.594 25.7995 194.916 25.7995C193.591 25.7995 192.296 26.1097 191.03 26.7301C189.764 27.321 188.734 28.2812 187.939 29.6107H187.806V26.4199H181.845Z" fill="white"/>
<path d="M217.781 43.9251C216.81 43.9251 216 43.7183 215.352 43.3047C214.705 42.891 214.175 42.3592 213.763 41.7092C213.38 41.0593 213.1 40.3354 212.924 39.5377C212.776 38.7105 212.703 37.8832 212.703 37.056C212.703 36.1992 212.791 35.3867 212.968 34.6185C213.174 33.8208 213.483 33.1265 213.895 32.5356C214.337 31.9152 214.867 31.4277 215.485 31.0732C216.133 30.7186 216.898 30.5414 217.781 30.5414C218.812 30.5414 219.665 30.7334 220.343 31.1175C221.02 31.5016 221.564 32.0186 221.977 32.6686C222.389 33.3186 222.683 34.072 222.86 34.9287C223.036 35.756 223.125 36.6423 223.125 37.5878C223.125 38.415 223.007 39.2127 222.771 39.9809C222.565 40.7195 222.241 41.3843 221.8 41.9751C221.358 42.566 220.799 43.0387 220.122 43.3933C219.445 43.7478 218.664 43.9251 217.781 43.9251ZM229.086 47.8693V26.4199H223.125V29.4778H223.036C222.271 28.1483 221.314 27.2028 220.166 26.6415C219.047 26.0801 217.737 25.7995 216.236 25.7995C214.646 25.7995 213.233 26.1097 211.996 26.7301C210.789 27.3505 209.773 28.1926 208.949 29.2562C208.125 30.2902 207.492 31.5016 207.05 32.8902C206.638 34.2492 206.432 35.6674 206.432 37.1446C206.432 38.7105 206.609 40.2025 206.962 41.6206C207.345 43.0092 207.933 44.2353 208.728 45.2989C209.523 46.333 210.539 47.1602 211.775 47.7807C213.012 48.3716 214.484 48.667 216.191 48.667C217.575 48.667 218.885 48.3863 220.122 47.825C221.388 47.2341 222.359 46.333 223.036 45.1216H223.125V48.1352C223.154 49.7602 222.757 51.1044 221.932 52.168C221.137 53.2316 219.857 53.7635 218.09 53.7635C216.972 53.7635 215.985 53.5271 215.132 53.0544C214.278 52.6112 213.704 51.7987 213.409 50.617H207.183C207.271 51.9169 207.624 53.0248 208.243 53.9407C208.89 54.8862 209.685 55.6543 210.627 56.2452C211.599 56.8361 212.659 57.2645 213.807 57.5304C214.984 57.8258 216.133 57.9736 217.251 57.9736C219.872 57.9736 221.962 57.619 223.522 56.91C225.082 56.2009 226.275 55.3293 227.099 54.2953C227.923 53.2907 228.453 52.1976 228.689 51.0158C228.954 49.834 229.086 48.7852 229.086 47.8693Z" fill="white"/>
<path d="M254.67 49.3318V26.4199H248.399V38.4298C248.399 40.7638 248.016 42.4479 247.251 43.4819C246.485 44.4864 245.249 44.9887 243.541 44.9887C242.04 44.9887 240.995 44.5308 240.406 43.6149C239.817 42.6694 239.523 41.2513 239.523 39.3604V26.4199H233.252V40.5127C233.252 41.9308 233.37 43.2308 233.605 44.4126C233.87 45.5648 234.312 46.5546 234.93 47.3818C235.548 48.1795 236.387 48.8 237.447 49.2431C238.537 49.6863 239.92 49.9079 241.598 49.9079C242.923 49.9079 244.219 49.6124 245.484 49.0215C246.75 48.4306 247.781 47.4704 248.576 46.1409H248.708V49.3318H254.67Z" fill="white"/>
<path d="M258.281 33.4663C258.369 31.9891 258.737 30.763 259.385 29.788C260.033 28.813 260.857 28.0301 261.858 27.4392C262.859 26.8483 263.978 26.4347 265.214 26.1983C266.48 25.9324 267.746 25.7995 269.012 25.7995C270.16 25.7995 271.323 25.8881 272.501 26.0654C273.678 26.2131 274.753 26.5233 275.724 26.996C276.696 27.4687 277.491 28.1335 278.109 28.9903C278.727 29.8175 279.037 30.9254 279.037 32.314V44.2353C279.037 45.2694 279.095 46.2591 279.213 47.2045C279.331 48.15 279.537 48.859 279.831 49.3318H273.472C273.355 48.9772 273.252 48.6227 273.163 48.2682C273.104 47.8841 273.06 47.5 273.031 47.1159C272.03 48.15 270.852 48.8738 269.498 49.2874C268.144 49.7011 266.76 49.9079 265.347 49.9079C264.257 49.9079 263.242 49.7749 262.3 49.509C261.358 49.2431 260.533 48.8295 259.827 48.2682C259.12 47.7068 258.561 46.9977 258.149 46.1409C257.766 45.2841 257.574 44.2649 257.574 43.0831C257.574 41.7831 257.795 40.7195 258.237 39.8922C258.708 39.0355 259.297 38.3559 260.003 37.8537C260.739 37.3514 261.564 36.9821 262.476 36.7457C263.418 36.4798 264.36 36.273 265.303 36.1253C266.245 35.9776 267.172 35.8594 268.085 35.7708C268.997 35.6821 269.807 35.5492 270.514 35.3719C271.22 35.1947 271.779 34.9435 272.192 34.6185C272.604 34.264 272.795 33.7617 272.766 33.1118C272.766 32.4322 272.648 31.9004 272.412 31.5163C272.206 31.1027 271.912 30.7925 271.529 30.5857C271.176 30.3493 270.749 30.2016 270.249 30.1425C269.778 30.0539 269.262 30.0096 268.703 30.0096C267.466 30.0096 266.495 30.2755 265.788 30.8073C265.082 31.3391 264.67 32.2254 264.552 33.4663H258.281ZM272.766 38.1196C272.501 38.3559 272.162 38.548 271.75 38.6957C271.367 38.8139 270.94 38.9173 270.469 39.0059C270.028 39.0945 269.557 39.1684 269.056 39.2275C268.556 39.2866 268.055 39.3604 267.555 39.4491C267.084 39.5377 266.613 39.6559 266.142 39.8036C265.7 39.9513 265.303 40.1581 264.949 40.4241C264.625 40.6604 264.36 40.9706 264.154 41.3547C263.948 41.7388 263.845 42.2263 263.845 42.8172C263.845 43.3785 263.948 43.8512 264.154 44.2353C264.36 44.6194 264.64 44.9296 264.993 45.166C265.347 45.3728 265.759 45.5205 266.23 45.6091C266.701 45.6978 267.187 45.7421 267.687 45.7421C268.924 45.7421 269.881 45.5353 270.558 45.1216C271.235 44.708 271.735 44.2205 272.059 43.6592C272.383 43.0683 272.574 42.4774 272.633 41.8865C272.722 41.2956 272.766 40.8229 272.766 40.4684V38.1196Z" fill="white"/>
<path d="M283.021 26.4199V49.3318H289.291V39.0059C289.291 37.9718 289.395 37.0116 289.601 36.1253C289.807 35.239 290.145 34.4708 290.616 33.8208C291.117 33.1413 291.764 32.6095 292.559 32.2254C293.354 31.8413 294.326 31.6493 295.474 31.6493C295.857 31.6493 296.254 31.6788 296.666 31.7379C297.078 31.7675 297.432 31.8118 297.726 31.8709V26.021C297.226 25.8733 296.769 25.7995 296.357 25.7995C295.562 25.7995 294.797 25.9176 294.061 26.154C293.325 26.3903 292.633 26.7301 291.985 27.1733C291.338 27.5869 290.763 28.1039 290.263 28.7244C289.763 29.3153 289.365 29.9652 289.071 30.6743H288.982V26.4199H283.021Z" fill="white"/>
<path d="M315.95 37.8093C315.95 38.7548 315.862 39.6707 315.685 40.557C315.508 41.4433 315.214 42.241 314.802 42.9501C314.39 43.6296 313.83 44.1762 313.124 44.5898C312.447 45.0035 311.593 45.2103 310.562 45.2103C309.591 45.2103 308.752 45.0035 308.045 44.5898C307.368 44.1467 306.794 43.5853 306.323 42.9058C305.881 42.1967 305.558 41.399 305.351 40.5127C305.145 39.6263 305.042 38.74 305.042 37.8537C305.042 36.9082 305.131 36.0071 305.307 35.1503C305.513 34.264 305.822 33.4811 306.235 32.8015C306.676 32.122 307.25 31.5754 307.957 31.1618C308.664 30.7482 309.532 30.5414 310.562 30.5414C311.593 30.5414 312.447 30.7482 313.124 31.1618C313.801 31.5754 314.345 32.122 314.758 32.8015C315.199 33.4515 315.508 34.2197 315.685 35.106C315.862 35.9628 315.95 36.8639 315.95 37.8093ZM316.038 46.4068V49.3318H322V17.6895H315.729V29.2119H315.641C314.934 28.0892 313.963 27.2471 312.726 26.6858C311.519 26.0949 310.239 25.7995 308.884 25.7995C307.206 25.7995 305.734 26.1392 304.468 26.8187C303.202 27.4687 302.142 28.3403 301.289 29.4334C300.464 30.5266 299.831 31.797 299.39 33.2447C298.978 34.6628 298.772 36.1401 298.772 37.6764C298.772 39.2718 298.978 40.8081 299.39 42.2854C299.831 43.7626 300.464 45.0773 301.289 46.2296C302.142 47.3523 303.217 48.2534 304.512 48.9329C305.808 49.5829 307.309 49.9079 309.017 49.9079C310.518 49.9079 311.858 49.642 313.035 49.1102C314.242 48.5488 315.214 47.6477 315.95 46.4068H316.038Z" fill="white"/>
<path d="M77.1688 45.9716C76.7535 41.701 71.9463 40.2775 65.8622 38.4876C64.4398 38.0689 62.9759 37.6397 61.5535 37.1583C62.7267 34.5938 63.8999 30.9931 63.0693 25.7282C61.3873 15.0412 52.6764 0 38.5977 0C24.519 0 15.8081 15.0412 14.1261 25.7282C13.2955 30.9931 14.4688 34.5938 15.642 37.1583C14.2196 37.6397 12.7556 38.0689 11.3332 38.4876C5.24909 40.2775 0.441985 41.6905 0.026685 45.9716C-0.129053 47.5416 0.400455 49.0489 1.52177 50.2212C3.07914 51.8436 5.83051 52.8485 9.72395 53.1939C9.42286 54.0626 9.29827 54.8791 9.36056 55.6746C9.58898 58.8147 12.2677 62.4782 19.0682 62.4782C22.6606 62.4782 26.3671 61.1594 29.2742 58.8461C30.7382 62.8446 33.9152 67 38.6081 67C43.301 67 46.4884 62.8341 47.942 58.8461C50.8491 61.1594 54.5453 62.4782 58.148 62.4782C64.9589 62.4782 67.6272 58.8147 67.8556 55.6746C67.9179 54.8791 67.7933 54.0731 67.4923 53.1939C71.3857 52.8485 74.1474 51.8436 75.6944 50.2212C76.795 49.0489 77.3245 47.5416 77.1688 45.9716Z" fill="white"/>
<path d="M74.0334 46.2855C73.7115 42.9675 64.0246 41.8894 57.141 38.8958C58.6465 35.8917 60.9306 32.4899 59.9443 26.2306C58.6257 17.9092 51.4618 3.18198 38.5875 3.18198C25.7131 3.18198 18.5492 17.8987 17.2306 26.2306C16.2443 32.4899 18.5388 35.8917 20.0339 38.8958C13.1607 41.8894 3.4738 42.9779 3.14156 46.2855C2.84047 49.3524 8.72735 50.4724 15.3618 50.0746C13.6902 52.1157 12.382 54.0521 12.4858 55.4443C12.6519 57.7784 15.1334 59.2962 19.0476 59.2962C23.429 59.2962 30.1984 56.5224 31.8077 49.0279C31.8077 49.0279 31.1432 52.032 31.5066 54.9104C31.9427 58.3437 34.5175 63.8075 38.5875 63.8075C42.6574 63.8075 45.2323 58.3437 45.6683 54.9104C46.0317 52.032 45.3672 49.0279 45.3672 49.0279C46.9765 56.5224 53.7356 59.2962 58.1274 59.2962C62.0416 59.2962 64.523 57.7784 64.6891 55.4443C64.7929 54.0521 63.4744 52.1053 61.8132 50.0746C68.4476 50.4724 74.3345 49.3524 74.0334 46.2855ZM25.1006 15.6274C24.3323 14.9679 24.5399 13.5444 25.5574 12.4454C26.5749 11.3463 28.0284 10.98 28.7968 11.6394C29.5651 12.2988 29.3574 13.7224 28.3399 14.8214C27.3224 15.9205 25.8689 16.2763 25.1006 15.6274ZM32.1088 34.5938C28.9421 34.5938 26.3776 32.0084 26.3776 28.8159C26.3776 25.6235 28.9421 23.0381 32.1088 23.0381C35.2754 23.0381 37.8399 25.6235 37.8399 28.8159C37.8399 31.9979 35.2754 34.5938 32.1088 34.5938ZM35.6077 11.8383C33.3754 12.8431 30.9978 12.4977 30.2918 11.0742C29.5858 9.64018 30.8213 7.67237 33.0536 6.66752C35.2858 5.66268 37.6634 6.0081 38.3694 7.43162C39.0754 8.85515 37.8399 10.8334 35.6077 11.8383ZM51.0257 34.5938C47.859 34.5938 45.2946 32.0084 45.2946 28.8159C45.2946 25.6235 47.859 23.0381 51.0257 23.0381C54.1924 23.0381 56.7569 25.6235 56.7569 28.8159C56.7569 31.9979 54.1924 34.5938 51.0257 34.5938ZM51.4929 28.7741L53.6006 26.2724C52.9465 25.5921 52.0328 25.1734 51.0257 25.1734C49.0323 25.1734 47.423 26.7958 47.423 28.8055C47.423 30.8152 49.0323 32.4376 51.0257 32.4376C53.0192 32.4376 54.6284 30.8152 54.6284 28.8055C54.6284 28.795 54.6284 28.7845 54.6284 28.7741H51.4929ZM35.7011 28.7741C35.7011 28.7845 35.7011 28.795 35.7011 28.8055C35.7011 30.8152 34.0918 32.4376 32.0984 32.4376C30.1049 32.4376 28.4957 30.8152 28.4957 28.8055C28.4957 26.7958 30.1049 25.1734 32.0984 25.1734C33.1055 25.1734 34.0192 25.5921 34.6733 26.2724L32.5656 28.7741H35.7011Z" fill="url(#paint0_linear_150_164)"/>
<defs>
<linearGradient id="paint0_linear_150_164" x1="17.0139" y1="17.8519" x2="60.5195" y2="61.006" gradientUnits="userSpaceOnUse">
<stop stop-color="#4445E7"/>
<stop offset="1" stop-color="#EB47E4"/>
</linearGradient>
</defs>
</svg>
