<svg width="77" height="66" viewBox="0 0 77 66" fill="none" xmlns="http://www.w3.org/2000/svg">
<path d="M76.9733 45.2854C76.5591 41.0786 71.7642 39.6763 65.6954 37.9131C64.2766 37.5007 62.8164 37.078 61.3976 36.6037C62.5678 34.0775 63.7381 30.5305 62.9096 25.3442C61.2319 14.8167 52.543 0 38.5 0C24.4569 0 15.7681 14.8167 14.0904 25.3442C13.2619 30.5305 14.4321 34.0775 15.6024 36.6037C14.1836 37.078 12.7233 37.5007 11.3045 37.9131C5.2358 39.6763 0.440866 41.0683 0.0266174 45.2854C-0.128726 46.8321 0.399441 48.3168 1.51791 49.4716C3.07135 51.0698 5.81574 52.0597 9.69933 52.3999C9.399 53.2557 9.27472 54.06 9.33686 54.8436C9.5647 57.9369 12.2366 61.5457 19.0199 61.5457C22.6032 61.5457 26.3004 60.2465 29.2001 57.9678C30.6603 61.9066 33.8293 66 38.5103 66C43.1914 66 46.3707 61.8963 47.8206 57.9678C50.7203 60.2465 54.4071 61.5457 58.0007 61.5457C64.7944 61.5457 67.456 57.9369 67.6838 54.8436C67.746 54.06 67.6217 53.266 67.3214 52.3999C71.2049 52.0597 73.9597 51.0698 75.5028 49.4716C76.6005 48.3168 77.1287 46.8321 76.9733 45.2854Z" fill="white"/>
<path d="M73.8459 45.5947C73.5248 42.3262 63.8625 41.2642 56.9963 38.3152C58.498 35.356 60.7763 32.005 59.7925 25.8391C58.4773 17.6419 51.3315 3.13448 38.4897 3.13448C25.648 3.13448 18.5022 17.6316 17.187 25.8391C16.2032 32.005 18.4919 35.356 19.9832 38.3152C13.1274 41.2642 3.465 42.3365 3.1336 45.5947C2.83327 48.6158 8.70525 49.7191 15.3229 49.3273C13.6555 51.3379 12.3506 53.2454 12.4542 54.6167C12.6199 56.9161 15.095 58.4112 18.9993 58.4112C23.3697 58.4112 30.1219 55.6788 31.7271 48.2962C31.7271 48.2962 31.0643 51.2554 31.4268 54.0909C31.8618 57.4729 34.4301 62.8551 38.4897 62.8551C42.5494 62.8551 45.1177 57.4729 45.5527 54.0909C45.9152 51.2554 45.2524 48.2962 45.2524 48.2962C46.8576 55.6788 53.5995 58.4112 57.9802 58.4112C61.8845 58.4112 64.3596 56.9161 64.5253 54.6167C64.6289 53.2454 63.3136 51.3276 61.6566 49.3273C68.2742 49.7191 74.1462 48.6158 73.8459 45.5947ZM25.037 15.3941C24.2706 14.7445 24.4778 13.3423 25.4927 12.2596C26.5076 11.177 27.9575 10.8161 28.7238 11.4657C29.4902 12.1153 29.2831 13.5175 28.2682 14.6002C27.2532 15.6828 25.8034 16.0334 25.037 15.3941ZM32.0275 34.0775C28.8688 34.0775 26.3108 31.5307 26.3108 28.3858C26.3108 25.241 28.8688 22.6942 32.0275 22.6942C35.1861 22.6942 37.7441 25.241 37.7441 28.3858C37.7441 31.5204 35.1861 34.0775 32.0275 34.0775ZM35.5175 11.6616C33.2909 12.6514 30.9193 12.3112 30.2151 10.9089C29.5109 9.4963 30.7433 7.55785 32.9699 6.56801C35.1965 5.57816 37.568 5.91842 38.2723 7.3207C38.9765 8.72298 37.7441 10.6717 35.5175 11.6616ZM50.8965 34.0775C47.7379 34.0775 45.1799 31.5307 45.1799 28.3858C45.1799 25.241 47.7379 22.6942 50.8965 22.6942C54.0551 22.6942 56.6131 25.241 56.6131 28.3858C56.6131 31.5204 54.0551 34.0775 50.8965 34.0775ZM51.3625 28.3446L53.4648 25.8803C52.8124 25.2101 51.9011 24.7977 50.8965 24.7977C48.9081 24.7977 47.3029 26.3958 47.3029 28.3755C47.3029 30.3552 48.9081 31.9534 50.8965 31.9534C52.8849 31.9534 54.4901 30.3552 54.4901 28.3755C54.4901 28.3652 54.4901 28.3549 54.4901 28.3446H51.3625ZM35.6107 28.3446C35.6107 28.3549 35.6107 28.3652 35.6107 28.3755C35.6107 30.3552 34.0055 31.9534 32.0171 31.9534C30.0287 31.9534 28.4235 30.3552 28.4235 28.3755C28.4235 26.3958 30.0287 24.7977 32.0171 24.7977C33.0217 24.7977 33.933 25.2101 34.5854 25.8803L32.4831 28.3446H35.6107Z" fill="url(#paint0_linear_150_154)"/>
<defs>
<linearGradient id="paint0_linear_150_154" x1="16.9709" y1="17.5855" x2="59.8281" y2="60.6312" gradientUnits="userSpaceOnUse">
<stop stop-color="#4445E7"/>
<stop offset="1" stop-color="#EB47E4"/>
</linearGradient>
</defs>
</svg>
