<svg width="77" height="66" viewBox="0 0 77 66" fill="none" xmlns="http://www.w3.org/2000/svg">
<path d="M76.2861 45.2854C75.8755 41.0786 71.1234 39.6763 65.1089 37.9131C63.7027 37.5007 62.2555 37.078 60.8494 36.6037C62.0092 34.0775 63.169 30.5305 62.3479 25.3442C60.6852 14.8167 52.0739 0 38.1562 0C24.2386 0 15.6273 14.8167 13.9646 25.3442C13.1435 30.5305 14.3033 34.0775 15.4631 36.6037C14.0569 37.078 12.6097 37.5007 11.2036 37.9131C5.18905 39.6763 0.43693 41.0683 0.0263797 45.2854C-0.127577 46.8321 0.395875 48.3168 1.50436 49.4716C3.04392 51.0698 5.76382 52.0597 9.61273 52.3999C9.31508 53.2557 9.19191 54.06 9.2535 54.8436C9.4793 57.9369 12.1273 61.5457 18.8501 61.5457C22.4014 61.5457 26.0655 60.2465 28.9394 57.9678C30.3866 61.9066 33.5273 66 38.1665 66C42.8057 66 45.9567 61.8963 47.3936 57.9678C50.2675 60.2465 53.9214 61.5457 57.4829 61.5457C64.2159 61.5457 66.8537 57.9369 67.0795 54.8436C67.1411 54.06 67.0179 53.266 66.7203 52.3999C70.5692 52.0597 73.2993 51.0698 74.8286 49.4716C75.9166 48.3168 76.44 46.8321 76.2861 45.2854Z" fill="white"/>
<path d="M73.1865 45.5946C72.8683 42.3261 63.2922 41.264 56.4874 38.3151C57.9756 35.3559 60.2336 32.0049 59.2586 25.8389C57.9551 17.6418 50.8731 3.13437 38.146 3.13437C25.419 3.13437 18.337 17.6315 17.0335 25.8389C16.0584 32.0049 18.3267 35.3559 19.8047 38.3151C13.0101 41.264 3.43402 42.3364 3.10558 45.5946C2.80793 48.6157 8.62748 49.719 15.186 49.3271C13.5336 51.3378 12.2403 53.2453 12.343 54.6166C12.5072 56.916 14.9602 58.411 18.8297 58.411C23.161 58.411 29.8529 55.6786 31.4438 48.2961C31.4438 48.2961 30.7869 51.2553 31.1462 54.0908C31.5772 57.4727 34.1227 62.855 38.146 62.855C42.1694 62.855 44.7148 57.4727 45.1459 54.0908C45.5052 51.2553 44.8483 48.2961 44.8483 48.2961C46.4392 55.6786 53.1209 58.411 57.4624 58.411C61.3319 58.411 63.7849 56.916 63.9491 54.6166C64.0518 53.2453 62.7483 51.3275 61.1061 49.3271C67.6646 49.719 73.4842 48.6157 73.1865 45.5946ZM24.8134 15.394C24.0539 14.7444 24.2592 13.3421 25.265 12.2595C26.2709 11.1769 27.7078 10.816 28.4673 11.4656C29.2268 12.1152 29.0216 13.5174 28.0157 14.6001C27.0099 15.6827 25.5729 16.0333 24.8134 15.394ZM31.7415 34.0773C28.611 34.0773 26.0759 31.5306 26.0759 28.3857C26.0759 25.2409 28.611 22.6941 31.7415 22.6941C34.8719 22.6941 37.4071 25.2409 37.4071 28.3857C37.4071 31.5202 34.8719 34.0773 31.7415 34.0773ZM35.2003 11.6615C32.9936 12.6513 30.6432 12.3111 29.9453 10.9088C29.2474 9.49619 30.4687 7.55774 32.6755 6.56789C34.8822 5.57805 37.2326 5.91831 37.9305 7.32059C38.6284 8.72287 37.4071 10.6716 35.2003 11.6615ZM50.442 34.0773C47.3116 34.0773 44.7764 31.5306 44.7764 28.3857C44.7764 25.2409 47.3116 22.6941 50.442 22.6941C53.5725 22.6941 56.1076 25.2409 56.1076 28.3857C56.1076 31.5202 53.5725 34.0773 50.442 34.0773ZM50.9039 28.3445L52.9874 25.8802C52.3408 25.21 51.4376 24.7975 50.442 24.7975C48.4714 24.7975 46.8805 26.3957 46.8805 28.3754C46.8805 30.3551 48.4714 31.9533 50.442 31.9533C52.4127 31.9533 54.0035 30.3551 54.0035 28.3754C54.0035 28.3651 54.0035 28.3548 54.0035 28.3445H50.9039ZM35.2927 28.3445C35.2927 28.3548 35.2927 28.3651 35.2927 28.3754C35.2927 30.3551 33.7018 31.9533 31.7312 31.9533C29.7606 31.9533 28.1697 30.3551 28.1697 28.3754C28.1697 26.3957 29.7606 24.7975 31.7312 24.7975C32.7268 24.7975 33.63 25.21 34.2766 25.8802L32.1931 28.3445H35.2927Z" fill="#4445E7"/>
</svg>
