<svg width="233" height="41" viewBox="0 0 233 41" fill="none" xmlns="http://www.w3.org/2000/svg">
<path d="M22.3912 11.379H29.1041C28.898 9.54895 28.3975 7.92549 27.6026 6.50864C26.8076 5.09179 25.7918 3.91109 24.5552 2.96652C23.3481 1.99244 21.9643 1.2545 20.4038 0.752698C18.8728 0.250899 17.2387 0 15.5016 0C13.0873 0 10.9085 0.428006 8.96531 1.28402C7.05153 2.14003 5.43218 3.32073 4.10726 4.82613C2.78234 6.33153 1.76656 8.10259 1.05994 10.1393C0.353313 12.1465 0 14.3308 0 16.6922C0 18.9946 0.353313 21.1494 1.05994 23.1566C1.76656 25.1343 2.78234 26.8611 4.10726 28.3369C5.43218 29.8128 7.05153 30.9788 8.96531 31.8348C10.9085 32.6613 13.0873 33.0745 15.5016 33.0745C17.4448 33.0745 19.2261 32.7793 20.8454 32.189C22.4648 31.5986 23.878 30.7426 25.0852 29.621C26.2923 28.4993 27.264 27.1415 28 25.5475C28.7361 23.9536 29.1925 22.1677 29.3691 20.1901H22.6562C22.3912 22.3153 21.6551 24.0274 20.448 25.3261C19.2703 26.6249 17.6215 27.2743 15.5016 27.2743C13.9411 27.2743 12.6162 26.9791 11.5268 26.3888C10.4374 25.7689 9.55416 24.9572 8.87698 23.9536C8.1998 22.95 7.69927 21.8283 7.3754 20.5886C7.08097 19.3193 6.93376 18.0205 6.93376 16.6922C6.93376 15.3049 7.08097 13.9618 7.3754 12.6631C7.69927 11.3643 8.1998 10.2131 8.87698 9.2095C9.55416 8.17639 10.4374 7.36465 11.5268 6.7743C12.6162 6.15443 13.9411 5.84449 15.5016 5.84449C16.3554 5.84449 17.1651 5.99208 17.9306 6.28726C18.7256 6.55291 19.4322 6.93664 20.0505 7.43844C20.6688 7.94024 21.184 8.5306 21.5962 9.2095C22.0084 9.85889 22.2734 10.5821 22.3912 11.379Z" fill="white"/>
<path d="M32.5582 0.752698V32.3661H38.8295V20.3672C38.8295 18.0353 39.2123 16.3675 39.9778 15.3639C40.7433 14.3308 41.9799 13.8143 43.6876 13.8143C45.1892 13.8143 46.2344 14.2865 46.8232 15.2311C47.4121 16.1461 47.7065 17.5482 47.7065 19.4374V32.3661H53.9778V18.2862C53.9778 16.8693 53.8453 15.5853 53.5803 14.4341C53.3448 13.2534 52.9179 12.2646 52.2996 11.4676C51.6813 10.6411 50.8274 10.0065 49.7381 9.56371C48.6781 9.09143 47.309 8.85529 45.6308 8.85529C44.4531 8.85529 43.2459 9.16523 42.0094 9.7851C40.7728 10.3754 39.757 11.3348 38.962 12.6631H38.8295V0.752698H32.5582Z" fill="white"/>
<path d="M57.5893 16.5151C57.6776 15.0392 58.0456 13.8143 58.6934 12.8402C59.3411 11.8661 60.1655 11.0839 61.1666 10.4935C62.1676 9.90317 63.2864 9.48992 64.523 9.25378C65.7891 8.98812 67.0551 8.85529 68.3211 8.85529C69.4694 8.85529 70.6324 8.94384 71.8101 9.12095C72.9878 9.26854 74.0625 9.57847 75.0341 10.0508C76.0057 10.523 76.8006 11.1872 77.4189 12.0432C78.0372 12.8697 78.3464 13.9766 78.3464 15.3639V27.2743C78.3464 28.3074 78.4053 29.2963 78.523 30.2408C78.6408 31.1854 78.8469 31.8938 79.1413 32.3661H72.7817C72.6639 32.0119 72.5609 31.6577 72.4726 31.3035C72.4137 30.9197 72.3695 30.536 72.3401 30.1523C71.339 31.1854 70.1613 31.9086 68.8069 32.3218C67.4526 32.7351 66.0688 32.9417 64.6555 32.9417C63.5661 32.9417 62.5504 32.8089 61.6082 32.5432C60.666 32.2775 59.8416 31.8643 59.135 31.3035C58.4284 30.7426 57.869 30.0342 57.4568 29.1782C57.074 28.3222 56.8826 27.3038 56.8826 26.1231C56.8826 24.8243 57.1035 23.7617 57.5451 22.9352C58.0162 22.0792 58.605 21.4003 59.3117 20.8985C60.0477 20.3967 60.8721 20.0277 61.7849 19.7916C62.727 19.5259 63.6692 19.3193 64.6114 19.1717C65.5535 19.0241 66.481 18.906 67.3937 18.8175C68.3064 18.7289 69.1161 18.5961 69.8227 18.419C70.5293 18.2419 71.0887 17.991 71.5009 17.6663C71.9131 17.3121 72.1045 16.8103 72.0751 16.1609C72.0751 15.482 71.9573 14.9507 71.7218 14.567C71.5157 14.1537 71.2212 13.8438 70.8385 13.6371C70.4852 13.401 70.0583 13.2534 69.5577 13.1944C69.0866 13.1058 68.5714 13.0616 68.012 13.0616C66.7754 13.0616 65.8038 13.3272 65.0972 13.8585C64.3905 14.3898 63.9783 15.2754 63.8606 16.5151H57.5893ZM72.0751 21.1641C71.8101 21.4003 71.4715 21.5922 71.0593 21.7397C70.6766 21.8578 70.2496 21.9611 69.7785 22.0497C69.3369 22.1382 68.8658 22.212 68.3653 22.2711C67.8648 22.3301 67.3643 22.4039 66.8637 22.4924C66.3926 22.581 65.9216 22.6991 65.4505 22.8467C65.0088 22.9942 64.6114 23.2009 64.258 23.4665C63.9342 23.7027 63.6692 24.0126 63.4631 24.3963C63.257 24.7801 63.1539 25.2671 63.1539 25.8575C63.1539 26.4183 63.257 26.8906 63.4631 27.2743C63.6692 27.658 63.9489 27.968 64.3022 28.2041C64.6555 28.4107 65.0677 28.5583 65.5388 28.6469C66.0099 28.7354 66.4957 28.7797 66.9962 28.7797C68.2328 28.7797 69.1897 28.5731 69.8669 28.1598C70.5441 27.7466 71.0446 27.2595 71.3685 26.6987C71.6923 26.1084 71.8837 25.518 71.9426 24.9276C72.0309 24.3373 72.0751 23.865 72.0751 23.5108V21.1641Z" fill="white"/>
<path d="M88.7788 5.93305V0.752698H82.5075V5.93305H88.7788ZM82.5075 9.47516V32.3661H88.7788V9.47516H82.5075Z" fill="white"/>
<path d="M92.8336 9.47516V32.3661H99.1049V20.3672C99.1049 18.0353 99.4876 16.3675 100.253 15.3639C101.019 14.3308 102.255 13.8143 103.963 13.8143C105.465 13.8143 106.51 14.2865 107.099 15.2311C107.687 16.1461 107.982 17.5482 107.982 19.4374V32.3661H114.253V18.2862C114.253 16.8693 114.121 15.5853 113.856 14.4341C113.62 13.2534 113.193 12.2646 112.575 11.4676C111.957 10.6411 111.103 10.0065 110.013 9.56371C108.953 9.09143 107.584 8.85529 105.906 8.85529C104.581 8.85529 103.286 9.16523 102.02 9.7851C100.754 10.3754 99.7232 11.3348 98.9282 12.6631H98.7957V9.47516H92.8336Z" fill="white"/>
<path d="M128.773 26.9644C127.802 26.9644 126.992 26.7577 126.344 26.3445C125.696 25.9312 125.166 25.3999 124.754 24.7505C124.371 24.1012 124.092 23.378 123.915 22.581C123.768 21.7545 123.694 20.928 123.694 20.1015C123.694 19.2455 123.783 18.4338 123.959 17.6663C124.165 16.8693 124.474 16.1757 124.887 15.5853C125.328 14.9654 125.858 14.4784 126.477 14.1242C127.124 13.77 127.89 13.5929 128.773 13.5929C129.804 13.5929 130.657 13.7847 131.335 14.1685C132.012 14.5522 132.557 15.0688 132.969 15.7181C133.381 16.3675 133.675 17.1202 133.852 17.9762C134.029 18.8027 134.117 19.6883 134.117 20.6328C134.117 21.4593 133.999 22.2563 133.764 23.0238C133.558 23.7617 133.234 24.4258 132.792 25.0162C132.35 25.6066 131.791 26.0788 131.114 26.433C130.437 26.7873 129.656 26.9644 128.773 26.9644ZM140.079 30.905V9.47516H134.117V12.5302H134.029C133.263 11.2019 132.306 10.2574 131.158 9.69654C130.039 9.13571 128.729 8.85529 127.227 8.85529C125.637 8.85529 124.224 9.16523 122.988 9.7851C121.78 10.405 120.765 11.2462 119.94 12.3089C119.116 13.342 118.483 14.5522 118.041 15.9395C117.629 17.2973 117.423 18.7142 117.423 20.1901C117.423 21.7545 117.6 23.2451 117.953 24.662C118.336 26.0493 118.925 27.2743 119.719 28.3369C120.514 29.3701 121.53 30.1965 122.767 30.8164C124.003 31.4068 125.476 31.7019 127.183 31.7019C128.567 31.7019 129.877 31.4215 131.114 30.8607C132.38 30.2703 133.351 29.3701 134.029 28.1598H134.117V31.1706C134.146 32.7941 133.749 34.1371 132.925 35.1998C132.13 36.2624 130.849 36.7937 129.082 36.7937C127.963 36.7937 126.977 36.5576 126.123 36.0853C125.269 35.6425 124.695 34.8308 124.401 33.6501H118.174C118.262 34.9489 118.615 36.0558 119.234 36.9708C119.881 37.9154 120.676 38.6829 121.619 39.2732C122.59 39.8636 123.65 40.2916 124.798 40.5572C125.976 40.8524 127.124 41 128.243 41C130.864 41 132.954 40.6458 134.514 39.9374C136.075 39.2289 137.267 38.3582 138.092 37.3251C138.916 36.3215 139.446 35.2293 139.682 34.0486C139.947 32.8679 140.079 31.82 140.079 30.905Z" fill="white"/>
<path d="M165.665 32.3661V9.47516H159.393V21.4741C159.393 23.806 159.011 25.4885 158.245 26.5216C157.48 27.5252 156.243 28.027 154.535 28.027C153.034 28.027 151.988 27.5695 151.4 26.6544C150.811 25.7099 150.516 24.293 150.516 22.4039V9.47516H144.245V23.5551C144.245 24.9719 144.363 26.2707 144.598 27.4514C144.863 28.6026 145.305 29.5914 145.923 30.4179C146.542 31.2149 147.381 31.8348 148.441 32.2775C149.53 32.7203 150.914 32.9417 152.592 32.9417C153.917 32.9417 155.212 32.6465 156.479 32.0562C157.745 31.4658 158.775 30.5065 159.57 29.1782H159.702V32.3661H165.665Z" fill="white"/>
<path d="M169.276 16.5151C169.364 15.0392 169.732 13.8143 170.38 12.8402C171.028 11.8661 171.852 11.0839 172.853 10.4935C173.854 9.90317 174.973 9.48992 176.21 9.25378C177.476 8.98812 178.742 8.85529 180.008 8.85529C181.156 8.85529 182.319 8.94384 183.497 9.12095C184.675 9.26854 185.749 9.57847 186.721 10.0508C187.692 10.523 188.487 11.1872 189.106 12.0432C189.724 12.8697 190.033 13.9766 190.033 15.3639V27.2743C190.033 28.3074 190.092 29.2963 190.21 30.2408C190.328 31.1854 190.534 31.8938 190.828 32.3661H184.469C184.351 32.0119 184.248 31.6577 184.159 31.3035C184.1 30.9197 184.056 30.536 184.027 30.1523C183.026 31.1854 181.848 31.9086 180.494 32.3218C179.139 32.7351 177.756 32.9417 176.342 32.9417C175.253 32.9417 174.237 32.8089 173.295 32.5432C172.353 32.2775 171.528 31.8643 170.822 31.3035C170.115 30.7426 169.556 30.0342 169.144 29.1782C168.761 28.3222 168.569 27.3038 168.569 26.1231C168.569 24.8243 168.79 23.7617 169.232 22.9352C169.703 22.0792 170.292 21.4003 170.998 20.8985C171.735 20.3967 172.559 20.0277 173.472 19.7916C174.414 19.5259 175.356 19.3193 176.298 19.1717C177.24 19.0241 178.168 18.906 179.081 18.8175C179.993 18.7289 180.803 18.5961 181.51 18.419C182.216 18.2419 182.776 17.991 183.188 17.6663C183.6 17.3121 183.791 16.8103 183.762 16.1609C183.762 15.482 183.644 14.9507 183.409 14.567C183.202 14.1537 182.908 13.8438 182.525 13.6371C182.172 13.401 181.745 13.2534 181.245 13.1944C180.773 13.1058 180.258 13.0616 179.699 13.0616C178.462 13.0616 177.491 13.3272 176.784 13.8585C176.077 14.3898 175.665 15.2754 175.547 16.5151H169.276ZM183.762 21.1641C183.497 21.4003 183.158 21.5922 182.746 21.7397C182.363 21.8578 181.936 21.9611 181.465 22.0497C181.024 22.1382 180.553 22.212 180.052 22.2711C179.552 22.3301 179.051 22.4039 178.551 22.4924C178.079 22.581 177.608 22.6991 177.137 22.8467C176.696 22.9942 176.298 23.2009 175.945 23.4665C175.621 23.7027 175.356 24.0126 175.15 24.3963C174.944 24.7801 174.841 25.2671 174.841 25.8575C174.841 26.4183 174.944 26.8906 175.15 27.2743C175.356 27.658 175.636 27.968 175.989 28.2041C176.342 28.4107 176.755 28.5583 177.226 28.6469C177.697 28.7354 178.182 28.7797 178.683 28.7797C179.92 28.7797 180.877 28.5731 181.554 28.1598C182.231 27.7466 182.731 27.2595 183.055 26.6987C183.379 26.1084 183.571 25.518 183.629 24.9276C183.718 24.3373 183.762 23.865 183.762 23.5108V21.1641Z" fill="white"/>
<path d="M194.018 9.47516V32.3661H200.289V22.0497C200.289 21.0166 200.392 20.0572 200.598 19.1717C200.804 18.2862 201.143 17.5187 201.614 16.8693C202.114 16.1904 202.762 15.6591 203.557 15.2754C204.352 14.8916 205.324 14.6998 206.472 14.6998C206.855 14.6998 207.252 14.7293 207.664 14.7883C208.077 14.8179 208.43 14.8621 208.724 14.9212V9.07667C208.224 8.92909 207.767 8.85529 207.355 8.85529C206.56 8.85529 205.795 8.97336 205.059 9.2095C204.323 9.44564 203.631 9.7851 202.983 10.2279C202.335 10.6411 201.761 11.1577 201.261 11.7775C200.76 12.3679 200.363 13.0173 200.068 13.7257H199.98V9.47516H194.018Z" fill="white"/>
<path d="M226.95 20.8542C226.95 21.7988 226.861 22.7138 226.685 23.5994C226.508 24.4849 226.213 25.2819 225.801 25.9903C225.389 26.6692 224.83 27.2153 224.123 27.6285C223.446 28.0418 222.592 28.2484 221.562 28.2484C220.59 28.2484 219.751 28.0418 219.044 27.6285C218.367 27.1857 217.793 26.6249 217.322 25.946C216.88 25.2376 216.556 24.4406 216.35 23.5551C216.144 22.6695 216.041 21.784 216.041 20.8985C216.041 19.9539 216.129 19.0536 216.306 18.1976C216.512 17.3121 216.821 16.5299 217.233 15.851C217.675 15.1721 218.249 14.626 218.956 14.2127C219.662 13.7995 220.531 13.5929 221.562 13.5929C222.592 13.5929 223.446 13.7995 224.123 14.2127C224.8 14.626 225.345 15.1721 225.757 15.851C226.199 16.5004 226.508 17.2678 226.685 18.1533C226.861 19.0094 226.95 19.9096 226.95 20.8542ZM227.038 29.4438V32.3661H233V0.752698H226.729V12.2646H226.64C225.934 11.1429 224.962 10.3017 223.726 9.74082C222.518 9.15047 221.238 8.85529 219.883 8.85529C218.205 8.85529 216.733 9.19474 215.467 9.87365C214.201 10.523 213.141 11.3938 212.287 12.486C211.463 13.5781 210.83 14.8474 210.388 16.2937C209.976 17.7106 209.77 19.1865 209.77 20.7214C209.77 22.3153 209.976 23.8503 210.388 25.3261C210.83 26.802 211.463 28.1155 212.287 29.2667C213.141 30.3884 214.216 31.2887 215.511 31.9676C216.807 32.617 218.308 32.9417 220.016 32.9417C221.517 32.9417 222.857 32.676 224.035 32.1447C225.242 31.5839 226.213 30.6836 226.95 29.4438H227.038Z" fill="white"/>
</svg>
