<svg width="234" height="41" viewBox="0 0 234 41" fill="none" xmlns="http://www.w3.org/2000/svg">
<path d="M22.4482 11.379H29.1782C28.9716 9.54895 28.4698 7.92549 27.6728 6.50864C26.8758 5.09179 25.8575 3.91109 24.6177 2.96652C23.4075 1.99244 22.0202 1.2545 20.4557 0.752698C18.9208 0.250899 17.2826 0 15.541 0C13.1206 0 10.9363 0.428006 8.98812 1.28402C7.06948 2.14003 5.44601 3.32073 4.11771 4.82613C2.78942 6.33153 1.77106 8.10259 1.06264 10.1393C0.354212 12.1465 0 14.3308 0 16.6922C0 18.9946 0.354212 21.1494 1.06264 23.1566C1.77106 25.1343 2.78942 26.8611 4.11771 28.3369C5.44601 29.8128 7.06948 30.9788 8.98812 31.8348C10.9363 32.6613 13.1206 33.0745 15.541 33.0745C17.4892 33.0745 19.275 32.7793 20.8985 32.189C22.522 31.5986 23.9388 30.7426 25.149 29.621C26.3593 28.4993 27.3333 27.1415 28.0713 25.5475C28.8092 23.9536 29.2667 22.1677 29.4438 20.1901H22.7138C22.4482 22.3153 21.7102 24.0274 20.5 25.3261C19.3193 26.6249 17.6663 27.2743 15.541 27.2743C13.9766 27.2743 12.6483 26.9791 11.5562 26.3888C10.464 25.7689 9.57847 24.9572 8.89957 23.9536C8.22066 22.95 7.71886 21.8283 7.39417 20.5886C7.09899 19.3193 6.9514 18.0205 6.9514 16.6922C6.9514 15.3049 7.09899 13.9618 7.39417 12.6631C7.71886 11.3643 8.22066 10.2131 8.89957 9.2095C9.57847 8.17639 10.464 7.36465 11.5562 6.7743C12.6483 6.15443 13.9766 5.84449 15.541 5.84449C16.3971 5.84449 17.2088 5.99208 17.9762 6.28726C18.7732 6.55291 19.4816 6.93664 20.1015 7.43844C20.7214 7.94024 21.2379 8.5306 21.6512 9.2095C22.0644 9.85889 22.3301 10.5821 22.4482 11.379Z" fill="#4445E7"/>
<path d="M32.6411 0.752698V32.3661H38.9283V20.3672C38.9283 18.0353 39.3121 16.3675 40.0795 15.3639C40.847 14.3308 42.0867 13.8143 43.7988 13.8143C45.3042 13.8143 46.352 14.2865 46.9424 15.2311C47.5327 16.1461 47.8279 17.5482 47.8279 19.4374V32.3661H54.1152V18.2862C54.1152 16.8693 53.9823 15.5853 53.7167 14.4341C53.4805 13.2534 53.0525 12.2646 52.4327 11.4676C51.8128 10.6411 50.9568 10.0065 49.8646 9.56371C48.802 9.09143 47.4294 8.85529 45.7469 8.85529C44.5662 8.85529 43.356 9.16523 42.1163 9.7851C40.8765 10.3754 39.8582 11.3348 39.0612 12.6631H38.9283V0.752698H32.6411Z" fill="#4445E7"/>
<path d="M57.7358 16.5151C57.8244 15.0392 58.1933 13.8143 58.8427 12.8402C59.4921 11.8661 60.3186 11.0839 61.3222 10.4935C62.3258 9.90317 63.4475 9.48992 64.6872 9.25378C65.9565 8.98812 67.2257 8.85529 68.495 8.85529C69.6462 8.85529 70.8121 8.94384 71.9928 9.12095C73.1735 9.26854 74.2509 9.57847 75.225 10.0508C76.1991 10.523 76.9961 11.1872 77.6159 12.0432C78.2358 12.8697 78.5457 13.9766 78.5457 15.3639V27.2743C78.5457 28.3074 78.6048 29.2963 78.7229 30.2408C78.8409 31.1854 79.0476 31.8938 79.3427 32.3661H72.9669C72.8488 32.0119 72.7455 31.6577 72.657 31.3035C72.5979 30.9197 72.5537 30.536 72.5242 30.1523C71.5206 31.1854 70.3399 31.9086 68.982 32.3218C67.6242 32.7351 66.2369 32.9417 64.82 32.9417C63.7279 32.9417 62.7095 32.8089 61.765 32.5432C60.8204 32.2775 59.9939 31.8643 59.2855 31.3035C58.5771 30.7426 58.0162 30.0342 57.603 29.1782C57.2193 28.3222 57.0274 27.3038 57.0274 26.1231C57.0274 24.8243 57.2488 23.7617 57.6915 22.9352C58.1638 22.0792 58.7542 21.4003 59.4626 20.8985C60.2005 20.3967 61.027 20.0277 61.9421 19.7916C62.8866 19.5259 63.8312 19.3193 64.7758 19.1717C65.7203 19.0241 66.6501 18.906 67.5652 18.8175C68.4802 18.7289 69.292 18.5961 70.0004 18.419C70.7088 18.2419 71.2697 17.991 71.6829 17.6663C72.0961 17.3121 72.288 16.8103 72.2585 16.1609C72.2585 15.482 72.1404 14.9507 71.9043 14.567C71.6977 14.1537 71.4025 13.8438 71.0188 13.6371C70.6645 13.401 70.2365 13.2534 69.7347 13.1944C69.2625 13.1058 68.7459 13.0616 68.1851 13.0616C66.9453 13.0616 65.9712 13.3272 65.2628 13.8585C64.5544 14.3898 64.1411 15.2754 64.0231 16.5151H57.7358ZM72.2585 21.1641C71.9928 21.4003 71.6534 21.5922 71.2401 21.7397C70.8564 21.8578 70.4284 21.9611 69.9561 22.0497C69.5134 22.1382 69.0411 22.212 68.5393 22.2711C68.0375 22.3301 67.5357 22.4039 67.0339 22.4924C66.5616 22.581 66.0893 22.6991 65.617 22.8467C65.1743 22.9942 64.7758 23.2009 64.4216 23.4665C64.0969 23.7027 63.8312 24.0126 63.6246 24.3963C63.418 24.7801 63.3146 25.2671 63.3146 25.8575C63.3146 26.4183 63.418 26.8906 63.6246 27.2743C63.8312 27.658 64.1116 27.968 64.4658 28.2041C64.82 28.4107 65.2333 28.5583 65.7056 28.6469C66.1779 28.7354 66.6649 28.7797 67.1667 28.7797C68.4064 28.7797 69.3658 28.5731 70.0447 28.1598C70.7236 27.7466 71.2254 27.2595 71.5501 26.6987C71.8748 26.1084 72.0666 25.518 72.1257 24.9276C72.2142 24.3373 72.2585 23.865 72.2585 23.5108V21.1641Z" fill="#4445E7"/>
<path d="M89.0047 5.93305V0.752698H82.7174V5.93305H89.0047ZM82.7174 9.47516V32.3661H89.0047V9.47516H82.7174Z" fill="#4445E7"/>
<path d="M93.0698 9.47516V32.3661H99.3571V20.3672C99.3571 18.0353 99.7408 16.3675 100.508 15.3639C101.276 14.3308 102.515 13.8143 104.227 13.8143C105.733 13.8143 106.781 14.2865 107.371 15.2311C107.961 16.1461 108.257 17.5482 108.257 19.4374V32.3661H114.544V18.2862C114.544 16.8693 114.411 15.5853 114.145 14.4341C113.909 13.2534 113.481 12.2646 112.861 11.4676C112.242 10.6411 111.386 10.0065 110.293 9.56371C109.231 9.09143 107.858 8.85529 106.176 8.85529C104.847 8.85529 103.549 9.16523 102.279 9.7851C101.01 10.3754 99.9769 11.3348 99.18 12.6631H99.0471V9.47516H93.0698Z" fill="#4445E7"/>
<path d="M129.101 26.9644C128.127 26.9644 127.315 26.7577 126.666 26.3445C126.016 25.9312 125.485 25.3999 125.072 24.7505C124.688 24.1012 124.408 23.378 124.23 22.581C124.083 21.7545 124.009 20.928 124.009 20.1015C124.009 19.2455 124.098 18.4338 124.275 17.6663C124.481 16.8693 124.791 16.1757 125.204 15.5853C125.647 14.9654 126.179 14.4784 126.798 14.1242C127.448 13.77 128.215 13.5929 129.101 13.5929C130.134 13.5929 130.99 13.7847 131.669 14.1685C132.348 14.5522 132.894 15.0688 133.307 15.7181C133.72 16.3675 134.016 17.1202 134.193 17.9762C134.37 18.8027 134.458 19.6883 134.458 20.6328C134.458 21.4593 134.34 22.2563 134.104 23.0238C133.897 23.7617 133.573 24.4258 133.13 25.0162C132.687 25.6066 132.126 26.0788 131.447 26.433C130.769 26.7873 129.986 26.9644 129.101 26.9644ZM140.436 30.905V9.47516H134.458V12.5302H134.37C133.602 11.2019 132.643 10.2574 131.492 9.69654C130.37 9.13571 129.057 8.85529 127.551 8.85529C125.957 8.85529 124.54 9.16523 123.301 9.7851C122.09 10.405 121.072 11.2462 120.246 12.3089C119.419 13.342 118.784 14.5522 118.342 15.9395C117.928 17.2973 117.722 18.7142 117.722 20.1901C117.722 21.7545 117.899 23.2451 118.253 24.662C118.637 26.0493 119.227 27.2743 120.024 28.3369C120.821 29.3701 121.839 30.1965 123.079 30.8164C124.319 31.4068 125.795 31.7019 127.507 31.7019C128.894 31.7019 130.208 31.4215 131.447 30.8607C132.717 30.2703 133.691 29.3701 134.37 28.1598H134.458V31.1706C134.488 32.7941 134.089 34.1371 133.263 35.1998C132.466 36.2624 131.182 36.7937 129.411 36.7937C128.289 36.7937 127.3 36.5576 126.444 36.0853C125.588 35.6425 125.013 34.8308 124.717 33.6501H118.474C118.563 34.9489 118.917 36.0558 119.537 36.9708C120.186 37.9154 120.983 38.6829 121.928 39.2732C122.902 39.8636 123.965 40.2916 125.116 40.5572C126.297 40.8524 127.448 41 128.57 41C131.197 41 133.292 40.6458 134.857 39.9374C136.421 39.2289 137.617 38.3582 138.443 37.3251C139.27 36.3215 139.801 35.2293 140.037 34.0486C140.303 32.8679 140.436 31.82 140.436 30.905Z" fill="#4445E7"/>
<path d="M166.086 32.3661V9.47516H159.799V21.4741C159.799 23.806 159.415 25.4885 158.648 26.5216C157.88 27.5252 156.641 28.027 154.929 28.027C153.423 28.027 152.375 27.5695 151.785 26.6544C151.195 25.7099 150.899 24.293 150.899 22.4039V9.47516H144.612V23.5551C144.612 24.9719 144.73 26.2707 144.966 27.4514C145.232 28.6026 145.675 29.5914 146.295 30.4179C146.914 31.2149 147.756 31.8348 148.818 32.2775C149.911 32.7203 151.298 32.9417 152.98 32.9417C154.309 32.9417 155.607 32.6465 156.877 32.0562C158.146 31.4658 159.179 30.5065 159.976 29.1782H160.109V32.3661H166.086Z" fill="#4445E7"/>
<path d="M169.707 16.5151C169.795 15.0392 170.164 13.8143 170.814 12.8402C171.463 11.8661 172.29 11.0839 173.293 10.4935C174.297 9.90317 175.419 9.48992 176.658 9.25378C177.928 8.98812 179.197 8.85529 180.466 8.85529C181.617 8.85529 182.783 8.94384 183.964 9.12095C185.145 9.26854 186.222 9.57847 187.196 10.0508C188.17 10.523 188.967 11.1872 189.587 12.0432C190.207 12.8697 190.517 13.9766 190.517 15.3639V27.2743C190.517 28.3074 190.576 29.2963 190.694 30.2408C190.812 31.1854 191.019 31.8938 191.314 32.3661H184.938C184.82 32.0119 184.717 31.6577 184.628 31.3035C184.569 30.9197 184.525 30.536 184.495 30.1523C183.492 31.1854 182.311 31.9086 180.953 32.3218C179.595 32.7351 178.208 32.9417 176.791 32.9417C175.699 32.9417 174.681 32.8089 173.736 32.5432C172.791 32.2775 171.965 31.8643 171.257 31.3035C170.548 30.7426 169.987 30.0342 169.574 29.1782C169.19 28.3222 168.998 27.3038 168.998 26.1231C168.998 24.8243 169.22 23.7617 169.663 22.9352C170.135 22.0792 170.725 21.4003 171.434 20.8985C172.172 20.3967 172.998 20.0277 173.913 19.7916C174.858 19.5259 175.802 19.3193 176.747 19.1717C177.691 19.0241 178.621 18.906 179.536 18.8175C180.451 18.7289 181.263 18.5961 181.971 18.419C182.68 18.2419 183.241 17.991 183.654 17.6663C184.067 17.3121 184.259 16.8103 184.23 16.1609C184.23 15.482 184.111 14.9507 183.875 14.567C183.669 14.1537 183.374 13.8438 182.99 13.6371C182.636 13.401 182.208 13.2534 181.706 13.1944C181.233 13.1058 180.717 13.0616 180.156 13.0616C178.916 13.0616 177.942 13.3272 177.234 13.8585C176.525 14.3898 176.112 15.2754 175.994 16.5151H169.707ZM184.23 21.1641C183.964 21.4003 183.624 21.5922 183.211 21.7397C182.827 21.8578 182.399 21.9611 181.927 22.0497C181.484 22.1382 181.012 22.212 180.51 22.2711C180.008 22.3301 179.507 22.4039 179.005 22.4924C178.533 22.581 178.06 22.6991 177.588 22.8467C177.145 22.9942 176.747 23.2009 176.393 23.4665C176.068 23.7027 175.802 24.0126 175.596 24.3963C175.389 24.7801 175.286 25.2671 175.286 25.8575C175.286 26.4183 175.389 26.8906 175.596 27.2743C175.802 27.658 176.083 27.968 176.437 28.2041C176.791 28.4107 177.204 28.5583 177.677 28.6469C178.149 28.7354 178.636 28.7797 179.138 28.7797C180.377 28.7797 181.337 28.5731 182.016 28.1598C182.695 27.7466 183.196 27.2595 183.521 26.6987C183.846 26.1084 184.038 25.518 184.097 24.9276C184.185 24.3373 184.23 23.865 184.23 23.5108V21.1641Z" fill="#4445E7"/>
<path d="M194.511 9.47516V32.3661H200.799V22.0497C200.799 21.0166 200.902 20.0572 201.109 19.1717C201.315 18.2862 201.655 17.5187 202.127 16.8693C202.629 16.1904 203.278 15.6591 204.075 15.2754C204.872 14.8916 205.846 14.6998 206.997 14.6998C207.381 14.6998 207.78 14.7293 208.193 14.7883C208.606 14.8179 208.96 14.8621 209.255 14.9212V9.07667C208.754 8.92909 208.296 8.85529 207.883 8.85529C207.086 8.85529 206.318 8.97336 205.58 9.2095C204.843 9.44564 204.149 9.7851 203.499 10.2279C202.85 10.6411 202.274 11.1577 201.773 11.7775C201.271 12.3679 200.872 13.0173 200.577 13.7257H200.489V9.47516H194.511Z" fill="#4445E7"/>
<path d="M227.527 20.8542C227.527 21.7988 227.439 22.7138 227.261 23.5994C227.084 24.4849 226.789 25.2819 226.376 25.9903C225.963 26.6692 225.402 27.2153 224.693 27.6285C224.014 28.0418 223.158 28.2484 222.125 28.2484C221.151 28.2484 220.31 28.0418 219.602 27.6285C218.923 27.1857 218.347 26.6249 217.875 25.946C217.432 25.2376 217.107 24.4406 216.901 23.5551C216.694 22.6695 216.591 21.784 216.591 20.8985C216.591 19.9539 216.679 19.0536 216.856 18.1976C217.063 17.3121 217.373 16.5299 217.786 15.851C218.229 15.1721 218.805 14.626 219.513 14.2127C220.221 13.7995 221.092 13.5929 222.125 13.5929C223.158 13.5929 224.014 13.7995 224.693 14.2127C225.372 14.626 225.918 15.1721 226.332 15.851C226.774 16.5004 227.084 17.2678 227.261 18.1533C227.439 19.0094 227.527 19.9096 227.527 20.8542ZM227.616 29.4438V32.3661H233.593V0.752698H227.306V12.2646H227.217C226.509 11.1429 225.535 10.3017 224.295 9.74082C223.085 9.15047 221.801 8.85529 220.443 8.85529C218.76 8.85529 217.284 9.19474 216.015 9.87365C214.746 10.523 213.683 11.3938 212.827 12.486C212.001 13.5781 211.366 14.8474 210.923 16.2937C210.51 17.7106 210.304 19.1865 210.304 20.7214C210.304 22.3153 210.51 23.8503 210.923 25.3261C211.366 26.802 212.001 28.1155 212.827 29.2667C213.683 30.3884 214.761 31.2887 216.059 31.9676C217.358 32.617 218.864 32.9417 220.576 32.9417C222.081 32.9417 223.424 32.676 224.605 32.1447C225.815 31.5839 226.789 30.6836 227.527 29.4438H227.616Z" fill="#4445E7"/>
</svg>
