<svg xmlns="http://www.w3.org/2000/svg" width="14" height="16" viewBox="0 0 14 16" fill="none">
    <path
        d="M2.12499 15.417C1.74966 15.417 1.43366 15.2883 1.17699 15.031C0.920326 14.7743 0.791992 14.4583 0.791992 14.083V3.66699H1.87499V14.083C1.87499 14.153 1.89933 14.212 1.94799 14.26C1.99666 14.3087 2.05566 14.333 2.12499 14.333H10.542V15.417H2.12499ZM4.70799 12.833C4.33333 12.833 4.01733 12.7047 3.75999 12.448C3.50333 12.1907 3.37499 11.8747 3.37499 11.5V2.02099C3.37499 1.64566 3.50333 1.32633 3.75999 1.06299C4.01733 0.798992 4.33333 0.666992 4.70799 0.666992H12.188C12.5627 0.666992 12.882 0.798992 13.146 1.06299C13.41 1.32633 13.542 1.64566 13.542 2.02099V11.5C13.542 11.8747 13.41 12.1907 13.146 12.448C12.882 12.7047 12.5627 12.833 12.188 12.833H4.70799ZM4.70799 11.75H12.188C12.2573 11.75 12.3197 11.7257 12.375 11.677C12.4303 11.6283 12.458 11.5693 12.458 11.5V2.02099C12.458 1.95166 12.4303 1.88899 12.375 1.83299C12.3197 1.77766 12.2573 1.74999 12.188 1.74999H4.70799C4.63866 1.74999 4.57966 1.77766 4.53099 1.83299C4.48233 1.88899 4.45799 1.95166 4.45799 2.02099V11.5C4.45799 11.5693 4.48233 11.6283 4.53099 11.677C4.57966 11.7257 4.63866 11.75 4.70799 11.75Z"
        fill="#FFFFFF" />
</svg>