<svg width="84" height="67" viewBox="0 0 84 67" fill="none" xmlns="http://www.w3.org/2000/svg">
<g filter="url(#filter0_d_370_653)">
<path d="M27.4862 23.1328H56.5139V18.9862H27.4862V23.1328ZM27.4862 48.0139H48.8582V43.8672H27.4862V48.0139ZM27.4862 35.5734H56.5139V31.4267H27.4862V35.5734ZM21.9284 58.7C20.4926 58.7 19.2789 58.2043 18.2873 57.2128C17.2958 56.2212 16.8 55.0075 16.8 53.5717V13.4284C16.8 11.9926 17.2958 10.7789 18.2873 9.78733C19.2789 8.79581 20.4926 8.30005 21.9284 8.30005H62.0717C63.5075 8.30005 64.7212 8.79581 65.7128 9.78733C66.7043 10.7789 67.2 11.9926 67.2 13.4284V53.5717C67.2 55.0075 66.7043 56.2212 65.7128 57.2128C64.7212 58.2043 63.5075 58.7 62.0717 58.7H21.9284Z" fill="white"/>
</g>
<defs>
<filter id="filter0_d_370_653" x="0.800049" y="0.300049" width="82.4" height="82.4" filterUnits="userSpaceOnUse" color-interpolation-filters="sRGB">
<feFlood flood-opacity="0" result="BackgroundImageFix"/>
<feColorMatrix in="SourceAlpha" type="matrix" values="0 0 0 0 0 0 0 0 0 0 0 0 0 0 0 0 0 0 127 0" result="hardAlpha"/>
<feOffset dy="8"/>
<feGaussianBlur stdDeviation="8"/>
<feComposite in2="hardAlpha" operator="out"/>
<feColorMatrix type="matrix" values="0 0 0 0 0.203922 0 0 0 0 0.262745 0 0 0 0 0.956863 0 0 0 0.12 0"/>
<feBlend mode="normal" in2="BackgroundImageFix" result="effect1_dropShadow_370_653"/>
<feBlend mode="normal" in="SourceGraphic" in2="effect1_dropShadow_370_653" result="shape"/>
</filter>
</defs>
</svg>
