<svg width="104" height="67" viewBox="0 0 104 67" fill="none" xmlns="http://www.w3.org/2000/svg">
<g filter="url(#filter0_d_313_358)">
<path fill-rule="evenodd" clip-rule="evenodd" d="M80.1289 9.80426C83.2287 10.634 85.6649 13.07 86.4945 16.1698C87.9939 21.7825 88 33.5 88 33.5C88 33.5 88 45.2175 86.4945 50.8303C85.6649 53.9301 83.2287 56.366 80.1289 57.1957C74.5164 58.7012 51.9999 58.7012 51.9999 58.7012C51.9999 58.7012 29.4837 58.7012 23.8709 57.1957C20.7712 56.366 18.3352 53.9301 17.5054 50.8303C16 45.2175 16 33.5 16 33.5C16 33.5 16 21.7825 17.5054 16.1698C18.3352 13.07 20.7712 10.634 23.8709 9.80426C29.4837 8.29883 51.9999 8.29883 51.9999 8.29883C51.9999 8.29883 74.5164 8.29883 80.1289 9.80426ZM63.4983 33.5011L44.793 44.2999V22.7023L63.4983 33.5011Z" fill="white"/>
</g>
<defs>
<filter id="filter0_d_313_358" x="0" y="0.298828" width="104" height="82.4023" filterUnits="userSpaceOnUse" color-interpolation-filters="sRGB">
<feFlood flood-opacity="0" result="BackgroundImageFix"/>
<feColorMatrix in="SourceAlpha" type="matrix" values="0 0 0 0 0 0 0 0 0 0 0 0 0 0 0 0 0 0 127 0" result="hardAlpha"/>
<feOffset dy="8"/>
<feGaussianBlur stdDeviation="8"/>
<feComposite in2="hardAlpha" operator="out"/>
<feColorMatrix type="matrix" values="0 0 0 0 0.203922 0 0 0 0 0.262745 0 0 0 0 0.956863 0 0 0 0.12 0"/>
<feBlend mode="normal" in2="BackgroundImageFix" result="effect1_dropShadow_313_358"/>
<feBlend mode="normal" in="SourceGraphic" in2="effect1_dropShadow_313_358" result="shape"/>
</filter>
</defs>
</svg>
