<svg xmlns="http://www.w3.org/2000/svg" width="104" height="67" fill="none" style="color-scheme:light dark" viewBox="0 0 104 67"><g filter="url(#a)"><path fill-rule="evenodd" d="M80.129 9.804a9.02 9.02 0 0 1 6.365 6.366C87.995 21.782 88 33.5 88 33.5s0 11.718-1.505 17.33a9.02 9.02 0 0 1-6.366 6.366C74.516 58.7 51.999 58.7 51.999 58.7s-22.515 0-28.128-1.505a9.02 9.02 0 0 1-6.366-6.366C16 45.218 16 33.5 16 33.5s0-11.718 1.505-17.33a9.02 9.02 0 0 1 6.366-6.366C29.484 8.3 52 8.3 52 8.3s22.516 0 28.129 1.505m-16.63 23.697L44.792 44.3V22.702z" clip-rule="evenodd" style="fill:light-dark(#000,#fff)"/></g><defs><filter id="a" width="104" height="82.402" x="0" y=".299" color-interpolation-filters="sRGB" filterUnits="userSpaceOnUse"><feFlood flood-opacity="0" result="BackgroundImageFix"/><feColorMatrix in="SourceAlpha" result="hardAlpha" values="0 0 0 0 0 0 0 0 0 0 0 0 0 0 0 0 0 0 127 0"/><feOffset dy="8"/><feGaussianBlur stdDeviation="8"/><feComposite in2="hardAlpha" operator="out"/><feColorMatrix values="0 0 0 0 0.203922 0 0 0 0 0.262745 0 0 0 0 0.956863 0 0 0 0.12 0"/><feBlend in2="BackgroundImageFix" result="effect1_dropShadow_313_358"/><feBlend in="SourceGraphic" in2="effect1_dropShadow_313_358" result="shape"/></filter></defs></svg>