<?xml version="1.0" encoding="UTF-8"?>
<svg id="Layer_1" data-name="Layer 1" xmlns="http://www.w3.org/2000/svg" viewBox="0 0 485 485">
  <defs>
    <style>
      .cls-1 {
        fill: #fff;
        stroke-width: 0px;
      }
    </style>
  </defs>
  <g id="Layer_2" data-name="Layer 2">
    <path class="cls-1" d="M200.72,403.84c-106.04,0-192-85.96-192-192S94.68,19.84,200.72,19.84s192,85.96,192,192-85.96,192-192,192ZM200.72,62.51c-82.47,0-149.33,66.86-149.33,149.33s66.86,149.33,149.33,149.33,149.33-66.86,149.33-149.33S283.19,62.51,200.72,62.51Z"/>
    <path class="cls-1" d="M343.86,324.69l-30.29,30.29,113.07,112.85c8.32,8.27,21.76,8.27,30.08,0,8.27-8.32,8.27-21.76,0-30.08l-112.85-113.07Z"/>
    <path class="cls-1" d="M276.27,170.28c-17.98-32.78-45.45-48.65-82.94-47.7-6.98.75-14.37-3.97-16.49-11.8h0c-2.11-7.83,3.91-16.38,13.4-17.4,49.95-2.46,89.82,20.49,112.81,64.88,3.9,8.71-.47,18.22-8.3,20.33h0c-7.83,2.11-15.62-1.91-18.49-8.32Z"/>
  </g>
</svg>