<svg xmlns="http://www.w3.org/2000/svg" width="14" height="14" viewBox="0 0 14 14" fill="none">
    <path fill-rule="evenodd" clip-rule="evenodd"
        d="M11 6C11 8.76142 8.76142 11 6 11C3.23858 11 1 8.76142 1 6C1 3.23858 3.23858 1 6 1C8.76142 1 11 3.23858 11 6ZM9.87431 10.5816C8.82899 11.4665 7.4768 12 6 12C2.68629 12 0 9.31371 0 6C0 2.68629 2.68629 0 6 0C9.31371 0 12 2.68629 12 6C12 7.4769 11.4664 8.82917 10.5814 9.87453L13.996 13.2891L13.2889 13.9962L9.87431 10.5816Z"
        fill="#C5C5C5" />
</svg>
