<svg width="42" height="36" viewBox="0 0 42 36" fill="none" xmlns="http://www.w3.org/2000/svg">
<path d="M41.6106 24.7012C41.3867 22.4065 38.7946 21.6416 35.5139 20.6799C34.7469 20.4549 33.9576 20.2243 33.1906 19.9657C33.8232 18.5877 34.4558 16.653 34.008 13.8241C33.101 8.08184 28.4039 0 20.8125 0C13.221 0 8.52399 8.08184 7.61701 13.8241C7.16916 16.653 7.80179 18.5877 8.43442 19.9657C7.66741 20.2243 6.87804 20.4549 6.11108 20.6799C2.83039 21.6416 0.238325 22.4009 0.0143889 24.7012C-0.0695875 25.5447 0.215932 26.3546 0.820558 26.9845C1.66032 27.8563 3.1439 28.3962 5.2433 28.5818C5.08095 29.0486 5.01377 29.4873 5.04736 29.9147C5.17053 31.6019 6.61492 33.5704 10.2819 33.5704C12.2189 33.5704 14.2176 32.8618 15.7851 31.6188C16.5745 33.7672 18.2876 36 20.8181 36C23.3486 36 25.0673 33.7616 25.8511 31.6188C27.4186 32.8618 29.4116 33.5704 31.3543 33.5704C35.0269 33.5704 36.4656 31.6019 36.5888 29.9147C36.6224 29.4873 36.5552 29.0542 36.3929 28.5818C38.4923 28.3962 39.9814 27.8563 40.8156 26.9845C41.409 26.3546 41.6946 25.5447 41.6106 24.7012Z" fill="white"/>
<path d="M39.9199 24.8698C39.7464 23.087 34.523 22.5076 30.8113 20.8992C31.6231 19.285 32.8547 17.4572 32.3229 14.094C31.6119 9.6228 27.749 1.70966 20.8069 1.70966C13.8649 1.70966 10.002 9.61716 9.29101 14.094C8.75918 17.4572 9.99639 19.285 10.8026 20.8992C7.09641 22.5076 1.87311 23.0926 1.69396 24.8698C1.53161 26.5177 4.7059 27.1194 8.28328 26.9057C7.38193 28.0024 6.67655 29.0429 6.73254 29.7909C6.82211 31.0451 8.16013 31.8606 10.2707 31.8606C12.6333 31.8606 16.2834 30.3702 17.1512 26.3433C17.1512 26.3433 16.7929 27.9574 16.9888 29.504C17.224 31.3487 18.6124 34.2846 20.8069 34.2846C23.0015 34.2846 24.3899 31.3487 24.6251 29.504C24.821 27.9574 24.4627 26.3433 24.4627 26.3433C25.3305 30.3702 28.975 31.8606 31.3432 31.8606C33.4538 31.8606 34.7918 31.0451 34.8814 29.7909C34.9374 29.0429 34.2263 27.9968 33.3306 26.9057C36.908 27.1194 40.0823 26.5177 39.9199 24.8698ZM13.5346 8.39676C13.1203 8.0424 13.2323 7.27754 13.7809 6.68703C14.3296 6.09647 15.1133 5.89965 15.5277 6.25396C15.9419 6.60826 15.83 7.37313 15.2813 7.96369C14.7327 8.5542 13.9489 8.74543 13.5346 8.39676ZM17.3135 18.5877C15.606 18.5877 14.2232 17.1985 14.2232 15.4831C14.2232 13.7677 15.606 12.3786 17.3135 12.3786C19.0211 12.3786 20.4038 13.7677 20.4038 15.4831C20.4038 17.1929 19.0211 18.5877 17.3135 18.5877ZM19.2002 6.36083C17.9966 6.90072 16.7145 6.71513 16.3338 5.95027C15.9531 5.17974 16.6193 4.12241 17.823 3.58249C19.0266 3.04257 20.3087 3.22817 20.6894 3.99305C21.07 4.75793 20.4038 5.82088 19.2002 6.36083ZM27.5138 18.5877C25.8063 18.5877 24.4235 17.1985 24.4235 15.4831C24.4235 13.7677 25.8063 12.3786 27.5138 12.3786C29.2214 12.3786 30.6041 13.7677 30.6041 15.4831C30.6041 17.1929 29.2214 18.5877 27.5138 18.5877ZM27.7658 15.4606L28.9023 14.1165C28.5496 13.7509 28.0569 13.526 27.5138 13.526C26.4389 13.526 25.5712 14.3977 25.5712 15.4775C25.5712 16.5573 26.4389 17.4291 27.5138 17.4291C28.5887 17.4291 29.4565 16.5573 29.4565 15.4775C29.4565 15.4719 29.4565 15.4662 29.4565 15.4606H27.7658ZM19.2506 15.4606C19.2506 15.4662 19.2506 15.4719 19.2506 15.4775C19.2506 16.5573 18.3828 17.4291 17.3079 17.4291C16.233 17.4291 15.3653 16.5573 15.3653 15.4775C15.3653 14.3977 16.233 13.526 17.3079 13.526C17.851 13.526 18.3436 13.7509 18.6964 14.1165L17.5599 15.4606H19.2506Z" fill="#4445E7"/>
</svg>
