<svg width="26" height="26" viewBox="0 0 26 26" fill="none" xmlns="http://www.w3.org/2000/svg">
  <style>
	  .social {
		  fill: #3443f4;
		  stroke-width: 0px;
	  }
  </style>
  <path class="social" d="M21.8917 0.678711H3.70987C2.80573 0.678711 1.93861 1.03788 1.29928 1.67721C0.659952 2.31654 0.300781 3.18365 0.300781 4.0878L0.300781 22.2696C0.300781 23.1738 0.659952 24.0409 1.29928 24.6802C1.93861 25.3195 2.80573 25.6787 3.70987 25.6787H21.8917C22.7958 25.6787 23.663 25.3195 24.3023 24.6802C24.9416 24.0409 25.3008 23.1738 25.3008 22.2696V4.0878C25.3008 3.18365 24.9416 2.31654 24.3023 1.67721C23.663 1.03788 22.7958 0.678711 21.8917 0.678711ZM15.2511 20.6432C14.8505 20.7199 14.7141 20.4784 14.7141 20.2781C14.7141 20.0281 14.7241 19.2029 14.7241 18.1759C14.7241 17.4557 14.4698 16.9855 14.1971 16.7554C15.9343 16.5665 17.761 15.9173 17.761 12.9685C17.7725 12.2029 17.4851 11.463 16.9599 10.906C17.038 10.7114 17.3022 9.93013 16.8817 8.87331C16.8817 8.87331 16.2283 8.66735 14.7511 9.66024C13.4718 9.31555 12.1241 9.31555 10.8448 9.66024C9.3505 8.66593 8.69567 8.87331 8.69567 8.87331C8.26953 9.93297 8.53942 10.7142 8.62038 10.906C8.09386 11.4613 7.80533 12.2005 7.81641 12.9656C7.81641 15.906 9.64027 16.5665 11.3675 16.7583C11.0843 17.0298 10.9087 17.3945 10.8732 17.7852C10.4258 17.9813 9.29368 18.3208 8.6005 17.1475C8.6005 17.1475 8.18857 16.4088 7.40447 16.3563C7.40447 16.3563 6.64169 16.3463 7.34908 16.8222C7.34908 16.8222 7.86328 17.0594 8.2184 17.9443C8.2184 17.9443 8.6772 19.4372 10.8505 18.9756C10.8505 19.6148 10.859 20.0977 10.859 20.281C10.859 20.4642 10.717 20.7213 10.3263 20.6489C7.22692 19.6375 4.98828 16.7611 4.98828 13.3691C4.98828 9.12899 8.48402 5.6986 12.8008 5.6986C17.1175 5.6986 20.6133 9.1361 20.6133 13.3762C20.6133 16.7554 18.3775 19.6347 15.2511 20.6432Z" />
</svg>
