<svg width="26" height="26" viewBox="0 0 26 26" fill="none" xmlns="http://www.w3.org/2000/svg">
  <defs>
    <style>
      @media (prefers-color-scheme: dark) {
        .cls-1 {
          fill: #fff;
        }
      }
    </style>
  </defs>
  <g clip-path="url(#clip0_434_3415)">
    <path class="cls-1"
      d="M21.7345 0.36499H3.55265C2.6485 0.36499 1.78138 0.724161 1.14205 1.36349C0.502726 2.00282 0.143555 2.86993 0.143555 3.77408L0.143555 21.9559C0.143555 22.86 0.502726 23.7272 1.14205 24.3665C1.78138 25.0058 2.6485 25.365 3.55265 25.365H21.7345C22.6386 25.365 23.5057 25.0058 24.1451 24.3665C24.7844 23.7272 25.1436 22.86 25.1436 21.9559V3.77408C25.1436 2.86993 24.7844 2.00282 24.1451 1.36349C23.5057 0.724161 22.6386 0.36499 21.7345 0.36499ZM15.0938 20.3295C14.6933 20.4062 14.5569 20.1647 14.5569 19.9644C14.5569 19.7144 14.5668 18.8891 14.5668 17.8621C14.5668 17.142 14.3126 16.6718 14.0399 16.4417C15.7771 16.2528 17.6038 15.6036 17.6038 12.6548C17.6153 11.8892 17.3279 11.1493 16.8026 10.5923C16.8808 10.3977 17.145 9.61641 16.7245 8.55959C16.7245 8.55959 16.0711 8.35363 14.5938 9.34652C13.3146 9.00183 11.9669 9.00183 10.6876 9.34652C9.19327 8.35221 8.53844 8.55959 8.53844 8.55959C8.1123 9.61925 8.38219 10.4005 8.46316 10.5923C7.93663 11.1476 7.6481 11.8868 7.65918 12.6519C7.65918 15.5923 9.48304 16.2528 11.2103 16.4445C10.9271 16.716 10.7515 17.0808 10.716 17.4715C10.2686 17.6675 9.13645 18.007 8.44327 16.8337C8.44327 16.8337 8.03134 16.0951 7.24725 16.0425C7.24725 16.0425 6.48446 16.0326 7.19185 16.5085C7.19185 16.5085 7.70605 16.7457 8.06117 17.6306C8.06117 17.6306 8.51997 19.1235 10.6933 18.6619C10.6933 19.3011 10.7018 19.784 10.7018 19.9673C10.7018 20.1505 10.5597 20.4076 10.1691 20.3352C7.06969 19.3238 4.83105 16.4474 4.83105 13.0553C4.83105 8.81527 8.32679 5.38488 12.6436 5.38488C16.9603 5.38488 20.4561 8.82238 20.4561 13.0624C20.4561 16.4417 18.2203 19.321 15.0938 20.3295Z"
      fill="#3443F4" />
  </g>
  <defs>
    <clipPath id="clip0_434_3415">
      <rect width="25" height="25" fill="white" transform="translate(0.143555 0.36499)" />
    </clipPath>
  </defs>
</svg>