<svg width="28" height="27" viewBox="0 0 28 27" fill="none" xmlns="http://www.w3.org/2000/svg">
  <style>
	  .social {
		  fill: #3443f4;
		  stroke-width: 0px;
	  }
  </style>
  <path class="social" d="M7.22268 0.313477H20.4291C22.3438 0.314566 24.1797 1.02255 25.5339 2.28202C26.8881 3.54149 27.6498 5.24952 27.6518 7.03109V19.3259C27.6498 21.1075 26.8881 22.8155 25.5339 24.075C24.1797 25.3345 22.3438 26.0425 20.4291 26.0436H7.22268C5.30805 26.0425 3.47206 25.3345 2.1179 24.075C0.763741 22.8155 0.00205082 21.1075 0 19.3259V7.03109C0.00205082 5.24952 0.763741 3.54149 2.1179 2.28202C3.47206 1.02255 5.30805 0.314566 7.22268 0.313477Z" />
  <path d="M5.03125 10.4834H8.67014V21.6533H5.03125V10.4834Z" fill="currentColor"/>
  <path d="M11.084 13.9429C11.084 12.7686 11.084 11.3421 11.0508 10.3109H14.5792C14.6626 10.8521 14.7106 11.3976 14.723 11.9442C15.2539 10.987 16.382 9.98047 19.0477 9.98047C21.9677 9.98047 22.9078 11.936 22.9078 15.4538V21.6486H19.269V15.8439C19.269 14.1405 18.5388 12.9363 17.3553 12.9363C15.3091 12.9363 14.7119 14.156 14.7119 16.6827V21.6486H11.0729V13.9429H11.084Z" fill="currentColor"/>
  <path d="M6.85795 8.65212C7.27743 8.65171 7.68741 8.53559 8.03598 8.31843C8.38456 8.10128 8.65616 7.79285 8.81639 7.43211C8.97662 7.07137 9.01826 6.6745 8.93615 6.29172C8.85405 5.90894 8.65181 5.55742 8.35503 5.28155C8.05826 5.00569 7.68027 4.81789 7.26881 4.74189C6.85735 4.66589 6.43089 4.70508 6.04338 4.85455C5.65587 5.00402 5.32478 5.25705 5.09177 5.58163C4.85876 5.90621 4.73438 6.28778 4.73438 6.67811C4.73452 6.93748 4.78959 7.19426 4.8964 7.43384C5.0032 7.67341 5.15961 7.89105 5.35681 8.07435C5.55401 8.25766 5.7881 8.40304 6.04568 8.50217C6.30325 8.6013 6.57921 8.65225 6.85795 8.65212Z" fill="currentColor"/>
</svg>
