<svg width="29" height="26" viewBox="0 0 29 26" fill="none" xmlns="http://www.w3.org/2000/svg">

  <defs>
    <style>
      .cls-1 {
        fill: #3443F4;
      }

      .cls-2 {
        fill: #fff;
      }

      @media (prefers-color-scheme: dark) {
        .cls-1 {
          fill: #fff;
        }

        .cls-2 {
          fill: currentColor;
        }
      }
    </style>
  </defs>
  <mask id="mask0_434_3396" style="mask-type:luminance" maskUnits="userSpaceOnUse" x="0" y="0" width="29" height="26">
    <path d="M28.3247 0H0.672852V25.7301H28.3247V0Z" fill="white" />
  </mask>
  <g mask="url(#mask0_434_3396)">
    <path class="cls-1"
      d="M7.89553 0H21.102C23.0166 0.00108962 24.8526 0.709074 26.2068 1.96855C27.5609 3.22802 28.3226 4.93605 28.3247 6.71762V19.0125C28.3226 20.794 27.5609 22.5021 26.2068 23.7615C24.8526 25.021 23.0166 25.729 21.102 25.7301H7.89553C5.9809 25.729 4.14491 25.021 2.79075 23.7615C1.43659 22.5021 0.674902 20.794 0.672852 19.0125V6.71762C0.674902 4.93605 1.43659 3.22802 2.79075 1.96855C4.14491 0.709074 5.9809 0.00108962 7.89553 0Z" />
    <path d="M5.70508 10.1697H9.34396V21.3396H5.70508V10.1697Z" class="cls-2" />
    <path
      d="M11.7559 13.6299C11.7559 12.4556 11.7558 11.0291 11.7227 9.99787H15.2511C15.3345 10.5391 15.3825 11.0846 15.3949 11.6312C15.9258 10.6741 17.0539 9.66748 19.7195 9.66748C22.6396 9.66748 23.5797 11.623 23.5797 15.1408V21.3356H19.9408V15.5309C19.9408 13.8275 19.2107 12.6234 18.0272 12.6234C15.981 12.6234 15.3838 13.843 15.3838 16.3697V21.3356H11.7448V13.6299H11.7559Z"
      class="cls-2" />
    <path
      d="M7.53055 8.33913C7.95004 8.33872 8.36001 8.2226 8.70859 8.00544C9.05717 7.78829 9.32877 7.47986 9.489 7.11912C9.64923 6.75838 9.69087 6.36152 9.60876 5.97873C9.52665 5.59595 9.32442 5.24443 9.02764 4.96856C8.73086 4.6927 8.35288 4.5049 7.94142 4.4289C7.52996 4.3529 7.1035 4.39209 6.71599 4.54156C6.32847 4.69103 5.99739 4.94406 5.76438 5.26864C5.53137 5.59322 5.40698 5.97479 5.40698 6.36512C5.40713 6.62449 5.4622 6.88128 5.569 7.12085C5.67581 7.36042 5.83222 7.57806 6.02942 7.76137C6.22662 7.94467 6.46071 8.09005 6.71828 8.18918C6.97586 8.28831 7.25182 8.33927 7.53055 8.33913Z"
      class="cls-2" />
  </g>
</svg>