<svg width="28" height="27" viewBox="0 0 28 27" fill="none" xmlns="http://www.w3.org/2000/svg">
  <style>
	  .social {
		  fill: #3443f4;
		  stroke-width: 0px;
	  }
  </style>
  <path class="social" d="M27.9995 4.26789V22.0896C27.9983 23.1376 27.5501 24.1423 26.7532 24.8829C25.9564 25.6236 24.8762 26.0396 23.7499 26.0396H4.59719C3.47091 26.0396 2.39069 25.6236 1.59388 24.8829C0.797066 24.1423 0.348831 23.1376 0.347659 22.0896V4.26789C0.347077 3.74827 0.456565 3.23364 0.669864 2.75342C0.883162 2.27319 1.19609 1.8368 1.59075 1.46918C1.98541 1.10157 2.45408 0.809934 2.96994 0.610959C3.48581 0.411985 4.03876 0.30957 4.59719 0.30957L23.7499 0.30957C24.3084 0.30957 24.8613 0.411985 25.3772 0.610959C25.893 0.809934 26.3617 1.10157 26.7564 1.46918C27.151 1.8368 27.464 2.27319 27.6773 2.75342C27.8906 3.23364 28 3.74827 27.9995 4.26789Z" />
  <path d="M15.6488 12.3065L15.0537 11.5048L11.1603 6.25586H6.92188L12.6801 14.0953L13.2741 14.9032L17.0988 20.1109H21.4258L15.6488 12.3065ZM13.9123 14.2064L13.3194 13.3985L8.71371 7.12861H10.6659L14.4266 12.1943L15.0216 12.9971L19.6406 19.2279H17.6065L13.9123 14.2064Z" fill="currentColor" />
  <path d="M13.3128 13.3984L13.9057 14.2064L13.273 14.899L8.51686 20.1068H7.17188L12.679 14.0911L13.3128 13.3984Z" fill="currentColor"/>
  <path d="M21.1761 6.25391L15.6458 12.3077L15.0131 12.9993L14.418 12.1965L15.0507 11.5049L19.8587 6.25598L21.1761 6.25391Z" fill="currentColor" />
</svg>
