<svg width="28" height="27" viewBox="0 0 28 27" fill="none" xmlns="http://www.w3.org/2000/svg">

  <defs>
    <style>
      .cls-1 {
        fill: #3443F4;
      }

      .cls-2 {
        fill: #fff;
      }

      @media (prefers-color-scheme: dark) {
        .cls-1 {
          fill: #fff;
        }

        .cls-2 {
          fill: currentColor;
        }
      }
    </style>
  </defs>
  <mask id="mask0_434_3404" style="mask-type:luminance" maskUnits="userSpaceOnUse" x="0" y="0" width="28" height="27">
    <path
      d="M21.0369 0.367432H6.65792C2.99272 0.367432 0.0214844 3.13217 0.0214844 6.54265V19.9223C0.0214844 23.3328 2.99272 26.0975 6.65792 26.0975H21.0369C24.7021 26.0975 27.6733 23.3328 27.6733 19.9223V6.54265C27.6733 3.13217 24.7021 0.367432 21.0369 0.367432Z"
      fill="white" />
  </mask>
  <g mask="url(#mask0_434_3404)">
    <path class="cls-1"
      d="M27.6733 4.3216V22.1433C27.6721 23.1913 27.2239 24.196 26.4271 24.9367C25.6303 25.6773 24.55 26.0934 23.4238 26.0934H4.27102C3.14474 26.0934 2.06452 25.6773 1.26771 24.9367C0.470894 24.196 0.0226593 23.1913 0.0214867 22.1433V4.3216C0.0209053 3.80198 0.130394 3.28735 0.343692 2.80713C0.556991 2.32691 0.869916 1.89051 1.26458 1.52289C1.65924 1.15528 2.1279 0.863645 2.64377 0.66467C3.15963 0.465696 3.71259 0.363281 4.27102 0.363281L23.4238 0.363281C23.9822 0.363281 24.5351 0.465696 25.051 0.66467C25.5669 0.863645 26.0355 1.15528 26.4302 1.52289C26.8249 1.89051 27.1378 2.32691 27.3511 2.80713C27.5644 3.28735 27.6739 3.80198 27.6733 4.3216Z" />
    <path
      d="M15.3224 12.3602L14.7273 11.5585L10.8339 6.30957H6.59546L12.3537 14.149L12.9476 14.9569L16.7724 20.1647H21.0994L15.3224 12.3602ZM13.5858 14.2601L12.993 13.4522L8.38729 7.18232H10.3395L14.1002 12.2481L14.6952 13.0508L19.3142 19.2816H17.2801L13.5858 14.2601Z"
      class="cls-2" />
    <path d="M12.9869 13.4521L13.5797 14.2601L12.947 14.9527L8.19093 20.1605H6.84595L12.3531 14.1448L12.9869 13.4521Z"
      class="cls-2" />
    <path
      d="M20.849 6.30737L15.3186 12.3612L14.6859 13.0528L14.0908 12.25L14.7235 11.5584L19.5316 6.30945L20.849 6.30737Z"
      class="cls-2" />
  </g>
</svg>