<svg width="29" height="26" viewBox="0 0 29 26" fill="none" xmlns="http://www.w3.org/2000/svg">
  <defs>
    <style>
      @media (prefers-color-scheme: dark) {
        .cls-1 {
          fill: #fff;
        }
      }
    </style>
  </defs>
  <path class="cls-1"
    d="M27.7589 4.77061C27.6006 4.03399 27.2915 3.36267 26.8624 2.82387C26.4332 2.28507 25.8992 1.89771 25.3138 1.70061C23.1578 0.974607 14.514 0.974609 14.514 0.974609C14.514 0.974609 5.86774 0.974607 3.71412 1.70061C3.12871 1.89771 2.59471 2.28507 2.16559 2.82387C1.73647 3.36267 1.42731 4.03399 1.26907 4.77061C0.498852 10.3004 0.498852 15.9568 1.26907 21.4866C1.42731 22.2232 1.73647 22.8946 2.16559 23.4333C2.59471 23.9721 3.12871 24.3595 3.71412 24.5566C5.87012 25.2826 14.514 25.2826 14.514 25.2826C14.514 25.2826 23.1602 25.2826 25.3138 24.5566C25.8992 24.3595 26.4332 23.9721 26.8624 23.4333C27.2915 22.8946 27.6006 22.2232 27.7589 21.4866C28.5291 15.9568 28.5291 10.3004 27.7589 4.77061ZM11.7465 18.3356V7.91961L18.93 13.1286L11.7465 18.3356Z"
    fill="#3443F4" />
</svg>