<svg width="29" height="25" viewBox="0 0 29 25" fill="none" xmlns="http://www.w3.org/2000/svg">
  <style>
	  .social {
		  fill: #3443f4;
		  stroke-width: 0px;
	  }
  </style>
  <path class="social" d="M27.7237 3.82139C27.5655 3.08477 27.2563 2.41345 26.8272 1.87465C26.3981 1.33585 25.8641 0.948496 25.2787 0.751389C23.1227 0.0253885 14.4788 0.0253906 14.4788 0.0253906C14.4788 0.0253906 5.83259 0.0253885 3.67897 0.751389C3.09356 0.948496 2.55955 1.33585 2.13043 1.87465C1.70132 2.41345 1.39215 3.08477 1.23391 3.82139C0.463696 9.35118 0.463696 15.0076 1.23391 20.5374C1.39215 21.274 1.70132 21.9453 2.13043 22.4841C2.55955 23.0229 3.09356 23.4103 3.67897 23.6074C5.83497 24.3334 14.4788 24.3334 14.4788 24.3334C14.4788 24.3334 23.1251 24.3334 25.2787 23.6074C25.8641 23.4103 26.3981 23.0229 26.8272 22.4841C27.2563 21.9453 27.5655 21.274 27.7237 20.5374C28.4939 15.0076 28.4939 9.35118 27.7237 3.82139ZM11.7114 17.3864V6.97039L18.8948 12.1794L11.7114 17.3864Z" />
</svg>
