<svg version="1.1" viewBox="0.0 0.0 953.0 544.0" fill="none" stroke="none" stroke-linecap="square" stroke-miterlimit="10" xmlns:xlink="http://www.w3.org/1999/xlink" xmlns="http://www.w3.org/2000/svg"><clipPath id="p.0"><path d="m0 0l953.0 0l0 544.0l-953.0 0l0 -544.0z" clip-rule="nonzero"/></clipPath><g clip-path="url(#p.0)"><path fill="#000000" fill-opacity="0.0" d="m0 0l953.0 0l0 544.0l-953.0 0z" fill-rule="evenodd"/><path fill="#000000" fill-opacity="0.0" d="m11.194225 12.23622l280.56696 0l0 515.2126l-280.56696 0z" fill-rule="evenodd"/><path stroke="#000000" stroke-width="1.0" stroke-linejoin="round" stroke-linecap="butt" stroke-dasharray="1.0,3.0" d="m11.194225 12.23622l280.56696 0l0 515.2126l-280.56696 0z" fill-rule="evenodd"/><path fill="#000000" d="m23.2411 36.296844q0 1.046875 0.546875 1.5625q0.546875 0.515625 1.578125 0.515625q1.484375 0 2.90625 -1.75l0 -4.546875l-1.546875 0l0 -1.015625l2.546875 0l0 7.0625l1.53125 0l0 1.03125l-2.53125 0l0 -1.25q-0.796875 0.765625 -1.515625 1.125q-0.703125 0.34375 -1.59375 0.34375q-1.375 0 -2.15625 -0.6875q-0.78125 -0.703125 -0.78125 -1.90625l0 -4.703125l-1.546875 0l0 -1.015625l2.5625 0l0 5.234375zm16.318756 -4.734375l0 -0.75l1.0 0l0 2.953125l-1.0 0l0 -1.109375q-0.640625 -0.390625 -1.375 -0.59375q-0.734375 -0.21875 -1.46875 -0.21875q-1.0625 0 -1.75 0.375q-0.6875 0.375 -0.6875 1.03125q0 0.6875 0.796875 1.03125q0.796875 0.328125 2.671875 0.34375q1.265625 0.015625 1.984375 0.265625q0.71875 0.234375 1.0 0.671875q0.28125 0.4375 0.28125 1.15625q0 1.203125 -0.984375 1.9375q-0.984375 0.71875 -2.5625 0.71875q-0.859375 0 -1.609375 -0.171875q-0.734375 -0.171875 -1.703125 -0.65625l0 0.828125l-1.03125 0l0 -3.171875l1.03125 0l0 1.109375q1.359375 1.046875 3.09375 1.046875q1.234375 0 1.984375 -0.40625q0.75 -0.40625 0.75 -1.125q0 -0.5 -0.296875 -0.75q-0.28125 -0.265625 -0.71875 -0.328125q-0.4375 -0.0625 -1.265625 -0.09375l-0.828125 -0.0625q-1.078125 -0.078125 -1.796875 -0.21875q-0.71875 -0.15625 -1.265625 -0.609375q-0.53125 -0.453125 -0.53125 -1.359375q0 -1.171875 0.921875 -1.875q0.921875 -0.71875 2.46875 -0.71875q1.671875 0 2.890625 0.75zm11.584381 3.46875l-5.96875 0l0 -1.03125l5.96875 0l0 1.03125zm6.131256 -2.953125l-1.359375 0l1.609375 5.625l1.5625 -5.078125l0.875 0l1.609375 5.109375l1.5625 -5.65625l-1.3125 0l0 -1.015625l2.9375038 0l0 1.015625l-0.65625 0l-1.9531288 7.078125l-1.140625 0l-1.46875 -4.6875l-1.46875 4.6875l-1.1875 0l-2.015625 -7.078125l-0.625 0l0 -1.015625l3.03125 0l0 1.015625zm17.584385 3.15625l-7.65625 0q0.015625 1.296875 0.8125 2.21875q0.796875 0.921875 2.734375 0.921875q0.84375 0 1.890625 -0.3125q1.046875 -0.3125 2.015625 -0.84375l0.3125 0.984375q-1.046875 0.5625 -2.15625 0.875q-1.109375 0.296875 -2.109375 0.296875q-2.15625 0 -3.359375 -1.15625q-1.203125 -1.171875 -1.203125 -3.109375q0 -1.25 0.578125 -2.21875q0.59375 -0.984375 1.609375 -1.53125q1.03125 -0.546875 2.28125 -0.546875q1.96875 0 3.09375 1.1875q1.140625 1.171875 1.15625 3.234375zm-4.28125 -3.375q-1.3125 0 -2.234375 0.65625q-0.90625 0.65625 -1.09375 1.703125l6.5 0q-0.109375 -1.015625 -0.96875 -1.6875q-0.859375 -0.671875 -2.203125 -0.671875zm13.756256 -0.296875l0 -0.75l1.0 0l0 2.953125l-1.0 0l0 -1.109375q-0.640625 -0.390625 -1.375 -0.59375q-0.734375 -0.21875 -1.46875 -0.21875q-1.0625 0 -1.75 0.375q-0.6875 0.375 -0.6875 1.03125q0 0.6875 0.796875 1.03125q0.796875 0.328125 2.671875 0.34375q1.265625 0.015625 1.984375 0.265625q0.71875 0.234375 1.0 0.671875q0.28125 0.4375 0.28125 1.15625q0 1.203125 -0.984375 1.9375q-0.984375 0.71875 -2.5625 0.71875q-0.859375 0 -1.609375 -0.171875q-0.734375 -0.171875 -1.703125 -0.65625l0 0.828125l-1.03125 0l0 -3.171875l1.03125 0l0 1.109375q1.359375 1.046875 3.09375 1.046875q1.234375 0 1.984375 -0.40625q0.75 -0.40625 0.75 -1.125q0 -0.5 -0.296875 -0.75q-0.28125 -0.265625 -0.71875 -0.328125q-0.4375 -0.0625 -1.265625 -0.09375l-0.828125 -0.0625q-1.078125 -0.078125 -1.796875 -0.21875q-0.71875 -0.15625 -1.265625 -0.609375q-0.53125 -0.453125 -0.53125 -1.359375q0 -1.171875 0.921875 -1.875q0.921875 -0.71875 2.46875 -0.71875q1.671875 0 2.890625 0.75zm6.693756 -2.90625l0 2.40625l4.8125 0l0 1.015625l-4.8125 0l0 4.46875q0 0.96875 0.5625 1.390625q0.5625 0.421875 1.625 0.421875q0.609375 0 1.296875 -0.1875q0.703125 -0.1875 2.34375 -0.84375l0.109375 1.0q-1.265625 0.5625 -2.21875 0.8125q-0.9375 0.234375 -1.734375 0.234375q-1.359375 0 -2.171875 -0.640625q-0.8125 -0.640625 -0.8125 -1.75l0 -4.90625l-1.328125 0l0 -1.015625l1.328125 0l0 -2.40625l1.0 0zm16.443756 2.75q0 0.734375 -0.203125 1.265625q-0.1875 0.515625 -0.765625 1.15625q-0.578125 0.640625 -1.78125 1.609375l-3.296875 2.6875l5.03125 0l0 -1.3125l1.015625 0l0 2.34375l-7.515625 0l0 -1.09375l4.15625 -3.265625q1.46875 -1.15625 1.90625 -1.84375q0.453125 -0.703125 0.453125 -1.296875q0 -1.03125 -0.765625 -1.703125q-0.75 -0.6875 -1.90625 -0.6875q-1.0 0 -1.703125 0.484375q-0.6875 0.484375 -0.71875 1.3125l-1.0 0l0 -1.328125q1.421875 -1.46875 3.484375 -1.46875q0.96875 0 1.796875 0.4375q0.84375 0.421875 1.328125 1.15625q0.484375 0.71875 0.484375 1.546875z" fill-rule="nonzero"/><path fill="#000000" fill-opacity="0.0" d="m330.48596 12.23622l280.5669 0l0 515.2126l-280.5669 0z" fill-rule="evenodd"/><path stroke="#000000" stroke-width="1.0" stroke-linejoin="round" stroke-linecap="butt" stroke-dasharray="1.0,3.0" d="m330.48596 12.23622l280.5669 0l0 515.2126l-280.5669 0z" fill-rule="evenodd"/><path fill="#000000" d="m342.53284 36.296844q0 1.046875 0.546875 1.5625q0.546875 0.515625 1.578125 0.515625q1.484375 0 2.90625 -1.75l0 -4.546875l-1.546875 0l0 -1.015625l2.546875 0l0 7.0625l1.53125 0l0 1.03125l-2.53125 0l0 -1.25q-0.796875 0.765625 -1.515625 1.125q-0.703125 0.34375 -1.59375 0.34375q-1.375 0 -2.15625 -0.6875q-0.78125 -0.703125 -0.78125 -1.90625l0 -4.703125l-1.546875 0l0 -1.015625l2.5625 0l0 5.234375zm16.318756 -4.734375l0 -0.75l1.0 0l0 2.953125l-1.0 0l0 -1.109375q-0.640625 -0.390625 -1.375 -0.59375q-0.734375 -0.21875 -1.46875 -0.21875q-1.0625 0 -1.75 0.375q-0.6875 0.375 -0.6875 1.03125q0 0.6875 0.796875 1.03125q0.796875 0.328125 2.671875 0.34375q1.265625 0.015625 1.984375 0.265625q0.71875 0.234375 1.0 0.671875q0.28125 0.4375 0.28125 1.15625q0 1.203125 -0.984375 1.9375q-0.984375 0.71875 -2.5625 0.71875q-0.859375 0 -1.609375 -0.171875q-0.734375 -0.171875 -1.703125 -0.65625l0 0.828125l-1.03125 0l0 -3.171875l1.03125 0l0 1.109375q1.359375 1.046875 3.09375 1.046875q1.234375 0 1.984375 -0.40625q0.75 -0.40625 0.75 -1.125q0 -0.5 -0.296875 -0.75q-0.28125 -0.265625 -0.71875 -0.328125q-0.4375 -0.0625 -1.265625 -0.09375l-0.828125 -0.0625q-1.078125 -0.078125 -1.796875 -0.21875q-0.71875 -0.15625 -1.265625 -0.609375q-0.53125 -0.453125 -0.53125 -1.359375q0 -1.171875 0.921875 -1.875q0.921875 -0.71875 2.46875 -0.71875q1.671875 0 2.890625 0.75zm11.584381 3.46875l-5.96875 0l0 -1.03125l5.96875 0l0 1.03125zm11.318756 -3.3125l0 -0.90625l1.03125 0l0 3.265625l-1.03125 0l0 -1.28125q-1.125 -0.9375 -2.84375 -0.9375q-1.0 0 -1.796875 0.4375q-0.78125 0.421875 -1.234375 1.15625q-0.4375 0.71875 -0.4375 1.59375q0 0.90625 0.421875 1.65625q0.4375 0.75 1.265625 1.21875q0.84375 0.453125 2.015625 0.453125q0.8125 0 1.734375 -0.40625q0.921875 -0.421875 1.703125 -1.09375l0.40625 1.03125q-1.921875 1.46875 -4.15625 1.46875q-1.25 0 -2.265625 -0.546875q-1.0 -0.5625 -1.578125 -1.5625q-0.578125 -1.0 -0.578125 -2.265625q0 -1.0625 0.546875 -2.015625q0.546875 -0.96875 1.546875 -1.5625q1.0 -0.609375 2.265625 -0.609375q0.9375 0 1.5625 0.203125q0.640625 0.1875 1.421875 0.703125zm12.396881 3.515625l-7.65625 0q0.015625 1.296875 0.8125 2.21875q0.796875 0.921875 2.734375 0.921875q0.84375 0 1.890625 -0.3125q1.046875 -0.3125 2.015625 -0.84375l0.3125 0.984375q-1.046875 0.5625 -2.15625 0.875q-1.109375 0.296875 -2.109375 0.296875q-2.15625 0 -3.359375 -1.15625q-1.203125 -1.171875 -1.203125 -3.109375q0 -1.25 0.578125 -2.21875q0.59375 -0.984375 1.609375 -1.53125q1.03125 -0.546875 2.28125 -0.546875q1.96875 0 3.09375 1.1875q1.140625 1.171875 1.15625 3.234375zm-4.28125 -3.375q-1.3125 0 -2.234375 0.65625q-0.90625 0.65625 -1.09375 1.703125l6.5 0q-0.109375 -1.015625 -0.96875 -1.6875q-0.859375 -0.671875 -2.203125 -0.671875zm14.803131 1.421875l0 4.84375l1.53125 0l0 1.03125l-4.078125 0l0 -1.03125l1.53125 0l0 -4.8125q0 -0.6875 -0.46875 -1.078125q-0.453125 -0.390625 -1.375 -0.390625q-0.796875 0 -1.703125 0.4375q-0.890625 0.4375 -1.484375 1.078125l0 4.765625l1.546875 0l0 1.03125l-4.109375 0l0 -1.03125l1.5625 0l0 -6.015625l-1.5625 0l0 -1.046875l2.5625 0l0 1.171875q0.765625 -0.6875 1.671875 -1.046875q0.90625 -0.375 1.8125 -0.375q2.5625 0 2.5625 2.46875zm5.646881 -4.625l0 2.40625l4.8125 0l0 1.015625l-4.8125 0l0 4.46875q0 0.96875 0.5625 1.390625q0.5625 0.421875 1.625 0.421875q0.609375 0 1.296875 -0.1875q0.703125 -0.1875 2.34375 -0.84375l0.109375 1.0q-1.265625 0.5625 -2.21875 0.8125q-0.9375 0.234375 -1.734375 0.234375q-1.359375 0 -2.171875 -0.640625q-0.8125 -0.640625 -0.8125 -1.75l0 -4.90625l-1.328125 0l0 -1.015625l1.328125 0l0 -2.40625l1.0 0zm18.115631 3.828125l-1.0 0.09375q-0.078125 -0.40625 -0.3125 -0.578125q-0.234375 -0.171875 -0.71875 -0.171875q-0.734375 0 -1.5 0.53125q-0.75 0.515625 -2.328125 2.015625l0 3.75l3.625 0l0 1.03125l-6.984375 0l0 -1.03125l2.34375 0l0 -6.046875l-2.34375 0l0 -1.015625l3.359375 0l0 2.15625l0.921875 -0.8125q0.984375 -0.90625 1.734375 -1.25q0.75 -0.34375 1.515625 -0.34375q0.75 0 1.15625 0.40625q0.421875 0.40625 0.53125 1.265625zm9.365631 1.0625l0 4.578125l1.53125 0l0 1.03125l-2.515625 0l0 -1.5625q-1.84375 1.78125 -3.734375 1.78125q-0.84375 0 -1.53125 -0.34375q-0.671875 -0.34375 -1.0625 -0.921875q-0.375 -0.578125 -0.375 -1.25q0 -0.71875 0.46875 -1.34375q0.46875 -0.625 1.390625 -1.0q0.921875 -0.375 2.1875 -0.375q0.953125 0 2.640625 0.265625l0 -0.640625q0 -1.0625 -0.578125 -1.484375q-0.578125 -0.421875 -1.8125 -0.421875q-0.734375 0 -1.609375 0.21875q-0.859375 0.21875 -1.59375 0.5625l-0.265625 -1.0q2.015625 -0.828125 3.640625 -0.828125q1.546875 0 2.375 0.671875q0.84375 0.671875 0.84375 2.0625zm-4.703125 4.8125q2.015625 0 3.703125 -2.0l0 -0.9375q-1.40625 -0.234375 -2.609375 -0.234375q-1.625 0 -2.328125 0.5q-0.703125 0.5 -0.703125 1.1875q0 0.578125 0.578125 1.03125q0.578125 0.453125 1.359375 0.453125zm13.225006 -0.234375l3.25 0l0 1.03125l-7.53125 0l0 -1.03125l3.265625 0l0 -9.640625l-3.171875 0l0 -1.03125l4.1875 0l0 10.671875zm13.271881 -6.953125q0 0.828125 -0.328125 1.390625q-0.3125 0.5625 -1.125 1.125q0.984375 0.25 1.53125 0.921875q0.5625 0.671875 0.5625 1.671875q0 0.9375 -0.515625 1.640625q-0.5 0.6875 -1.359375 1.078125q-0.859375 0.375 -1.859375 0.375q-1.6875 0 -3.5625 -0.8125l0.25 -0.875q1.828125 0.671875 3.109375 0.671875q1.296875 0 2.109375 -0.59375q0.828125 -0.609375 0.828125 -1.515625q0 -0.765625 -0.703125 -1.34375q-0.6875 -0.578125 -2.265625 -0.578125l-0.484375 0l0 -1.03125q1.328125 0 2.0625 -0.59375q0.734375 -0.59375 0.734375 -1.5q0 -0.828125 -0.640625 -1.375q-0.625 -0.5625 -1.6875 -0.5625q-1.265625 0 -2.734375 0.875l-0.34375 -0.8125q1.640625 -1.0625 3.34375 -1.0625q0.8125 0 1.515625 0.359375q0.71875 0.359375 1.140625 1.03125q0.421875 0.65625 0.421875 1.515625z" fill-rule="nonzero"/><path fill="#000000" fill-opacity="0.0" d="m649.7775 12.23622l280.5669 0l0 515.2126l-280.5669 0z" fill-rule="evenodd"/><path stroke="#000000" stroke-width="1.0" stroke-linejoin="round" stroke-linecap="butt" stroke-dasharray="1.0,3.0" d="m649.7775 12.23622l280.5669 0l0 515.2126l-280.5669 0z" fill-rule="evenodd"/><path fill="#000000" d="m661.8244 36.296844q0 1.046875 0.546875 1.5625q0.546875 0.515625 1.578125 0.515625q1.484375 0 2.90625 -1.75l0 -4.546875l-1.546875 0l0 -1.015625l2.546875 0l0 7.0625l1.53125 0l0 1.03125l-2.53125 0l0 -1.25q-0.796875 0.765625 -1.515625 1.125q-0.703125 0.34375 -1.59375 0.34375q-1.375 0 -2.15625 -0.6875q-0.78125 -0.703125 -0.78125 -1.90625l0 -4.703125l-1.546875 0l0 -1.015625l2.5625 0l0 5.234375zm16.318726 -4.734375l0 -0.75l1.0 0l0 2.953125l-1.0 0l0 -1.109375q-0.640625 -0.390625 -1.375 -0.59375q-0.734375 -0.21875 -1.46875 -0.21875q-1.0625 0 -1.75 0.375q-0.6875 0.375 -0.6875 1.03125q0 0.6875 0.796875 1.03125q0.796875 0.328125 2.671875 0.34375q1.265625 0.015625 1.984375 0.265625q0.71875 0.234375 1.0 0.671875q0.28125 0.4375 0.28125 1.15625q0 1.203125 -0.984375 1.9375q-0.984375 0.71875 -2.5625 0.71875q-0.859375 0 -1.609375 -0.171875q-0.734375 -0.171875 -1.703125 -0.65625l0 0.828125l-1.03125 0l0 -3.171875l1.03125 0l0 1.109375q1.359375 1.046875 3.09375 1.046875q1.234375 0 1.984375 -0.40625q0.75 -0.40625 0.75 -1.125q0 -0.5 -0.296875 -0.75q-0.28125 -0.265625 -0.71875 -0.328125q-0.4375 -0.0625 -1.265625 -0.09375l-0.828125 -0.0625q-1.078125 -0.078125 -1.796875 -0.21875q-0.71875 -0.15625 -1.265625 -0.609375q-0.53125 -0.453125 -0.53125 -1.359375q0 -1.171875 0.921875 -1.875q0.921875 -0.71875 2.46875 -0.71875q1.671875 0 2.890625 0.75zm11.584412 3.46875l-5.96875 0l0 -1.03125l5.96875 0l0 1.03125zm12.521851 0.203125l-7.65625 0q0.015625 1.296875 0.8125 2.21875q0.796875 0.921875 2.734375 0.921875q0.84375 0 1.890625 -0.3125q1.046875 -0.3125 2.015625 -0.84375l0.3125 0.984375q-1.046875 0.5625 -2.15625 0.875q-1.109375 0.296875 -2.109375 0.296875q-2.15625 0 -3.359375 -1.15625q-1.203125 -1.171875 -1.203125 -3.109375q0 -1.25 0.578125 -2.21875q0.59375 -0.984375 1.609375 -1.53125q1.03125 -0.546875 2.28125 -0.546875q1.96875 0 3.09375 1.1875q1.140625 1.171875 1.15625 3.234375zm-4.28125 -3.375q-1.3125 0 -2.234375 0.65625q-0.90625 0.65625 -1.09375 1.703125l6.5 0q-0.109375 -1.015625 -0.96875 -1.6875q-0.859375 -0.671875 -2.203125 -0.671875zm14.350037 1.6875l0 4.578125l1.53125 0l0 1.03125l-2.515625 0l0 -1.5625q-1.84375 1.78125 -3.734375 1.78125q-0.84375 0 -1.53125 -0.34375q-0.671875 -0.34375 -1.0625 -0.921875q-0.375 -0.578125 -0.375 -1.25q0 -0.71875 0.46875 -1.34375q0.46875 -0.625 1.390625 -1.0q0.921875 -0.375 2.1875 -0.375q0.953125 0 2.640625 0.265625l0 -0.640625q0 -1.0625 -0.578125 -1.484375q-0.578125 -0.421875 -1.8125 -0.421875q-0.734375 0 -1.609375 0.21875q-0.859375 0.21875 -1.59375 0.5625l-0.265625 -1.0q2.015625 -0.828125 3.640625 -0.828125q1.546875 0 2.375 0.671875q0.84375 0.671875 0.84375 2.0625zm-4.703125 4.8125q2.015625 0 3.703125 -2.0l0 -0.9375q-1.40625 -0.234375 -2.609375 -0.234375q-1.625 0 -2.328125 0.5q-0.703125 0.5 -0.703125 1.1875q0 0.578125 0.578125 1.03125q0.578125 0.453125 1.359375 0.453125zm15.303101 -6.796875l0 -0.75l1.0 0l0 2.953125l-1.0 0l0 -1.109375q-0.640625 -0.390625 -1.375 -0.59375q-0.734375 -0.21875 -1.46875 -0.21875q-1.0625 0 -1.75 0.375q-0.6875 0.375 -0.6875 1.03125q0 0.6875 0.796875 1.03125q0.796875 0.328125 2.671875 0.34375q1.265625 0.015625 1.984375 0.265625q0.71875 0.234375 1.0 0.671875q0.28125 0.4375 0.28125 1.15625q0 1.203125 -0.984375 1.9375q-0.984375 0.71875 -2.5625 0.71875q-0.859375 0 -1.609375 -0.171875q-0.734375 -0.171875 -1.703125 -0.65625l0 0.828125l-1.03125 0l0 -3.171875l1.03125 0l0 1.109375q1.359375 1.046875 3.09375 1.046875q1.234375 0 1.984375 -0.40625q0.75 -0.40625 0.75 -1.125q0 -0.5 -0.296875 -0.75q-0.28125 -0.265625 -0.71875 -0.328125q-0.4375 -0.0625 -1.265625 -0.09375l-0.828125 -0.0625q-1.078125 -0.078125 -1.796875 -0.21875q-0.71875 -0.15625 -1.265625 -0.609375q-0.53125 -0.453125 -0.53125 -1.359375q0 -1.171875 0.921875 -1.875q0.921875 -0.71875 2.46875 -0.71875q1.671875 0 2.890625 0.75zm6.6937866 -2.90625l0 2.40625l4.8125 0l0 1.015625l-4.8125 0l0 4.46875q0 0.96875 0.5625 1.390625q0.5625 0.421875 1.625 0.421875q0.609375 0 1.296875 -0.1875q0.703125 -0.1875 2.34375 -0.84375l0.109375 1.0q-1.265625 0.5625 -2.21875 0.8125q-0.9375 0.234375 -1.734375 0.234375q-1.359375 0 -2.171875 -0.640625q-0.8125 -0.640625 -0.8125 -1.75l0 -4.90625l-1.328125 0l0 -1.015625l1.328125 0l0 -2.40625l1.0 0zm16.974976 9.46875l0 1.03125l-7.5 0l0 -1.03125l3.296875 0l0 -8.5625l-3.296875 0.671875l0 -1.015625l4.3125 -0.953125l0 9.859375l3.1875 0z" fill-rule="nonzero"/><path fill="#000000" fill-opacity="0.0" d="m669.9521 356.12012l10.692078 -44.142548l43.290405 -19.645264l43.290405 19.645264l10.692017 44.142548l-29.958252 35.39972l-48.0484 0z" fill-rule="evenodd"/><path stroke="#000000" stroke-width="2.0" stroke-linejoin="round" stroke-linecap="butt" stroke-dasharray="2.0,6.0" d="m669.9521 356.12012l10.692078 -44.142548l43.290405 -19.645264l43.290405 19.645264l10.692017 44.142548l-29.958252 35.39972l-48.0484 0z" fill-rule="evenodd"/><path fill="#c27ba0" d="m688.9897 323.37997l0 0c1.3467407 0 2.4384766 -1.0917664 2.4384766 -2.438507l10.468506 0l0 0c0 1.3467407 1.0917969 2.438507 2.4385376 2.438507l0 9.753723l0 0c-1.3467407 0 -2.4385376 1.0917664 -2.4385376 2.438507l-10.468506 0c0 -1.3467407 -1.0917358 -2.438507 -2.4384766 -2.438507z" fill-rule="evenodd"/><path stroke="#000000" stroke-width="1.0" stroke-linejoin="round" stroke-linecap="butt" d="m688.9897 323.37997l0 0c1.3467407 0 2.4384766 -1.0917664 2.4384766 -2.438507l10.468506 0l0 0c0 1.3467407 1.0917969 2.438507 2.4385376 2.438507l0 9.753723l0 0c-1.3467407 0 -2.4385376 1.0917664 -2.4385376 2.438507l-10.468506 0c0 -1.3467407 -1.0917358 -2.438507 -2.4384766 -2.438507z" fill-rule="evenodd"/><path fill="#4a86e8" d="m709.9616 307.44995l0 0c1.2779541 0 2.3139038 -1.0359802 2.3139038 -2.3139038l23.318115 0l0 0c0 1.2779236 1.0359497 2.3139038 2.3138428 2.3139038l0 9.25531c-1.2778931 0 -2.3138428 1.0359802 -2.3138428 2.3139038l-23.318115 0c0 -1.2779236 -1.0359497 -2.3139038 -2.3139038 -2.3139038z" fill-rule="evenodd"/><path stroke="#000000" stroke-width="1.0" stroke-linejoin="round" stroke-linecap="butt" d="m709.9616 307.44995l0 0c1.2779541 0 2.3139038 -1.0359802 2.3139038 -2.3139038l23.318115 0l0 0c0 1.2779236 1.0359497 2.3139038 2.3138428 2.3139038l0 9.25531c-1.2778931 0 -2.3138428 1.0359802 -2.3138428 2.3139038l-23.318115 0c0 -1.2779236 -1.0359497 -2.3139038 -2.3139038 -2.3139038z" fill-rule="evenodd"/><path fill="#ff00ff" d="m735.60443 325.23706l0 0c1.2779541 0 2.3139038 -1.0359497 2.3139038 -2.3139038l23.318115 0l0 0c0 1.2779541 1.0359497 2.3139038 2.3139038 2.3139038l0 9.25531c-1.2779541 0 -2.3139038 1.0359802 -2.3139038 2.3139038l-23.318115 0c0 -1.2779236 -1.0359497 -2.3139038 -2.3139038 -2.3139038z" fill-rule="evenodd"/><path stroke="#000000" stroke-width="1.0" stroke-linejoin="round" stroke-linecap="butt" d="m735.60443 325.23706l0 0c1.2779541 0 2.3139038 -1.0359497 2.3139038 -2.3139038l23.318115 0l0 0c0 1.2779541 1.0359497 2.3139038 2.3139038 2.3139038l0 9.25531c-1.2779541 0 -2.3139038 1.0359802 -2.3139038 2.3139038l-23.318115 0c0 -1.2779236 -1.0359497 -2.3139038 -2.3139038 -2.3139038z" fill-rule="evenodd"/><path fill="#00ff00" d="m682.6895 348.32938l0 0c1.2778931 0 2.3138428 -1.0359802 2.3138428 -2.3139038l23.318115 0l0 0c0 1.2779236 1.0359497 2.3139038 2.3139038 2.3139038l0 9.25531c-1.2779541 0 -2.3139038 1.0359802 -2.3139038 2.3139038l-23.318115 0c0 -1.2779236 -1.0359497 -2.3139038 -2.3138428 -2.3139038z" fill-rule="evenodd"/><path stroke="#000000" stroke-width="1.0" stroke-linejoin="round" stroke-linecap="butt" d="m682.6895 348.32938l0 0c1.2778931 0 2.3138428 -1.0359802 2.3138428 -2.3139038l23.318115 0l0 0c0 1.2779236 1.0359497 2.3139038 2.3139038 2.3139038l0 9.25531c-1.2779541 0 -2.3139038 1.0359802 -2.3139038 2.3139038l-23.318115 0c0 -1.2779236 -1.0359497 -2.3139038 -2.3138428 -2.3139038z" fill-rule="evenodd"/><path fill="#ff0000" d="m700.17267 372.78036l0 0c1.3467407 0 2.4385376 -1.0917358 2.4385376 -2.438507l39.52704 0l0 0c0 1.3467712 1.0917969 2.438507 2.4385376 2.438507l0 9.753754c-1.3467407 0 -2.4385376 1.0917358 -2.4385376 2.4384766l-39.52704 0l0 0c0 -1.3467407 -1.0917969 -2.4384766 -2.4385376 -2.4384766z" fill-rule="evenodd"/><path stroke="#000000" stroke-width="1.0" stroke-linejoin="round" stroke-linecap="butt" d="m700.17267 372.78036l0 0c1.3467407 0 2.4385376 -1.0917358 2.4385376 -2.438507l39.52704 0l0 0c0 1.3467712 1.0917969 2.438507 2.4385376 2.438507l0 9.753754c-1.3467407 0 -2.4385376 1.0917358 -2.4385376 2.4384766l-39.52704 0l0 0c0 -1.3467407 -1.0917969 -2.4384766 -2.4385376 -2.4384766z" fill-rule="evenodd"/><path fill="#00ffff" d="m713.0279 332.05484l0 0c1.3468018 0 2.4385376 -1.0917358 2.4385376 -2.438507l10.468506 0l0 0c0 1.3467712 1.0917969 2.438507 2.4385376 2.438507l0 9.753723l0 0c-1.3467407 0 -2.4385376 1.0917664 -2.4385376 2.438507l-10.468506 0c0 -1.3467407 -1.0917358 -2.438507 -2.4385376 -2.438507z" fill-rule="evenodd"/><path stroke="#000000" stroke-width="1.0" stroke-linejoin="round" stroke-linecap="butt" d="m713.0279 332.05484l0 0c1.3468018 0 2.4385376 -1.0917358 2.4385376 -2.438507l10.468506 0l0 0c0 1.3467712 1.0917969 2.438507 2.4385376 2.438507l0 9.753723l0 0c-1.3467407 0 -2.4385376 1.0917664 -2.4385376 2.438507l-10.468506 0c0 -1.3467407 -1.0917358 -2.438507 -2.4385376 -2.438507z" fill-rule="evenodd"/><path fill="#38761d" d="m721.9777 353.30182l0 0c1.3467407 0 2.4384766 -1.0917664 2.4384766 -2.438507l10.468506 0l0 0c0 1.3467407 1.0917969 2.438507 2.4385376 2.438507l0 9.753723l0 0c-1.3467407 0 -2.4385376 1.0917664 -2.4385376 2.438507l-10.468506 0c0 -1.3467407 -1.0917358 -2.438507 -2.4384766 -2.438507z" fill-rule="evenodd"/><path stroke="#000000" stroke-width="1.0" stroke-linejoin="round" stroke-linecap="butt" d="m721.9777 353.30182l0 0c1.3467407 0 2.4384766 -1.0917664 2.4384766 -2.438507l10.468506 0l0 0c0 1.3467407 1.0917969 2.438507 2.4385376 2.438507l0 9.753723l0 0c-1.3467407 0 -2.4385376 1.0917664 -2.4385376 2.438507l-10.468506 0c0 -1.3467407 -1.0917358 -2.438507 -2.4384766 -2.438507z" fill-rule="evenodd"/><path fill="#3d85c6" d="m746.8766 348.32938l0 0c1.2779541 0 2.3139038 -1.0359802 2.3139038 -2.3139038l15.53363 0l0 0c0 1.2779236 1.0359497 2.3139038 2.3139038 2.3139038l0 9.25531c-1.2779541 0 -2.3139038 1.0359802 -2.3139038 2.3139038l-15.53363 0c0 -1.2779236 -1.0359497 -2.3139038 -2.3139038 -2.3139038z" fill-rule="evenodd"/><path stroke="#000000" stroke-width="1.0" stroke-linejoin="round" stroke-linecap="butt" d="m746.8766 348.32938l0 0c1.2779541 0 2.3139038 -1.0359802 2.3139038 -2.3139038l15.53363 0l0 0c0 1.2779236 1.0359497 2.3139038 2.3139038 2.3139038l0 9.25531c-1.2779541 0 -2.3139038 1.0359802 -2.3139038 2.3139038l-15.53363 0c0 -1.2779236 -1.0359497 -2.3139038 -2.3139038 -2.3139038z" fill-rule="evenodd"/><path fill="#000000" fill-opacity="0.0" d="m793.85236 447.3065l10.692078 -44.142548l43.290405 -19.645294l43.290344 19.645294l10.692078 44.142548l-29.958252 35.39969l-48.0484 0z" fill-rule="evenodd"/><path stroke="#000000" stroke-width="2.0" stroke-linejoin="round" stroke-linecap="butt" stroke-dasharray="2.0,6.0" d="m793.85236 447.3065l10.692078 -44.142548l43.290405 -19.645294l43.290344 19.645294l10.692078 44.142548l-29.958252 35.39969l-48.0484 0z" fill-rule="evenodd"/><path fill="#c27ba0" d="m812.8899 414.5663l0 0c1.3468018 0 2.4385376 -1.0917664 2.4385376 -2.438507l10.468506 0l0 0c0 1.3467407 1.0917969 2.438507 2.4385376 2.438507l0 9.753723l0 0c-1.3467407 0 -2.4385376 1.0917664 -2.4385376 2.438507l-10.468506 0c0 -1.3467407 -1.0917358 -2.438507 -2.4385376 -2.438507z" fill-rule="evenodd"/><path stroke="#000000" stroke-width="1.0" stroke-linejoin="round" stroke-linecap="butt" d="m812.8899 414.5663l0 0c1.3468018 0 2.4385376 -1.0917664 2.4385376 -2.438507l10.468506 0l0 0c0 1.3467407 1.0917969 2.438507 2.4385376 2.438507l0 9.753723l0 0c-1.3467407 0 -2.4385376 1.0917664 -2.4385376 2.438507l-10.468506 0c0 -1.3467407 -1.0917358 -2.438507 -2.4385376 -2.438507z" fill-rule="evenodd"/><path fill="#4a86e8" d="m833.8619 398.6363l0 0c1.2779541 0 2.3139038 -1.0359497 2.3139038 -2.3138733l23.318054 0l0 0c0 1.2779236 1.0360107 2.3138733 2.3139038 2.3138733l0 9.255341c-1.2778931 0 -2.3139038 1.0359497 -2.3139038 2.3138733l-23.318054 0c0 -1.2779236 -1.0359497 -2.3138733 -2.3139038 -2.3138733z" fill-rule="evenodd"/><path stroke="#000000" stroke-width="1.0" stroke-linejoin="round" stroke-linecap="butt" d="m833.8619 398.6363l0 0c1.2779541 0 2.3139038 -1.0359497 2.3139038 -2.3138733l23.318054 0l0 0c0 1.2779236 1.0360107 2.3138733 2.3139038 2.3138733l0 9.255341c-1.2778931 0 -2.3139038 1.0359497 -2.3139038 2.3138733l-23.318054 0c0 -1.2779236 -1.0359497 -2.3138733 -2.3139038 -2.3138733z" fill-rule="evenodd"/><path fill="#ff00ff" d="m859.5047 416.42343l0 0c1.2779541 0 2.3139038 -1.0359802 2.3139038 -2.3139038l23.318115 0l0 0c0 1.2779236 1.0359497 2.3139038 2.3139038 2.3139038l0 9.25531c-1.2779541 0 -2.3139038 1.0359497 -2.3139038 2.3139038l-23.318115 0c0 -1.2779541 -1.0359497 -2.3139038 -2.3139038 -2.3139038z" fill-rule="evenodd"/><path stroke="#000000" stroke-width="1.0" stroke-linejoin="round" stroke-linecap="butt" d="m859.5047 416.42343l0 0c1.2779541 0 2.3139038 -1.0359802 2.3139038 -2.3139038l23.318115 0l0 0c0 1.2779236 1.0359497 2.3139038 2.3139038 2.3139038l0 9.25531c-1.2779541 0 -2.3139038 1.0359497 -2.3139038 2.3139038l-23.318115 0c0 -1.2779541 -1.0359497 -2.3139038 -2.3139038 -2.3139038z" fill-rule="evenodd"/><path fill="#00ff00" d="m806.5897 439.51572l0 0c1.2779541 0 2.3139038 -1.0359497 2.3139038 -2.3138733l23.318115 0l0 0c0 1.2779236 1.0359497 2.3138733 2.3139038 2.3138733l0 9.255341c-1.2779541 0 -2.3139038 1.0359497 -2.3139038 2.3138733l-23.318115 0c0 -1.2779236 -1.0359497 -2.3138733 -2.3139038 -2.3138733z" fill-rule="evenodd"/><path stroke="#000000" stroke-width="1.0" stroke-linejoin="round" stroke-linecap="butt" d="m806.5897 439.51572l0 0c1.2779541 0 2.3139038 -1.0359497 2.3139038 -2.3138733l23.318115 0l0 0c0 1.2779236 1.0359497 2.3138733 2.3139038 2.3138733l0 9.255341c-1.2779541 0 -2.3139038 1.0359497 -2.3139038 2.3138733l-23.318115 0c0 -1.2779236 -1.0359497 -2.3138733 -2.3139038 -2.3138733z" fill-rule="evenodd"/><path fill="#ff0000" d="m824.07294 463.96674l0 0c1.3467407 0 2.4384766 -1.0917664 2.4384766 -2.438507l39.5271 0l0 0c0 1.3467407 1.0917969 2.438507 2.4385376 2.438507l0 9.753723c-1.3467407 0 -2.4385376 1.0917664 -2.4385376 2.438507l-39.5271 0l0 0c0 -1.3467407 -1.0917358 -2.438507 -2.4384766 -2.438507z" fill-rule="evenodd"/><path stroke="#000000" stroke-width="1.0" stroke-linejoin="round" stroke-linecap="butt" d="m824.07294 463.96674l0 0c1.3467407 0 2.4384766 -1.0917664 2.4384766 -2.438507l39.5271 0l0 0c0 1.3467407 1.0917969 2.438507 2.4385376 2.438507l0 9.753723c-1.3467407 0 -2.4385376 1.0917664 -2.4385376 2.438507l-39.5271 0l0 0c0 -1.3467407 -1.0917358 -2.438507 -2.4384766 -2.438507z" fill-rule="evenodd"/><path fill="#00ffff" d="m836.92816 423.2412l0 0c1.3468018 0 2.4385376 -1.0917664 2.4385376 -2.438507l10.468506 0l0 0c0 1.3467407 1.0917969 2.438507 2.4385376 2.438507l0 9.753723l0 0c-1.3467407 0 -2.4385376 1.0917358 -2.4385376 2.438507l-10.468506 0c0 -1.3467712 -1.0917358 -2.438507 -2.4385376 -2.438507z" fill-rule="evenodd"/><path stroke="#000000" stroke-width="1.0" stroke-linejoin="round" stroke-linecap="butt" d="m836.92816 423.2412l0 0c1.3468018 0 2.4385376 -1.0917664 2.4385376 -2.438507l10.468506 0l0 0c0 1.3467407 1.0917969 2.438507 2.4385376 2.438507l0 9.753723l0 0c-1.3467407 0 -2.4385376 1.0917358 -2.4385376 2.438507l-10.468506 0c0 -1.3467712 -1.0917358 -2.438507 -2.4385376 -2.438507z" fill-rule="evenodd"/><path fill="#38761d" d="m845.8779 444.48816l0 0c1.3468018 0 2.4385376 -1.0917664 2.4385376 -2.438507l10.468506 0l0 0c0 1.3467407 1.0917969 2.438507 2.4385376 2.438507l0 9.753723l0 0c-1.3467407 0 -2.4385376 1.0917664 -2.4385376 2.438507l-10.468506 0c0 -1.3467407 -1.0917358 -2.438507 -2.4385376 -2.438507z" fill-rule="evenodd"/><path stroke="#000000" stroke-width="1.0" stroke-linejoin="round" stroke-linecap="butt" d="m845.8779 444.48816l0 0c1.3468018 0 2.4385376 -1.0917664 2.4385376 -2.438507l10.468506 0l0 0c0 1.3467407 1.0917969 2.438507 2.4385376 2.438507l0 9.753723l0 0c-1.3467407 0 -2.4385376 1.0917664 -2.4385376 2.438507l-10.468506 0c0 -1.3467407 -1.0917358 -2.438507 -2.4385376 -2.438507z" fill-rule="evenodd"/><path fill="#3d85c6" d="m870.77686 439.51572l0 0c1.2779541 0 2.3139038 -1.0359497 2.3139038 -2.3138733l15.53363 0l0 0c0 1.2779236 1.0359497 2.3138733 2.3139038 2.3138733l0 9.255341c-1.2779541 0 -2.3139038 1.0359497 -2.3139038 2.3138733l-15.53363 0c0 -1.2779236 -1.0359497 -2.3138733 -2.3139038 -2.3138733z" fill-rule="evenodd"/><path stroke="#000000" stroke-width="1.0" stroke-linejoin="round" stroke-linecap="butt" d="m870.77686 439.51572l0 0c1.2779541 0 2.3139038 -1.0359497 2.3139038 -2.3138733l15.53363 0l0 0c0 1.2779236 1.0359497 2.3138733 2.3139038 2.3138733l0 9.255341c-1.2779541 0 -2.3139038 1.0359497 -2.3139038 2.3138733l-15.53363 0c0 -1.2779236 -1.0359497 -2.3138733 -2.3139038 -2.3138733z" fill-rule="evenodd"/><path fill="#000000" fill-opacity="0.0" d="m793.85236 248.9784l10.692078 -44.142548l43.290405 -19.645279l43.290344 19.645279l10.692078 44.142548l-29.958252 35.39972l-48.0484 0z" fill-rule="evenodd"/><path stroke="#000000" stroke-width="2.0" stroke-linejoin="round" stroke-linecap="butt" stroke-dasharray="2.0,6.0" d="m793.85236 248.9784l10.692078 -44.142548l43.290405 -19.645279l43.290344 19.645279l10.692078 44.142548l-29.958252 35.39972l-48.0484 0z" fill-rule="evenodd"/><path fill="#c27ba0" d="m812.8899 216.23824l0 0c1.3468018 0 2.4385376 -1.0917511 2.4385376 -2.438507l10.468506 0l0 0c0 1.346756 1.0917969 2.438507 2.4385376 2.438507l0 9.753723l0 0c-1.3467407 0 -2.4385376 1.0917664 -2.4385376 2.438507l-10.468506 0c0 -1.3467407 -1.0917358 -2.438507 -2.4385376 -2.438507z" fill-rule="evenodd"/><path stroke="#000000" stroke-width="1.0" stroke-linejoin="round" stroke-linecap="butt" d="m812.8899 216.23824l0 0c1.3468018 0 2.4385376 -1.0917511 2.4385376 -2.438507l10.468506 0l0 0c0 1.346756 1.0917969 2.438507 2.4385376 2.438507l0 9.753723l0 0c-1.3467407 0 -2.4385376 1.0917664 -2.4385376 2.438507l-10.468506 0c0 -1.3467407 -1.0917358 -2.438507 -2.4385376 -2.438507z" fill-rule="evenodd"/><path fill="#4a86e8" d="m833.8619 200.30821l0 0c1.2779541 0 2.3139038 -1.035965 2.3139038 -2.3138885l23.318054 0l0 0c0 1.2779236 1.0360107 2.3138885 2.3139038 2.3138885l0 9.255325c-1.2778931 0 -2.3139038 1.035965 -2.3139038 2.3138885l-23.318054 0c0 -1.2779236 -1.0359497 -2.3138885 -2.3139038 -2.3138885z" fill-rule="evenodd"/><path stroke="#000000" stroke-width="1.0" stroke-linejoin="round" stroke-linecap="butt" d="m833.8619 200.30821l0 0c1.2779541 0 2.3139038 -1.035965 2.3139038 -2.3138885l23.318054 0l0 0c0 1.2779236 1.0360107 2.3138885 2.3139038 2.3138885l0 9.255325c-1.2778931 0 -2.3139038 1.035965 -2.3139038 2.3138885l-23.318054 0c0 -1.2779236 -1.0359497 -2.3138885 -2.3139038 -2.3138885z" fill-rule="evenodd"/><path fill="#ff00ff" d="m859.5047 218.09534l0 0c1.2779541 0 2.3139038 -1.035965 2.3139038 -2.3139038l23.318115 0l0 0c0 1.2779388 1.0359497 2.3139038 2.3139038 2.3139038l0 9.25531c-1.2779541 0 -2.3139038 1.035965 -2.3139038 2.3139038l-23.318115 0c0 -1.2779388 -1.0359497 -2.3139038 -2.3139038 -2.3139038z" fill-rule="evenodd"/><path stroke="#000000" stroke-width="1.0" stroke-linejoin="round" stroke-linecap="butt" d="m859.5047 218.09534l0 0c1.2779541 0 2.3139038 -1.035965 2.3139038 -2.3139038l23.318115 0l0 0c0 1.2779388 1.0359497 2.3139038 2.3139038 2.3139038l0 9.25531c-1.2779541 0 -2.3139038 1.035965 -2.3139038 2.3139038l-23.318115 0c0 -1.2779388 -1.0359497 -2.3139038 -2.3139038 -2.3139038z" fill-rule="evenodd"/><path fill="#00ff00" d="m806.5897 241.18765l0 0c1.2779541 0 2.3139038 -1.0359802 2.3139038 -2.3139038l23.318115 0l0 0c0 1.2779236 1.0359497 2.3139038 2.3139038 2.3139038l0 9.25531c-1.2779541 0 -2.3139038 1.035965 -2.3139038 2.3138885l-23.318115 0c0 -1.2779236 -1.0359497 -2.3138885 -2.3139038 -2.3138885z" fill-rule="evenodd"/><path stroke="#000000" stroke-width="1.0" stroke-linejoin="round" stroke-linecap="butt" d="m806.5897 241.18765l0 0c1.2779541 0 2.3139038 -1.0359802 2.3139038 -2.3139038l23.318115 0l0 0c0 1.2779236 1.0359497 2.3139038 2.3139038 2.3139038l0 9.25531c-1.2779541 0 -2.3139038 1.035965 -2.3139038 2.3138885l-23.318115 0c0 -1.2779236 -1.0359497 -2.3138885 -2.3139038 -2.3138885z" fill-rule="evenodd"/><path fill="#ff0000" d="m824.07294 265.63864l0 0c1.3467407 0 2.4384766 -1.0917664 2.4384766 -2.438507l39.5271 0l0 0c0 1.3467407 1.0917969 2.438507 2.4385376 2.438507l0 9.753723c-1.3467407 0 -2.4385376 1.0917664 -2.4385376 2.438507l-39.5271 0l0 0c0 -1.3467407 -1.0917358 -2.438507 -2.4384766 -2.438507z" fill-rule="evenodd"/><path stroke="#000000" stroke-width="1.0" stroke-linejoin="round" stroke-linecap="butt" d="m824.07294 265.63864l0 0c1.3467407 0 2.4384766 -1.0917664 2.4384766 -2.438507l39.5271 0l0 0c0 1.3467407 1.0917969 2.438507 2.4385376 2.438507l0 9.753723c-1.3467407 0 -2.4385376 1.0917664 -2.4385376 2.438507l-39.5271 0l0 0c0 -1.3467407 -1.0917358 -2.438507 -2.4384766 -2.438507z" fill-rule="evenodd"/><path fill="#00ffff" d="m836.92816 224.91312l0 0c1.3468018 0 2.4385376 -1.0917511 2.4385376 -2.438507l10.468506 0l0 0c0 1.346756 1.0917969 2.438507 2.4385376 2.438507l0 9.753723l0 0c-1.3467407 0 -2.4385376 1.0917664 -2.4385376 2.438507l-10.468506 0c0 -1.3467407 -1.0917358 -2.438507 -2.4385376 -2.438507z" fill-rule="evenodd"/><path stroke="#000000" stroke-width="1.0" stroke-linejoin="round" stroke-linecap="butt" d="m836.92816 224.91312l0 0c1.3468018 0 2.4385376 -1.0917511 2.4385376 -2.438507l10.468506 0l0 0c0 1.346756 1.0917969 2.438507 2.4385376 2.438507l0 9.753723l0 0c-1.3467407 0 -2.4385376 1.0917664 -2.4385376 2.438507l-10.468506 0c0 -1.3467407 -1.0917358 -2.438507 -2.4385376 -2.438507z" fill-rule="evenodd"/><path fill="#38761d" d="m845.8779 246.16008l0 0c1.3468018 0 2.4385376 -1.0917511 2.4385376 -2.438507l10.468506 0l0 0c0 1.346756 1.0917969 2.438507 2.4385376 2.438507l0 9.753723l0 0c-1.3467407 0 -2.4385376 1.0917511 -2.4385376 2.4385223l-10.468506 0c0 -1.3467712 -1.0917358 -2.4385223 -2.4385376 -2.4385223z" fill-rule="evenodd"/><path stroke="#000000" stroke-width="1.0" stroke-linejoin="round" stroke-linecap="butt" d="m845.8779 246.16008l0 0c1.3468018 0 2.4385376 -1.0917511 2.4385376 -2.438507l10.468506 0l0 0c0 1.346756 1.0917969 2.438507 2.4385376 2.438507l0 9.753723l0 0c-1.3467407 0 -2.4385376 1.0917511 -2.4385376 2.4385223l-10.468506 0c0 -1.3467712 -1.0917358 -2.4385223 -2.4385376 -2.4385223z" fill-rule="evenodd"/><path fill="#3d85c6" d="m870.77686 241.18765l0 0c1.2779541 0 2.3139038 -1.0359802 2.3139038 -2.3139038l15.53363 0l0 0c0 1.2779236 1.0359497 2.3139038 2.3139038 2.3139038l0 9.25531c-1.2779541 0 -2.3139038 1.035965 -2.3139038 2.3138885l-15.53363 0c0 -1.2779236 -1.0359497 -2.3138885 -2.3139038 -2.3138885z" fill-rule="evenodd"/><path stroke="#000000" stroke-width="1.0" stroke-linejoin="round" stroke-linecap="butt" d="m870.77686 241.18765l0 0c1.2779541 0 2.3139038 -1.0359802 2.3139038 -2.3139038l15.53363 0l0 0c0 1.2779236 1.0359497 2.3139038 2.3139038 2.3139038l0 9.25531c-1.2779541 0 -2.3139038 1.035965 -2.3139038 2.3138885l-15.53363 0c0 -1.2779236 -1.0359497 -2.3138885 -2.3139038 -2.3138885z" fill-rule="evenodd"/><path fill="#000000" fill-opacity="0.0" d="m675.9206 149.79204l10.692078 -44.14254l43.290405 -19.645287l43.290405 19.645287l10.692017 44.14254l-29.958252 35.399704l-48.0484 0z" fill-rule="evenodd"/><path stroke="#000000" stroke-width="2.0" stroke-linejoin="round" stroke-linecap="butt" stroke-dasharray="2.0,6.0" d="m675.9206 149.79204l10.692078 -44.14254l43.290405 -19.645287l43.290405 19.645287l10.692017 44.14254l-29.958252 35.399704l-48.0484 0z" fill-rule="evenodd"/><path fill="#c27ba0" d="m694.9582 117.05188l0 0c1.3467407 0 2.4384766 -1.0917511 2.4384766 -2.438507l10.468506 0l0 0c0 1.346756 1.0917969 2.438507 2.4385376 2.438507l0 9.753731l0 0c-1.3467407 0 -2.4385376 1.0917587 -2.4385376 2.4384995l-10.468506 0c0 -1.3467407 -1.0917358 -2.4384995 -2.4384766 -2.4384995z" fill-rule="evenodd"/><path stroke="#000000" stroke-width="1.0" stroke-linejoin="round" stroke-linecap="butt" d="m694.9582 117.05188l0 0c1.3467407 0 2.4384766 -1.0917511 2.4384766 -2.438507l10.468506 0l0 0c0 1.346756 1.0917969 2.438507 2.4385376 2.438507l0 9.753731l0 0c-1.3467407 0 -2.4385376 1.0917587 -2.4385376 2.4384995l-10.468506 0c0 -1.3467407 -1.0917358 -2.4384995 -2.4384766 -2.4384995z" fill-rule="evenodd"/><path fill="#4a86e8" d="m715.9301 101.121864l0 0c1.2779541 0 2.3139038 -1.035965 2.3139038 -2.3138962l23.318115 0l0 0c0 1.2779312 1.0359497 2.3138962 2.3138428 2.3138962l0 9.255318c-1.2778931 0 -2.3138428 1.035965 -2.3138428 2.3138962l-23.318115 0c0 -1.2779312 -1.0359497 -2.3138962 -2.3139038 -2.3138962z" fill-rule="evenodd"/><path stroke="#000000" stroke-width="1.0" stroke-linejoin="round" stroke-linecap="butt" d="m715.9301 101.121864l0 0c1.2779541 0 2.3139038 -1.035965 2.3139038 -2.3138962l23.318115 0l0 0c0 1.2779312 1.0359497 2.3138962 2.3138428 2.3138962l0 9.255318c-1.2778931 0 -2.3138428 1.035965 -2.3138428 2.3138962l-23.318115 0c0 -1.2779312 -1.0359497 -2.3138962 -2.3139038 -2.3138962z" fill-rule="evenodd"/><path fill="#ff00ff" d="m741.57294 118.90898l0 0c1.2779541 0 2.3139038 -1.035965 2.3139038 -2.3138962l23.318115 0l0 0c0 1.2779312 1.0359497 2.3138962 2.3139038 2.3138962l0 9.255325c-1.2779541 0 -2.3139038 1.035965 -2.3139038 2.3138885l-23.318115 0c0 -1.2779236 -1.0359497 -2.3138885 -2.3139038 -2.3138885z" fill-rule="evenodd"/><path stroke="#000000" stroke-width="1.0" stroke-linejoin="round" stroke-linecap="butt" d="m741.57294 118.90898l0 0c1.2779541 0 2.3139038 -1.035965 2.3139038 -2.3138962l23.318115 0l0 0c0 1.2779312 1.0359497 2.3138962 2.3139038 2.3138962l0 9.255325c-1.2779541 0 -2.3139038 1.035965 -2.3139038 2.3138885l-23.318115 0c0 -1.2779236 -1.0359497 -2.3138885 -2.3139038 -2.3138885z" fill-rule="evenodd"/><path fill="#00ff00" d="m688.65796 142.0013l0 0c1.2779541 0 2.3139038 -1.035965 2.3139038 -2.3139038l23.318115 0l0 0c0 1.2779388 1.0359497 2.3139038 2.3139038 2.3139038l0 9.25531c-1.2779541 0 -2.3139038 1.035965 -2.3139038 2.3139038l-23.318115 0c0 -1.2779388 -1.0359497 -2.3139038 -2.3139038 -2.3139038z" fill-rule="evenodd"/><path stroke="#000000" stroke-width="1.0" stroke-linejoin="round" stroke-linecap="butt" d="m688.65796 142.0013l0 0c1.2779541 0 2.3139038 -1.035965 2.3139038 -2.3139038l23.318115 0l0 0c0 1.2779388 1.0359497 2.3139038 2.3139038 2.3139038l0 9.25531c-1.2779541 0 -2.3139038 1.035965 -2.3139038 2.3139038l-23.318115 0c0 -1.2779388 -1.0359497 -2.3139038 -2.3139038 -2.3139038z" fill-rule="evenodd"/><path fill="#ff0000" d="m706.1412 166.45229l0 0c1.3467407 0 2.4384766 -1.0917511 2.4384766 -2.438507l39.5271 0l0 0c0 1.346756 1.0917969 2.438507 2.4385376 2.438507l0 9.753738c-1.3467407 0 -2.4385376 1.0917511 -2.4385376 2.438507l-39.5271 0l0 0c0 -1.346756 -1.0917358 -2.438507 -2.4384766 -2.438507z" fill-rule="evenodd"/><path stroke="#000000" stroke-width="1.0" stroke-linejoin="round" stroke-linecap="butt" d="m706.1412 166.45229l0 0c1.3467407 0 2.4384766 -1.0917511 2.4384766 -2.438507l39.5271 0l0 0c0 1.346756 1.0917969 2.438507 2.4385376 2.438507l0 9.753738c-1.3467407 0 -2.4385376 1.0917511 -2.4385376 2.438507l-39.5271 0l0 0c0 -1.346756 -1.0917358 -2.438507 -2.4384766 -2.438507z" fill-rule="evenodd"/><path fill="#00ffff" d="m718.9964 125.72676l0 0c1.3468018 0 2.4385376 -1.0917511 2.4385376 -2.4384995l10.468506 0l0 0c0 1.3467484 1.0917969 2.4384995 2.4385376 2.4384995l0 9.753738l0 0c-1.3467407 0 -2.4385376 1.0917511 -2.4385376 2.4384918l-10.468506 0c0 -1.3467407 -1.0917358 -2.4384918 -2.4385376 -2.4384918z" fill-rule="evenodd"/><path stroke="#000000" stroke-width="1.0" stroke-linejoin="round" stroke-linecap="butt" d="m718.9964 125.72676l0 0c1.3468018 0 2.4385376 -1.0917511 2.4385376 -2.4384995l10.468506 0l0 0c0 1.3467484 1.0917969 2.4384995 2.4385376 2.4384995l0 9.753738l0 0c-1.3467407 0 -2.4385376 1.0917511 -2.4385376 2.4384918l-10.468506 0c0 -1.3467407 -1.0917358 -2.4384918 -2.4385376 -2.4384918z" fill-rule="evenodd"/><path fill="#38761d" d="m727.9462 146.97372l0 0c1.3467407 0 2.4384766 -1.0917511 2.4384766 -2.438507l10.468506 0l0 0c0 1.346756 1.0917969 2.438507 2.4385376 2.438507l0 9.753738l0 0c-1.3467407 0 -2.4385376 1.0917511 -2.4385376 2.4384918l-10.468506 0c0 -1.3467407 -1.0917358 -2.4384918 -2.4384766 -2.4384918z" fill-rule="evenodd"/><path stroke="#000000" stroke-width="1.0" stroke-linejoin="round" stroke-linecap="butt" d="m727.9462 146.97372l0 0c1.3467407 0 2.4384766 -1.0917511 2.4384766 -2.438507l10.468506 0l0 0c0 1.346756 1.0917969 2.438507 2.4385376 2.438507l0 9.753738l0 0c-1.3467407 0 -2.4385376 1.0917511 -2.4385376 2.4384918l-10.468506 0c0 -1.3467407 -1.0917358 -2.4384918 -2.4384766 -2.4384918z" fill-rule="evenodd"/><path fill="#3d85c6" d="m752.8451 142.0013l0 0c1.2779541 0 2.3139038 -1.035965 2.3139038 -2.3139038l15.53363 0l0 0c0 1.2779388 1.0359497 2.3139038 2.3139038 2.3139038l0 9.25531c-1.2779541 0 -2.3139038 1.035965 -2.3139038 2.3139038l-15.53363 0c0 -1.2779388 -1.0359497 -2.3139038 -2.3139038 -2.3139038z" fill-rule="evenodd"/><path stroke="#000000" stroke-width="1.0" stroke-linejoin="round" stroke-linecap="butt" d="m752.8451 142.0013l0 0c1.2779541 0 2.3139038 -1.035965 2.3139038 -2.3139038l15.53363 0l0 0c0 1.2779388 1.0359497 2.3139038 2.3139038 2.3139038l0 9.25531c-1.2779541 0 -2.3139038 1.035965 -2.3139038 2.3139038l-15.53363 0c0 -1.2779388 -1.0359497 -2.3139038 -2.3139038 -2.3139038z" fill-rule="evenodd"/><path fill="#000000" fill-opacity="0.0" d="m457.3353 178.36421l10.692047 -44.142532l43.290405 -19.645287l43.290405 19.645287l10.692078 44.142532l-29.958252 35.39972l-48.04843 0z" fill-rule="evenodd"/><path stroke="#000000" stroke-width="2.0" stroke-linejoin="round" stroke-linecap="butt" stroke-dasharray="2.0,6.0" d="m457.3353 178.36421l10.692047 -44.142532l43.290405 -19.645287l43.290405 19.645287l10.692078 44.142532l-29.958252 35.39972l-48.04843 0z" fill-rule="evenodd"/><path fill="#c27ba0" d="m476.37286 145.62405l0 0c1.3467407 0 2.438507 -1.0917511 2.438507 -2.4384918l10.468536 0l0 0c0 1.3467407 1.0917358 2.4384918 2.438507 2.4384918l0 9.753738l0 0c-1.3467712 0 -2.438507 1.0917511 -2.438507 2.438507l-10.468536 0c0 -1.346756 -1.0917664 -2.438507 -2.438507 -2.438507z" fill-rule="evenodd"/><path stroke="#000000" stroke-width="1.0" stroke-linejoin="round" stroke-linecap="butt" d="m476.37286 145.62405l0 0c1.3467407 0 2.438507 -1.0917511 2.438507 -2.4384918l10.468536 0l0 0c0 1.3467407 1.0917358 2.4384918 2.438507 2.4384918l0 9.753738l0 0c-1.3467712 0 -2.438507 1.0917511 -2.438507 2.438507l-10.468536 0c0 -1.346756 -1.0917664 -2.438507 -2.438507 -2.438507z" fill-rule="evenodd"/><path fill="#4a86e8" d="m497.34482 129.69405l0 0c1.2779236 0 2.3139038 -1.035965 2.3139038 -2.3138962l23.318085 0l0 0c0 1.2779312 1.0359497 2.3138962 2.3139038 2.3138962l0 9.25531c-1.2779541 0 -2.3139038 1.035965 -2.3139038 2.3139038l-23.318085 0c0 -1.2779388 -1.0359802 -2.3139038 -2.3139038 -2.3139038z" fill-rule="evenodd"/><path stroke="#000000" stroke-width="1.0" stroke-linejoin="round" stroke-linecap="butt" d="m497.34482 129.69405l0 0c1.2779236 0 2.3139038 -1.035965 2.3139038 -2.3138962l23.318085 0l0 0c0 1.2779312 1.0359497 2.3138962 2.3139038 2.3138962l0 9.25531c-1.2779541 0 -2.3139038 1.035965 -2.3139038 2.3139038l-23.318085 0c0 -1.2779388 -1.0359802 -2.3139038 -2.3139038 -2.3139038z" fill-rule="evenodd"/><path fill="#ff00ff" d="m522.9877 147.48117l0 0c1.2778931 0 2.3139038 -1.0359802 2.3139038 -2.3139038l23.318054 0l0 0c0 1.2779236 1.0360107 2.3139038 2.3139038 2.3139038l0 9.25531c-1.2778931 0 -2.3139038 1.035965 -2.3139038 2.3139038l-23.318054 0c0 -1.2779388 -1.0360107 -2.3139038 -2.3139038 -2.3139038z" fill-rule="evenodd"/><path stroke="#000000" stroke-width="1.0" stroke-linejoin="round" stroke-linecap="butt" d="m522.9877 147.48117l0 0c1.2778931 0 2.3139038 -1.0359802 2.3139038 -2.3139038l23.318054 0l0 0c0 1.2779236 1.0360107 2.3139038 2.3139038 2.3139038l0 9.25531c-1.2778931 0 -2.3139038 1.035965 -2.3139038 2.3139038l-23.318054 0c0 -1.2779388 -1.0360107 -2.3139038 -2.3139038 -2.3139038z" fill-rule="evenodd"/><path fill="#00ff00" d="m470.0727 170.57347l0 0c1.2779236 0 2.3139038 -1.035965 2.3139038 -2.3139038l23.318085 0l0 0c0 1.2779388 1.0359497 2.3139038 2.3139038 2.3139038l0 9.25531c-1.2779541 0 -2.3139038 1.0359802 -2.3139038 2.3139038l-23.318085 0c0 -1.2779236 -1.0359802 -2.3139038 -2.3139038 -2.3139038z" fill-rule="evenodd"/><path stroke="#000000" stroke-width="1.0" stroke-linejoin="round" stroke-linecap="butt" d="m470.0727 170.57347l0 0c1.2779236 0 2.3139038 -1.035965 2.3139038 -2.3139038l23.318085 0l0 0c0 1.2779388 1.0359497 2.3139038 2.3139038 2.3139038l0 9.25531c-1.2779541 0 -2.3139038 1.0359802 -2.3139038 2.3139038l-23.318085 0c0 -1.2779236 -1.0359802 -2.3139038 -2.3139038 -2.3139038z" fill-rule="evenodd"/><path fill="#ff0000" d="m487.55588 195.02448l0 0c1.3467407 0 2.438507 -1.0917664 2.438507 -2.438507l39.5271 0l0 0c0 1.3467407 1.0917358 2.438507 2.4384766 2.438507l0 9.753723c-1.3467407 0 -2.4384766 1.0917511 -2.4384766 2.438507l-39.5271 0l0 0c0 -1.346756 -1.0917664 -2.438507 -2.438507 -2.438507z" fill-rule="evenodd"/><path stroke="#000000" stroke-width="1.0" stroke-linejoin="round" stroke-linecap="butt" d="m487.55588 195.02448l0 0c1.3467407 0 2.438507 -1.0917664 2.438507 -2.438507l39.5271 0l0 0c0 1.3467407 1.0917358 2.438507 2.4384766 2.438507l0 9.753723c-1.3467407 0 -2.4384766 1.0917511 -2.4384766 2.438507l-39.5271 0l0 0c0 -1.346756 -1.0917664 -2.438507 -2.438507 -2.438507z" fill-rule="evenodd"/><path fill="#00ffff" d="m500.41113 154.29893l0 0c1.3467407 0 2.438507 -1.0917511 2.438507 -2.4384918l10.468536 0l0 0c0 1.3467407 1.0917358 2.4384918 2.4384766 2.4384918l0 9.753738l0 0c-1.3467407 0 -2.4384766 1.0917511 -2.4384766 2.438507l-10.468536 0c0 -1.346756 -1.0917664 -2.438507 -2.438507 -2.438507z" fill-rule="evenodd"/><path stroke="#000000" stroke-width="1.0" stroke-linejoin="round" stroke-linecap="butt" d="m500.41113 154.29893l0 0c1.3467407 0 2.438507 -1.0917511 2.438507 -2.4384918l10.468536 0l0 0c0 1.3467407 1.0917358 2.4384918 2.4384766 2.4384918l0 9.753738l0 0c-1.3467407 0 -2.4384766 1.0917511 -2.4384766 2.438507l-10.468536 0c0 -1.346756 -1.0917664 -2.438507 -2.438507 -2.438507z" fill-rule="evenodd"/><path fill="#38761d" d="m509.3609 175.5459l0 0c1.3467407 0 2.438507 -1.0917511 2.438507 -2.438507l10.468536 0l0 0c0 1.346756 1.0917358 2.438507 2.4384766 2.438507l0 9.753738l0 0c-1.3467407 0 -2.4384766 1.0917511 -2.4384766 2.438507l-10.468536 0c0 -1.346756 -1.0917664 -2.438507 -2.438507 -2.438507z" fill-rule="evenodd"/><path stroke="#000000" stroke-width="1.0" stroke-linejoin="round" stroke-linecap="butt" d="m509.3609 175.5459l0 0c1.3467407 0 2.438507 -1.0917511 2.438507 -2.438507l10.468536 0l0 0c0 1.346756 1.0917358 2.438507 2.4384766 2.438507l0 9.753738l0 0c-1.3467407 0 -2.4384766 1.0917511 -2.4384766 2.438507l-10.468536 0c0 -1.346756 -1.0917664 -2.438507 -2.438507 -2.438507z" fill-rule="evenodd"/><path fill="#3d85c6" d="m534.2598 170.57347l0 0c1.2778931 0 2.3139038 -1.035965 2.3139038 -2.3139038l15.53363 0l0 0c0 1.2779388 1.0359497 2.3139038 2.3138428 2.3139038l0 9.25531c-1.2778931 0 -2.3138428 1.0359802 -2.3138428 2.3139038l-15.53363 0c0 -1.2779236 -1.0360107 -2.3139038 -2.3139038 -2.3139038z" fill-rule="evenodd"/><path stroke="#000000" stroke-width="1.0" stroke-linejoin="round" stroke-linecap="butt" d="m534.2598 170.57347l0 0c1.2778931 0 2.3139038 -1.035965 2.3139038 -2.3139038l15.53363 0l0 0c0 1.2779388 1.0359497 2.3139038 2.3138428 2.3139038l0 9.25531c-1.2778931 0 -2.3138428 1.0359802 -2.3138428 2.3139038l-15.53363 0c0 -1.2779236 -1.0360107 -2.3139038 -2.3139038 -2.3139038z" fill-rule="evenodd"/><path fill="#000000" fill-opacity="0.0" d="m372.03607 356.12012l10.692078 -44.142548l43.290405 -19.645264l43.290375 19.645264l10.692078 44.142548l-29.958282 35.39972l-48.04837 0z" fill-rule="evenodd"/><path stroke="#000000" stroke-width="2.0" stroke-linejoin="round" stroke-linecap="butt" stroke-dasharray="2.0,6.0" d="m372.03607 356.12012l10.692078 -44.142548l43.290405 -19.645264l43.290375 19.645264l10.692078 44.142548l-29.958282 35.39972l-48.04837 0z" fill-rule="evenodd"/><path fill="#c27ba0" d="m391.07364 323.37997l0 0c1.3467712 0 2.438507 -1.0917664 2.438507 -2.438507l10.468536 0l0 0c0 1.3467407 1.0917664 2.438507 2.438507 2.438507l0 9.753723l0 0c-1.3467407 0 -2.438507 1.0917664 -2.438507 2.438507l-10.468536 0c0 -1.3467407 -1.0917358 -2.438507 -2.438507 -2.438507z" fill-rule="evenodd"/><path stroke="#000000" stroke-width="1.0" stroke-linejoin="round" stroke-linecap="butt" d="m391.07364 323.37997l0 0c1.3467712 0 2.438507 -1.0917664 2.438507 -2.438507l10.468536 0l0 0c0 1.3467407 1.0917664 2.438507 2.438507 2.438507l0 9.753723l0 0c-1.3467407 0 -2.438507 1.0917664 -2.438507 2.438507l-10.468536 0c0 -1.3467407 -1.0917358 -2.438507 -2.438507 -2.438507z" fill-rule="evenodd"/><path fill="#4a86e8" d="m412.0456 307.44995l0 0c1.2779236 0 2.3139038 -1.0359802 2.3139038 -2.3139038l23.318085 0l0 0c0 1.2779236 1.0359802 2.3139038 2.3139038 2.3139038l0 9.25531c-1.2779236 0 -2.3139038 1.0359802 -2.3139038 2.3139038l-23.318085 0c0 -1.2779236 -1.0359802 -2.3139038 -2.3139038 -2.3139038z" fill-rule="evenodd"/><path stroke="#000000" stroke-width="1.0" stroke-linejoin="round" stroke-linecap="butt" d="m412.0456 307.44995l0 0c1.2779236 0 2.3139038 -1.0359802 2.3139038 -2.3139038l23.318085 0l0 0c0 1.2779236 1.0359802 2.3139038 2.3139038 2.3139038l0 9.25531c-1.2779236 0 -2.3139038 1.0359802 -2.3139038 2.3139038l-23.318085 0c0 -1.2779236 -1.0359802 -2.3139038 -2.3139038 -2.3139038z" fill-rule="evenodd"/><path fill="#ff00ff" d="m437.68845 325.23706l0 0c1.2779236 0 2.3139038 -1.0359497 2.3139038 -2.3139038l23.318085 0l0 0c0 1.2779541 1.0359497 2.3139038 2.3139038 2.3139038l0 9.25531c-1.2779541 0 -2.3139038 1.0359802 -2.3139038 2.3139038l-23.318085 0c0 -1.2779236 -1.0359802 -2.3139038 -2.3139038 -2.3139038z" fill-rule="evenodd"/><path stroke="#000000" stroke-width="1.0" stroke-linejoin="round" stroke-linecap="butt" d="m437.68845 325.23706l0 0c1.2779236 0 2.3139038 -1.0359497 2.3139038 -2.3139038l23.318085 0l0 0c0 1.2779541 1.0359497 2.3139038 2.3139038 2.3139038l0 9.25531c-1.2779541 0 -2.3139038 1.0359802 -2.3139038 2.3139038l-23.318085 0c0 -1.2779236 -1.0359802 -2.3139038 -2.3139038 -2.3139038z" fill-rule="evenodd"/><path fill="#00ff00" d="m384.77347 348.32938l0 0c1.2779236 0 2.3139038 -1.0359802 2.3139038 -2.3139038l23.318085 0l0 0c0 1.2779236 1.0359802 2.3139038 2.3139038 2.3139038l0 9.25531c-1.2779236 0 -2.3139038 1.0359802 -2.3139038 2.3139038l-23.318085 0c0 -1.2779236 -1.0359802 -2.3139038 -2.3139038 -2.3139038z" fill-rule="evenodd"/><path stroke="#000000" stroke-width="1.0" stroke-linejoin="round" stroke-linecap="butt" d="m384.77347 348.32938l0 0c1.2779236 0 2.3139038 -1.0359802 2.3139038 -2.3139038l23.318085 0l0 0c0 1.2779236 1.0359802 2.3139038 2.3139038 2.3139038l0 9.25531c-1.2779236 0 -2.3139038 1.0359802 -2.3139038 2.3139038l-23.318085 0c0 -1.2779236 -1.0359802 -2.3139038 -2.3139038 -2.3139038z" fill-rule="evenodd"/><path fill="#ff0000" d="m402.25665 372.78036l0 0c1.3467712 0 2.438507 -1.0917358 2.438507 -2.438507l39.5271 0l0 0c0 1.3467712 1.0917664 2.438507 2.438507 2.438507l0 9.753754c-1.3467407 0 -2.438507 1.0917358 -2.438507 2.4384766l-39.5271 0l0 0c0 -1.3467407 -1.0917358 -2.4384766 -2.438507 -2.4384766z" fill-rule="evenodd"/><path stroke="#000000" stroke-width="1.0" stroke-linejoin="round" stroke-linecap="butt" d="m402.25665 372.78036l0 0c1.3467712 0 2.438507 -1.0917358 2.438507 -2.438507l39.5271 0l0 0c0 1.3467712 1.0917664 2.438507 2.438507 2.438507l0 9.753754c-1.3467407 0 -2.438507 1.0917358 -2.438507 2.4384766l-39.5271 0l0 0c0 -1.3467407 -1.0917358 -2.4384766 -2.438507 -2.4384766z" fill-rule="evenodd"/><path fill="#00ffff" d="m415.1119 332.05484l0 0c1.3467407 0 2.438507 -1.0917358 2.438507 -2.438507l10.468536 0l0 0c0 1.3467712 1.0917358 2.438507 2.438507 2.438507l0 9.753723l0 0c-1.3467712 0 -2.438507 1.0917664 -2.438507 2.438507l-10.468536 0c0 -1.3467407 -1.0917664 -2.438507 -2.438507 -2.438507z" fill-rule="evenodd"/><path stroke="#000000" stroke-width="1.0" stroke-linejoin="round" stroke-linecap="butt" d="m415.1119 332.05484l0 0c1.3467407 0 2.438507 -1.0917358 2.438507 -2.438507l10.468536 0l0 0c0 1.3467712 1.0917358 2.438507 2.438507 2.438507l0 9.753723l0 0c-1.3467712 0 -2.438507 1.0917664 -2.438507 2.438507l-10.468536 0c0 -1.3467407 -1.0917664 -2.438507 -2.438507 -2.438507z" fill-rule="evenodd"/><path fill="#38761d" d="m424.06168 353.30182l0 0c1.3467712 0 2.438507 -1.0917664 2.438507 -2.438507l10.468536 0l0 0c0 1.3467407 1.0917664 2.438507 2.438507 2.438507l0 9.753723l0 0c-1.3467407 0 -2.438507 1.0917664 -2.438507 2.438507l-10.468536 0c0 -1.3467407 -1.0917358 -2.438507 -2.438507 -2.438507z" fill-rule="evenodd"/><path stroke="#000000" stroke-width="1.0" stroke-linejoin="round" stroke-linecap="butt" d="m424.06168 353.30182l0 0c1.3467712 0 2.438507 -1.0917664 2.438507 -2.438507l10.468536 0l0 0c0 1.3467407 1.0917664 2.438507 2.438507 2.438507l0 9.753723l0 0c-1.3467407 0 -2.438507 1.0917664 -2.438507 2.438507l-10.468536 0c0 -1.3467407 -1.0917358 -2.438507 -2.438507 -2.438507z" fill-rule="evenodd"/><path fill="#3d85c6" d="m448.9606 348.32938l0 0c1.2779236 0 2.3139038 -1.0359802 2.3139038 -2.3139038l15.5336 0l0 0c0 1.2779236 1.0359802 2.3139038 2.3139038 2.3139038l0 9.25531c-1.2779236 0 -2.3139038 1.0359802 -2.3139038 2.3139038l-15.5336 0c0 -1.2779236 -1.0359802 -2.3139038 -2.3139038 -2.3139038z" fill-rule="evenodd"/><path stroke="#000000" stroke-width="1.0" stroke-linejoin="round" stroke-linecap="butt" d="m448.9606 348.32938l0 0c1.2779236 0 2.3139038 -1.0359802 2.3139038 -2.3139038l15.5336 0l0 0c0 1.2779236 1.0359802 2.3139038 2.3139038 2.3139038l0 9.25531c-1.2779236 0 -2.3139038 1.0359802 -2.3139038 2.3139038l-15.5336 0c0 -1.2779236 -1.0359802 -2.3139038 -2.3139038 -2.3139038z" fill-rule="evenodd"/><path fill="#000000" fill-opacity="0.0" d="m53.920597 423.7868l10.692066 -44.142548l43.29039 -19.645294l43.290398 19.645294l10.692062 44.142548l-29.958267 35.39969l-48.048386 0z" fill-rule="evenodd"/><path stroke="#000000" stroke-width="2.0" stroke-linejoin="round" stroke-linecap="butt" stroke-dasharray="2.0,6.0" d="m53.920597 423.7868l10.692066 -44.142548l43.29039 -19.645294l43.290398 19.645294l10.692062 44.142548l-29.958267 35.39969l-48.048386 0z" fill-rule="evenodd"/><path fill="#c27ba0" d="m72.95817 391.04663l0 0c1.3467484 0 2.4384995 -1.0917664 2.4384995 -2.438507l10.468529 0l0 0c0 1.3467407 1.0917587 2.438507 2.438507 2.438507l0 9.753723l0 0c-1.3467484 0 -2.438507 1.0917664 -2.438507 2.438507l-10.468529 0c0 -1.3467407 -1.0917511 -2.438507 -2.4384995 -2.438507z" fill-rule="evenodd"/><path stroke="#000000" stroke-width="1.0" stroke-linejoin="round" stroke-linecap="butt" d="m72.95817 391.04663l0 0c1.3467484 0 2.4384995 -1.0917664 2.4384995 -2.438507l10.468529 0l0 0c0 1.3467407 1.0917587 2.438507 2.438507 2.438507l0 9.753723l0 0c-1.3467484 0 -2.438507 1.0917664 -2.438507 2.438507l-10.468529 0c0 -1.3467407 -1.0917511 -2.438507 -2.4384995 -2.438507z" fill-rule="evenodd"/><path fill="#4a86e8" d="m93.930115 375.1166l0 0c1.2779312 0 2.3138962 -1.0359497 2.3138962 -2.3138733l23.318092 0l0 0c0 1.2779236 1.035965 2.3138733 2.3138962 2.3138733l0 9.25531c-1.2779312 0 -2.3138962 1.0359802 -2.3138962 2.3139038l-23.318092 0c0 -1.2779236 -1.035965 -2.3139038 -2.3138962 -2.3139038z" fill-rule="evenodd"/><path stroke="#000000" stroke-width="1.0" stroke-linejoin="round" stroke-linecap="butt" d="m93.930115 375.1166l0 0c1.2779312 0 2.3138962 -1.0359497 2.3138962 -2.3138733l23.318092 0l0 0c0 1.2779236 1.035965 2.3138733 2.3138962 2.3138733l0 9.25531c-1.2779312 0 -2.3138962 1.0359802 -2.3138962 2.3139038l-23.318092 0c0 -1.2779236 -1.035965 -2.3139038 -2.3138962 -2.3139038z" fill-rule="evenodd"/><path fill="#ff00ff" d="m119.57295 392.90375l0 0c1.2779312 0 2.3138962 -1.0359802 2.3138962 -2.3139038l23.318092 0l0 0c0 1.2779236 1.035965 2.3139038 2.3139038 2.3139038l0 9.25531c-1.2779388 0 -2.3139038 1.0359497 -2.3139038 2.3139038l-23.318092 0c0 -1.2779541 -1.035965 -2.3139038 -2.3138962 -2.3139038z" fill-rule="evenodd"/><path stroke="#000000" stroke-width="1.0" stroke-linejoin="round" stroke-linecap="butt" d="m119.57295 392.90375l0 0c1.2779312 0 2.3138962 -1.0359802 2.3138962 -2.3139038l23.318092 0l0 0c0 1.2779236 1.035965 2.3139038 2.3139038 2.3139038l0 9.25531c-1.2779388 0 -2.3139038 1.0359497 -2.3139038 2.3139038l-23.318092 0c0 -1.2779541 -1.035965 -2.3139038 -2.3138962 -2.3139038z" fill-rule="evenodd"/><path fill="#00ff00" d="m66.65799 415.99603l0 0c1.2779312 0 2.3138962 -1.0359497 2.3138962 -2.3138733l23.318092 0l0 0c0 1.2779236 1.0359726 2.3138733 2.3138962 2.3138733l0 9.255341c-1.2779236 0 -2.3138962 1.0359497 -2.3138962 2.3138733l-23.318092 0c0 -1.2779236 -1.035965 -2.3138733 -2.3138962 -2.3138733z" fill-rule="evenodd"/><path stroke="#000000" stroke-width="1.0" stroke-linejoin="round" stroke-linecap="butt" d="m66.65799 415.99603l0 0c1.2779312 0 2.3138962 -1.0359497 2.3138962 -2.3138733l23.318092 0l0 0c0 1.2779236 1.0359726 2.3138733 2.3138962 2.3138733l0 9.255341c-1.2779236 0 -2.3138962 1.0359497 -2.3138962 2.3138733l-23.318092 0c0 -1.2779236 -1.035965 -2.3138733 -2.3138962 -2.3138733z" fill-rule="evenodd"/><path fill="#ff0000" d="m84.141174 440.44705l0 0c1.3467484 0 2.438507 -1.0917664 2.438507 -2.438507l39.527092 0l0 0c0 1.3467407 1.0917587 2.438507 2.4385147 2.438507l0 9.753723c-1.346756 0 -2.4385147 1.0917664 -2.4385147 2.438507l-39.527092 0l0 0c0 -1.3467407 -1.0917587 -2.438507 -2.438507 -2.438507z" fill-rule="evenodd"/><path stroke="#000000" stroke-width="1.0" stroke-linejoin="round" stroke-linecap="butt" d="m84.141174 440.44705l0 0c1.3467484 0 2.438507 -1.0917664 2.438507 -2.438507l39.527092 0l0 0c0 1.3467407 1.0917587 2.438507 2.4385147 2.438507l0 9.753723c-1.346756 0 -2.4385147 1.0917664 -2.4385147 2.438507l-39.527092 0l0 0c0 -1.3467407 -1.0917587 -2.438507 -2.438507 -2.438507z" fill-rule="evenodd"/><path fill="#00ffff" d="m96.99643 399.72153l0 0c1.3467484 0 2.4384995 -1.0917664 2.4384995 -2.438507l10.468529 0l0 0c0 1.3467407 1.0917587 2.438507 2.438507 2.438507l0 9.753723l0 0c-1.3467484 0 -2.438507 1.0917358 -2.438507 2.438507l-10.468529 0c0 -1.3467712 -1.0917511 -2.438507 -2.4384995 -2.438507z" fill-rule="evenodd"/><path stroke="#000000" stroke-width="1.0" stroke-linejoin="round" stroke-linecap="butt" d="m96.99643 399.72153l0 0c1.3467484 0 2.4384995 -1.0917664 2.4384995 -2.438507l10.468529 0l0 0c0 1.3467407 1.0917587 2.438507 2.438507 2.438507l0 9.753723l0 0c-1.3467484 0 -2.438507 1.0917358 -2.438507 2.438507l-10.468529 0c0 -1.3467712 -1.0917511 -2.438507 -2.4384995 -2.438507z" fill-rule="evenodd"/><path fill="#38761d" d="m105.9462 420.96848l0 0c1.3467484 0 2.438507 -1.0917664 2.438507 -2.438507l10.468529 0l0 0c0 1.3467407 1.0917511 2.438507 2.438507 2.438507l0 9.753723l0 0c-1.346756 0 -2.438507 1.0917664 -2.438507 2.438507l-10.468529 0c0 -1.3467407 -1.0917587 -2.438507 -2.438507 -2.438507z" fill-rule="evenodd"/><path stroke="#000000" stroke-width="1.0" stroke-linejoin="round" stroke-linecap="butt" d="m105.9462 420.96848l0 0c1.3467484 0 2.438507 -1.0917664 2.438507 -2.438507l10.468529 0l0 0c0 1.3467407 1.0917511 2.438507 2.438507 2.438507l0 9.753723l0 0c-1.346756 0 -2.438507 1.0917664 -2.438507 2.438507l-10.468529 0c0 -1.3467407 -1.0917587 -2.438507 -2.438507 -2.438507z" fill-rule="evenodd"/><path fill="#3d85c6" d="m130.84511 415.99603l0 0c1.2779236 0 2.3139038 -1.0359497 2.3139038 -2.3138733l15.533615 0l0 0c0 1.2779236 1.0359802 2.3138733 2.3139038 2.3138733l0 9.255341c-1.2779236 0 -2.3139038 1.0359497 -2.3139038 2.3138733l-15.533615 0c0 -1.2779236 -1.0359802 -2.3138733 -2.3139038 -2.3138733z" fill-rule="evenodd"/><path stroke="#000000" stroke-width="1.0" stroke-linejoin="round" stroke-linecap="butt" d="m130.84511 415.99603l0 0c1.2779236 0 2.3139038 -1.0359497 2.3139038 -2.3138733l15.533615 0l0 0c0 1.2779236 1.0359802 2.3138733 2.3139038 2.3138733l0 9.255341c-1.2779236 0 -2.3139038 1.0359497 -2.3139038 2.3138733l-15.533615 0c0 -1.2779236 -1.0359802 -2.3138733 -2.3139038 -2.3138733z" fill-rule="evenodd"/><path fill="#000000" fill-opacity="0.0" d="m144.9206 284.03613l10.692062 -44.142532l43.290405 -19.645294l43.29039 19.645294l10.692062 44.142532l-29.958267 35.39972l-48.048386 0z" fill-rule="evenodd"/><path stroke="#000000" stroke-width="2.0" stroke-linejoin="round" stroke-linecap="butt" stroke-dasharray="2.0,6.0" d="m144.9206 284.03613l10.692062 -44.142532l43.290405 -19.645294l43.29039 19.645294l10.692062 44.142532l-29.958267 35.39972l-48.048386 0z" fill-rule="evenodd"/><path fill="#c27ba0" d="m163.95816 251.29597l0 0c1.346756 0 2.438507 -1.0917511 2.438507 -2.438507l10.468521 0l0 0c0 1.346756 1.0917664 2.438507 2.438507 2.438507l0 9.753738l0 0c-1.3467407 0 -2.438507 1.0917358 -2.438507 2.438507l-10.468521 0c0 -1.3467712 -1.0917511 -2.438507 -2.438507 -2.438507z" fill-rule="evenodd"/><path stroke="#000000" stroke-width="1.0" stroke-linejoin="round" stroke-linecap="butt" d="m163.95816 251.29597l0 0c1.346756 0 2.438507 -1.0917511 2.438507 -2.438507l10.468521 0l0 0c0 1.346756 1.0917664 2.438507 2.438507 2.438507l0 9.753738l0 0c-1.3467407 0 -2.438507 1.0917358 -2.438507 2.438507l-10.468521 0c0 -1.3467712 -1.0917511 -2.438507 -2.438507 -2.438507z" fill-rule="evenodd"/><path fill="#4a86e8" d="m184.93011 235.36597l0 0c1.2779236 0 2.3138885 -1.0359802 2.3138885 -2.3139038l23.3181 0l0 0c0 1.2779236 1.035965 2.3139038 2.3139038 2.3139038l0 9.25531c-1.2779388 0 -2.3139038 1.035965 -2.3139038 2.3139038l-23.3181 0c0 -1.2779388 -1.035965 -2.3139038 -2.3138885 -2.3139038z" fill-rule="evenodd"/><path stroke="#000000" stroke-width="1.0" stroke-linejoin="round" stroke-linecap="butt" d="m184.93011 235.36597l0 0c1.2779236 0 2.3138885 -1.0359802 2.3138885 -2.3139038l23.3181 0l0 0c0 1.2779236 1.035965 2.3139038 2.3139038 2.3139038l0 9.25531c-1.2779388 0 -2.3139038 1.035965 -2.3139038 2.3139038l-23.3181 0c0 -1.2779388 -1.035965 -2.3139038 -2.3138885 -2.3139038z" fill-rule="evenodd"/><path fill="#ff00ff" d="m210.57295 253.15308l0 0c1.2779388 0 2.3139038 -1.035965 2.3139038 -2.3138885l23.318085 0l0 0c0 1.2779236 1.035965 2.3138885 2.3139038 2.3138885l0 9.25531c-1.2779388 0 -2.3139038 1.0359802 -2.3139038 2.3139038l-23.318085 0c0 -1.2779236 -1.035965 -2.3139038 -2.3139038 -2.3139038z" fill-rule="evenodd"/><path stroke="#000000" stroke-width="1.0" stroke-linejoin="round" stroke-linecap="butt" d="m210.57295 253.15308l0 0c1.2779388 0 2.3139038 -1.035965 2.3139038 -2.3138885l23.318085 0l0 0c0 1.2779236 1.035965 2.3138885 2.3139038 2.3138885l0 9.25531c-1.2779388 0 -2.3139038 1.0359802 -2.3139038 2.3139038l-23.318085 0c0 -1.2779236 -1.035965 -2.3139038 -2.3139038 -2.3139038z" fill-rule="evenodd"/><path fill="#00ff00" d="m157.65799 276.2454l0 0c1.2779236 0 2.3139038 -1.0359802 2.3139038 -2.3139038l23.318085 0l0 0c0 1.2779236 1.035965 2.3139038 2.3139038 2.3139038l0 9.25531c-1.2779388 0 -2.3139038 1.0359802 -2.3139038 2.3139038l-23.318085 0c0 -1.2779236 -1.0359802 -2.3139038 -2.3139038 -2.3139038z" fill-rule="evenodd"/><path stroke="#000000" stroke-width="1.0" stroke-linejoin="round" stroke-linecap="butt" d="m157.65799 276.2454l0 0c1.2779236 0 2.3139038 -1.0359802 2.3139038 -2.3139038l23.318085 0l0 0c0 1.2779236 1.035965 2.3139038 2.3139038 2.3139038l0 9.25531c-1.2779388 0 -2.3139038 1.0359802 -2.3139038 2.3139038l-23.318085 0c0 -1.2779236 -1.0359802 -2.3139038 -2.3139038 -2.3139038z" fill-rule="evenodd"/><path fill="#ff0000" d="m175.14117 300.69638l0 0c1.346756 0 2.438507 -1.0917358 2.438507 -2.438507l39.5271 0l0 0c0 1.3467712 1.0917511 2.438507 2.438507 2.438507l0 9.753723c-1.346756 0 -2.438507 1.0917664 -2.438507 2.438507l-39.5271 0l0 0c0 -1.3467407 -1.0917511 -2.438507 -2.438507 -2.438507z" fill-rule="evenodd"/><path stroke="#000000" stroke-width="1.0" stroke-linejoin="round" stroke-linecap="butt" d="m175.14117 300.69638l0 0c1.346756 0 2.438507 -1.0917358 2.438507 -2.438507l39.5271 0l0 0c0 1.3467712 1.0917511 2.438507 2.438507 2.438507l0 9.753723c-1.346756 0 -2.438507 1.0917664 -2.438507 2.438507l-39.5271 0l0 0c0 -1.3467407 -1.0917511 -2.438507 -2.438507 -2.438507z" fill-rule="evenodd"/><path fill="#00ffff" d="m187.99643 259.97086l0 0c1.3467407 0 2.438507 -1.0917664 2.438507 -2.438507l10.468521 0l0 0c0 1.3467407 1.0917511 2.438507 2.438507 2.438507l0 9.753723l0 0c-1.346756 0 -2.438507 1.0917664 -2.438507 2.438507l-10.468521 0c0 -1.3467407 -1.0917664 -2.438507 -2.438507 -2.438507z" fill-rule="evenodd"/><path stroke="#000000" stroke-width="1.0" stroke-linejoin="round" stroke-linecap="butt" d="m187.99643 259.97086l0 0c1.3467407 0 2.438507 -1.0917664 2.438507 -2.438507l10.468521 0l0 0c0 1.3467407 1.0917511 2.438507 2.438507 2.438507l0 9.753723l0 0c-1.346756 0 -2.438507 1.0917664 -2.438507 2.438507l-10.468521 0c0 -1.3467407 -1.0917664 -2.438507 -2.438507 -2.438507z" fill-rule="evenodd"/><path fill="#38761d" d="m196.9462 281.21783l0 0c1.346756 0 2.438507 -1.0917664 2.438507 -2.438507l10.468521 0l0 0c0 1.3467407 1.0917664 2.438507 2.438507 2.438507l0 9.753723l0 0c-1.3467407 0 -2.438507 1.0917358 -2.438507 2.438507l-10.468521 0c0 -1.3467712 -1.0917511 -2.438507 -2.438507 -2.438507z" fill-rule="evenodd"/><path stroke="#000000" stroke-width="1.0" stroke-linejoin="round" stroke-linecap="butt" d="m196.9462 281.21783l0 0c1.346756 0 2.438507 -1.0917664 2.438507 -2.438507l10.468521 0l0 0c0 1.3467407 1.0917664 2.438507 2.438507 2.438507l0 9.753723l0 0c-1.3467407 0 -2.438507 1.0917358 -2.438507 2.438507l-10.468521 0c0 -1.3467712 -1.0917511 -2.438507 -2.438507 -2.438507z" fill-rule="evenodd"/><path fill="#3d85c6" d="m221.84511 276.2454l0 0c1.2779236 0 2.3139038 -1.0359802 2.3139038 -2.3139038l15.533615 0l0 0c0 1.2779236 1.0359802 2.3139038 2.3139038 2.3139038l0 9.25531c-1.2779236 0 -2.3139038 1.0359802 -2.3139038 2.3139038l-15.533615 0c0 -1.2779236 -1.0359802 -2.3139038 -2.3139038 -2.3139038z" fill-rule="evenodd"/><path stroke="#000000" stroke-width="1.0" stroke-linejoin="round" stroke-linecap="butt" d="m221.84511 276.2454l0 0c1.2779236 0 2.3139038 -1.0359802 2.3139038 -2.3139038l15.533615 0l0 0c0 1.2779236 1.0359802 2.3139038 2.3139038 2.3139038l0 9.25531c-1.2779236 0 -2.3139038 1.0359802 -2.3139038 2.3139038l-15.533615 0c0 -1.2779236 -1.0359802 -2.3139038 -2.3139038 -2.3139038z" fill-rule="evenodd"/><path fill="#000000" fill-opacity="0.0" d="m39.721123 149.79204l10.692062 -44.14254l43.290398 -19.645287l43.29039 19.645287l10.692062 44.14254l-29.95826 35.399704l-48.048393 0z" fill-rule="evenodd"/><path stroke="#000000" stroke-width="2.0" stroke-linejoin="round" stroke-linecap="butt" stroke-dasharray="2.0,6.0" d="m39.721123 149.79204l10.692062 -44.14254l43.290398 -19.645287l43.29039 19.645287l10.692062 44.14254l-29.95826 35.399704l-48.048393 0z" fill-rule="evenodd"/><path fill="#c27ba0" d="m58.75869 117.05188l0 0c1.3467484 0 2.4385033 -1.0917511 2.4385033 -2.438507l10.468525 0l0 0c0 1.346756 1.0917587 2.438507 2.438507 2.438507l0 9.753731l0 0c-1.3467484 0 -2.438507 1.0917587 -2.438507 2.4384995l-10.468525 0c0 -1.3467407 -1.0917549 -2.4384995 -2.4385033 -2.4384995z" fill-rule="evenodd"/><path stroke="#000000" stroke-width="1.0" stroke-linejoin="round" stroke-linecap="butt" d="m58.75869 117.05188l0 0c1.3467484 0 2.4385033 -1.0917511 2.4385033 -2.438507l10.468525 0l0 0c0 1.346756 1.0917587 2.438507 2.438507 2.438507l0 9.753731l0 0c-1.3467484 0 -2.438507 1.0917587 -2.438507 2.4384995l-10.468525 0c0 -1.3467407 -1.0917549 -2.4384995 -2.4385033 -2.4384995z" fill-rule="evenodd"/><path fill="#4a86e8" d="m79.73064 101.121864l0 0c1.2779312 0 2.3138962 -1.035965 2.3138962 -2.3138962l23.318092 0l0 0c0 1.2779312 1.0359726 2.3138962 2.3139038 2.3138962l0 9.255318c-1.2779312 0 -2.3139038 1.035965 -2.3139038 2.3138962l-23.318092 0c0 -1.2779312 -1.035965 -2.3138962 -2.3138962 -2.3138962z" fill-rule="evenodd"/><path stroke="#000000" stroke-width="1.0" stroke-linejoin="round" stroke-linecap="butt" d="m79.73064 101.121864l0 0c1.2779312 0 2.3138962 -1.035965 2.3138962 -2.3138962l23.318092 0l0 0c0 1.2779312 1.0359726 2.3138962 2.3139038 2.3138962l0 9.255318c-1.2779312 0 -2.3139038 1.035965 -2.3139038 2.3138962l-23.318092 0c0 -1.2779312 -1.035965 -2.3138962 -2.3138962 -2.3138962z" fill-rule="evenodd"/><path fill="#ff00ff" d="m105.37348 118.90898l0 0c1.2779312 0 2.3138962 -1.035965 2.3138962 -2.3138962l23.318085 0l0 0c0 1.2779312 1.0359802 2.3138962 2.3139038 2.3138962l0 9.255325c-1.2779236 0 -2.3139038 1.035965 -2.3139038 2.3138885l-23.318085 0c0 -1.2779236 -1.035965 -2.3138885 -2.3138962 -2.3138885z" fill-rule="evenodd"/><path stroke="#000000" stroke-width="1.0" stroke-linejoin="round" stroke-linecap="butt" d="m105.37348 118.90898l0 0c1.2779312 0 2.3138962 -1.035965 2.3138962 -2.3138962l23.318085 0l0 0c0 1.2779312 1.0359802 2.3138962 2.3139038 2.3138962l0 9.255325c-1.2779236 0 -2.3139038 1.035965 -2.3139038 2.3138885l-23.318085 0c0 -1.2779236 -1.035965 -2.3138885 -2.3138962 -2.3138885z" fill-rule="evenodd"/><path fill="#00ff00" d="m52.45851 142.0013l0 0c1.2779312 0 2.3139 -1.035965 2.3139 -2.3139038l23.318096 0l0 0c0 1.2779388 1.035965 2.3139038 2.3138962 2.3139038l0 9.25531c-1.2779312 0 -2.3138962 1.035965 -2.3138962 2.3139038l-23.318096 0c0 -1.2779388 -1.0359688 -2.3139038 -2.3139 -2.3139038z" fill-rule="evenodd"/><path stroke="#000000" stroke-width="1.0" stroke-linejoin="round" stroke-linecap="butt" d="m52.45851 142.0013l0 0c1.2779312 0 2.3139 -1.035965 2.3139 -2.3139038l23.318096 0l0 0c0 1.2779388 1.035965 2.3139038 2.3138962 2.3139038l0 9.25531c-1.2779312 0 -2.3138962 1.035965 -2.3138962 2.3139038l-23.318096 0c0 -1.2779388 -1.0359688 -2.3139038 -2.3139 -2.3139038z" fill-rule="evenodd"/><path fill="#ff0000" d="m69.941696 166.45229l0 0c1.346756 0 2.438507 -1.0917511 2.438507 -2.438507l39.5271 0l0 0c0 1.346756 1.0917511 2.438507 2.438507 2.438507l0 9.753738c-1.346756 0 -2.438507 1.0917511 -2.438507 2.438507l-39.5271 0l0 0c0 -1.346756 -1.0917511 -2.438507 -2.438507 -2.438507z" fill-rule="evenodd"/><path stroke="#000000" stroke-width="1.0" stroke-linejoin="round" stroke-linecap="butt" d="m69.941696 166.45229l0 0c1.346756 0 2.438507 -1.0917511 2.438507 -2.438507l39.5271 0l0 0c0 1.346756 1.0917511 2.438507 2.438507 2.438507l0 9.753738c-1.346756 0 -2.438507 1.0917511 -2.438507 2.438507l-39.5271 0l0 0c0 -1.346756 -1.0917511 -2.438507 -2.438507 -2.438507z" fill-rule="evenodd"/><path fill="#00ffff" d="m82.79695 125.72676l0 0c1.3467484 0 2.438507 -1.0917511 2.438507 -2.4384995l10.468521 0l0 0c0 1.3467484 1.0917587 2.4384995 2.438507 2.4384995l0 9.753738l0 0c-1.3467484 0 -2.438507 1.0917511 -2.438507 2.4384918l-10.468521 0c0 -1.3467407 -1.0917587 -2.4384918 -2.438507 -2.4384918z" fill-rule="evenodd"/><path stroke="#000000" stroke-width="1.0" stroke-linejoin="round" stroke-linecap="butt" d="m82.79695 125.72676l0 0c1.3467484 0 2.438507 -1.0917511 2.438507 -2.4384995l10.468521 0l0 0c0 1.3467484 1.0917587 2.4384995 2.438507 2.4384995l0 9.753738l0 0c-1.3467484 0 -2.438507 1.0917511 -2.438507 2.4384918l-10.468521 0c0 -1.3467407 -1.0917587 -2.4384918 -2.438507 -2.4384918z" fill-rule="evenodd"/><path fill="#38761d" d="m91.74673 146.97372l0 0c1.3467484 0 2.438507 -1.0917511 2.438507 -2.438507l10.468521 0l0 0c0 1.346756 1.0917587 2.438507 2.438507 2.438507l0 9.753738l0 0c-1.3467484 0 -2.438507 1.0917511 -2.438507 2.4384918l-10.468521 0c0 -1.3467407 -1.0917587 -2.4384918 -2.438507 -2.4384918z" fill-rule="evenodd"/><path stroke="#000000" stroke-width="1.0" stroke-linejoin="round" stroke-linecap="butt" d="m91.74673 146.97372l0 0c1.3467484 0 2.438507 -1.0917511 2.438507 -2.438507l10.468521 0l0 0c0 1.346756 1.0917587 2.438507 2.438507 2.438507l0 9.753738l0 0c-1.3467484 0 -2.438507 1.0917511 -2.438507 2.4384918l-10.468521 0c0 -1.3467407 -1.0917587 -2.4384918 -2.438507 -2.4384918z" fill-rule="evenodd"/><path fill="#3d85c6" d="m116.64563 142.0013l0 0c1.2779312 0 2.3139038 -1.035965 2.3139038 -2.3139038l15.53363 0l0 0c0 1.2779388 1.035965 2.3139038 2.3138885 2.3139038l0 9.25531c-1.2779236 0 -2.3138885 1.035965 -2.3138885 2.3139038l-15.53363 0c0 -1.2779388 -1.0359726 -2.3139038 -2.3139038 -2.3139038z" fill-rule="evenodd"/><path stroke="#000000" stroke-width="1.0" stroke-linejoin="round" stroke-linecap="butt" d="m116.64563 142.0013l0 0c1.2779312 0 2.3139038 -1.035965 2.3139038 -2.3139038l15.53363 0l0 0c0 1.2779388 1.035965 2.3139038 2.3138885 2.3139038l0 9.25531c-1.2779236 0 -2.3138885 1.035965 -2.3138885 2.3139038l-15.53363 0c0 -1.2779388 -1.0359726 -2.3139038 -2.3139038 -2.3139038z" fill-rule="evenodd"/></g></svg>