<svg version="1.1" viewBox="0.0 0.0 959.0866141732283 559.3910761154856" fill="none" stroke="none" stroke-linecap="square" stroke-miterlimit="10" xmlns:xlink="http://www.w3.org/1999/xlink" xmlns="http://www.w3.org/2000/svg"><clipPath id="p.0"><path d="m0 0l959.0866 0l0 559.39105l-959.0866 0l0 -559.39105z" clip-rule="nonzero"/></clipPath><g clip-path="url(#p.0)"><path fill="#000000" fill-opacity="0.0" d="m0 0l959.0866 0l0 559.39105l-959.0866 0z" fill-rule="evenodd"/><path fill="#000000" fill-opacity="0.0" d="m10.860892 10.509187l283.68503 0l0 534.2677l-283.68503 0z" fill-rule="evenodd"/><path stroke="#000000" stroke-width="1.0" stroke-linejoin="round" stroke-linecap="butt" stroke-dasharray="1.0,3.0" d="m10.860892 10.509187l283.68503 0l0 534.2677l-283.68503 0z" fill-rule="evenodd"/><path fill="#000000" d="m24.204643 41.03106q0 1.5 0.78125 2.234375q0.796875 0.71875 2.265625 0.71875q2.125 0 4.15625 -2.5l0 -6.484375l-2.21875 0l0 -1.453125l3.65625 0l0 10.09375l2.1875 0l0 1.46875l-3.625 0l0 -1.78125q-1.15625 1.09375 -2.171875 1.59375q-1.0 0.5 -2.28125 0.5q-1.953125 0 -3.078125 -0.984375q-1.109375 -1.0 -1.109375 -2.71875l0 -6.71875l-2.21875 0l0 -1.453125l3.65625 0l0 7.484375zm23.321823 -6.765625l0 -1.078125l1.4375 0l0 4.21875l-1.4375 0l0 -1.578125q-0.90625 -0.5625 -1.96875 -0.859375q-1.046875 -0.3125 -2.078125 -0.3125q-1.515625 0 -2.515625 0.53125q-0.984375 0.53125 -0.984375 1.46875q0 0.984375 1.125 1.46875q1.140625 0.484375 3.84375 0.5q1.8125 0.03125 2.828125 0.390625q1.03125 0.34375 1.421875 0.96875q0.40625 0.625 0.40625 1.640625q0 1.71875 -1.421875 2.765625q-1.40625 1.03125 -3.640625 1.03125q-1.21875 0 -2.296875 -0.25q-1.0625 -0.25 -2.453125 -0.9375l0 1.1875l-1.453125 0l0 -4.53125l1.453125 0l0 1.578125q1.953125 1.5 4.4375 1.5q1.75 0 2.828125 -0.578125q1.078125 -0.578125 1.078125 -1.609375q0 -0.71875 -0.40625 -1.078125q-0.40625 -0.359375 -1.046875 -0.453125q-0.625 -0.09375 -1.8125 -0.15625l-1.171875 -0.078125q-1.546875 -0.109375 -2.578125 -0.3125q-1.03125 -0.21875 -1.8125 -0.875q-0.765625 -0.65625 -0.765625 -1.921875q0 -1.6875 1.3125 -2.703125q1.328125 -1.015625 3.546875 -1.015625q2.390625 0 4.125 1.078125zm16.556198 4.953125l-8.53125 0l0 -1.46875l8.53125 0l0 1.46875zm8.774948 -4.21875l-1.953125 0l2.296875 8.03125l2.234375 -7.25l1.25 0l2.296875 7.296875l2.234375 -8.078125l-1.890625 0l0 -1.453125l4.21875 0l0 1.453125l-0.9375 0l-2.796875 10.109375l-1.625 0l-2.109375 -6.6875l-2.109375 6.6875l-1.671875 0l-2.875 -10.109375l-0.90625 0l0 -1.453125l4.34375 0l0 1.453125zm25.103073 4.515625l-10.921875 0q0.015625 1.828125 1.140625 3.15625q1.140625 1.3125 3.921875 1.3125q1.203125 0 2.6875 -0.4375q1.5 -0.4375 2.875 -1.203125l0.453125 1.40625q-1.484375 0.796875 -3.078125 1.234375q-1.578125 0.4375 -3.015625 0.4375q-3.0625 0 -4.796875 -1.65625q-1.71875 -1.671875 -1.71875 -4.4375q0 -1.796875 0.84375 -3.1875q0.84375 -1.40625 2.296875 -2.171875q1.453125 -0.78125 3.234375 -0.78125q2.828125 0 4.4375 1.6875q1.609375 1.671875 1.640625 4.640625zm-6.09375 -4.828125q-1.90625 0 -3.21875 0.9375q-1.296875 0.921875 -1.5625 2.421875l9.3125 0q-0.171875 -1.4375 -1.40625 -2.390625q-1.21875 -0.96875 -3.125 -0.96875zm19.634323 -0.421875l0 -1.078125l1.4375 0l0 4.21875l-1.4375 0l0 -1.578125q-0.90625 -0.5625 -1.96875 -0.859375q-1.046875 -0.3125 -2.078125 -0.3125q-1.515625 0 -2.515625 0.53125q-0.984375 0.53125 -0.984375 1.46875q0 0.984375 1.125 1.46875q1.140625 0.484375 3.84375 0.5q1.8125 0.03125 2.828125 0.390625q1.03125 0.34375 1.421875 0.96875q0.40625 0.625 0.40625 1.640625q0 1.71875 -1.421875 2.765625q-1.40625 1.03125 -3.640625 1.03125q-1.21875 0 -2.296875 -0.25q-1.0625 -0.25 -2.453125 -0.9375l0 1.1875l-1.453125 0l0 -4.53125l1.453125 0l0 1.578125q1.953125 1.5 4.4375 1.5q1.75 0 2.828125 -0.578125q1.078125 -0.578125 1.078125 -1.609375q0 -0.71875 -0.40625 -1.078125q-0.40625 -0.359375 -1.046875 -0.453125q-0.625 -0.09375 -1.8125 -0.15625l-1.171875 -0.078125q-1.546875 -0.109375 -2.578125 -0.3125q-1.03125 -0.21875 -1.8125 -0.875q-0.765625 -0.65625 -0.765625 -1.921875q0 -1.6875 1.3125 -2.703125q1.328125 -1.015625 3.546875 -1.015625q2.390625 0 4.125 1.078125zm9.571823 -4.15625l0 3.4375l6.875 0l0 1.453125l-6.875 0l0 6.375q0 1.390625 0.796875 2.0q0.796875 0.59375 2.328125 0.59375q0.875 0 1.859375 -0.265625q0.984375 -0.265625 3.3281174 -1.203125l0.171875 1.4375q-1.8124924 0.796875 -3.1718674 1.140625q-1.34375 0.34375 -2.484375 0.34375q-1.953125 0 -3.109375 -0.90625q-1.15625 -0.921875 -1.15625 -2.5l0 -7.015625l-1.890625 0l0 -1.453125l1.890625 0l0 -3.4375l1.4375 0zm23.478065 3.9375q0 1.046875 -0.28125 1.796875q-0.265625 0.734375 -1.09375 1.65625q-0.828125 0.921875 -2.53125 2.3125l-4.71875 3.828125l7.1875 0l0 -1.890625l1.4375 0l0 3.359375l-10.734375 0l0 -1.578125l5.9375 -4.65625q2.109375 -1.65625 2.75 -2.640625q0.640625 -0.984375 0.640625 -1.84375q0 -1.46875 -1.09375 -2.4375q-1.09375 -0.96875 -2.75 -0.96875q-1.40625 0 -2.40625 0.703125q-1.0 0.6875 -1.03125 1.859375l-1.4375 0l0 -1.90625q2.03125 -2.09375 4.984375 -2.09375q1.390625 0 2.578125 0.609375q1.1875 0.609375 1.875 1.65625q0.6875 1.03125 0.6875 2.234375z" fill-rule="nonzero"/><path fill="#000000" fill-opacity="0.0" d="m333.75192 10.509187l283.68503 0l0 534.2677l-283.68503 0z" fill-rule="evenodd"/><path stroke="#000000" stroke-width="1.0" stroke-linejoin="round" stroke-linecap="butt" stroke-dasharray="1.0,3.0" d="m333.75192 10.509187l283.68503 0l0 534.2677l-283.68503 0z" fill-rule="evenodd"/><path fill="#000000" d="m347.09567 41.03106q0 1.5 0.78125 2.234375q0.796875 0.71875 2.265625 0.71875q2.125 0 4.15625 -2.5l0 -6.484375l-2.21875 0l0 -1.453125l3.65625 0l0 10.09375l2.1875 0l0 1.46875l-3.625 0l0 -1.78125q-1.15625 1.09375 -2.171875 1.59375q-1.0 0.5 -2.28125 0.5q-1.953125 0 -3.078125 -0.984375q-1.109375 -1.0 -1.109375 -2.71875l0 -6.71875l-2.21875 0l0 -1.453125l3.65625 0l0 7.484375zm23.321838 -6.765625l0 -1.078125l1.4375 0l0 4.21875l-1.4375 0l0 -1.578125q-0.90625 -0.5625 -1.96875 -0.859375q-1.046875 -0.3125 -2.078125 -0.3125q-1.515625 0 -2.515625 0.53125q-0.984375 0.53125 -0.984375 1.46875q0 0.984375 1.125 1.46875q1.140625 0.484375 3.84375 0.5q1.8125 0.03125 2.828125 0.390625q1.03125 0.34375 1.421875 0.96875q0.40625 0.625 0.40625 1.640625q0 1.71875 -1.421875 2.765625q-1.40625 1.03125 -3.640625 1.03125q-1.21875 0 -2.296875 -0.25q-1.0625 -0.25 -2.453125 -0.9375l0 1.1875l-1.453125 0l0 -4.53125l1.453125 0l0 1.578125q1.953125 1.5 4.4375 1.5q1.75 0 2.828125 -0.578125q1.078125 -0.578125 1.078125 -1.609375q0 -0.71875 -0.40625 -1.078125q-0.40625 -0.359375 -1.046875 -0.453125q-0.625 -0.09375 -1.8125 -0.15625l-1.171875 -0.078125q-1.546875 -0.109375 -2.578125 -0.3125q-1.03125 -0.21875 -1.8125 -0.875q-0.765625 -0.65625 -0.765625 -1.921875q0 -1.6875 1.3125 -2.703125q1.328125 -1.015625 3.546875 -1.015625q2.390625 0 4.125 1.078125zm16.556183 4.953125l-8.53125 0l0 -1.46875l8.53125 0l0 1.46875zm16.181213 -4.75l0 -1.28125l1.46875 0l0 4.671875l-1.46875 0l0 -1.84375q-1.625 -1.328125 -4.078125 -1.328125q-1.40625 0 -2.546875 0.609375q-1.125 0.609375 -1.765625 1.65625q-0.640625 1.03125 -0.640625 2.296875q0 1.28125 0.609375 2.359375q0.609375 1.078125 1.8125 1.734375q1.203125 0.640625 2.875 0.640625q1.15625 0 2.46875 -0.578125q1.3125 -0.59375 2.4375 -1.546875l0.59375 1.46875q-2.75 2.09375 -5.953125 2.09375q-1.78125 0 -3.21875 -0.796875q-1.4375 -0.796875 -2.265625 -2.21875q-0.828125 -1.421875 -0.828125 -3.234375q0 -1.53125 0.78125 -2.890625q0.78125 -1.375 2.203125 -2.234375q1.4375 -0.859375 3.25 -0.859375q1.328125 0 2.234375 0.28125q0.90625 0.28125 2.03125 1.0zm17.696808 5.046875l-10.921875 0q0.015625 1.828125 1.140625 3.15625q1.140625 1.3125 3.921875 1.3125q1.203125 0 2.6875 -0.4375q1.5 -0.4375 2.875 -1.203125l0.453125 1.40625q-1.484375 0.796875 -3.078125 1.234375q-1.578125 0.4375 -3.015625 0.4375q-3.0625 0 -4.796875 -1.65625q-1.71875 -1.671875 -1.71875 -4.4375q0 -1.796875 0.84375 -3.1875q0.84375 -1.40625 2.296875 -2.171875q1.453125 -0.78125 3.234375 -0.78125q2.828125 0 4.4375 1.6875q1.609375 1.671875 1.640625 4.640625zm-6.09375 -4.828125q-1.90625 0 -3.21875 0.9375q-1.296875 0.921875 -1.5625 2.421875l9.3125 0q-0.171875 -1.4375 -1.40625 -2.390625q-1.21875 -0.96875 -3.125 -0.96875zm21.134338 2.03125l0 6.921875l2.1875 0l0 1.46875l-5.8125 0l0 -1.46875l2.1875 0l0 -6.875q0 -0.984375 -0.671875 -1.546875q-0.671875 -0.5625 -1.96875 -0.5625q-1.15625 0 -2.4375 0.625q-1.265625 0.625 -2.125 1.53125l0 6.828125l2.21875 0l0 1.46875l-5.875 0l0 -1.46875l2.21875 0l0 -8.609375l-2.21875 0l0 -1.484375l3.65625 0l0 1.671875q1.09375 -0.984375 2.375 -1.5q1.296875 -0.53125 2.609375 -0.53125q3.65625 0 3.65625 3.53125zm8.071808 -6.609375l0 3.4375l6.875 0l0 1.453125l-6.875 0l0 6.375q0 1.390625 0.796875 2.0q0.796875 0.59375 2.328125 0.59375q0.875 0 1.859375 -0.265625q0.984375 -0.265625 3.328125 -1.203125l0.171875 1.4375q-1.8125 0.796875 -3.171875 1.140625q-1.34375 0.34375 -2.484375 0.34375q-1.953125 0 -3.109375 -0.90625q-1.15625 -0.921875 -1.15625 -2.5l0 -7.015625l-1.890625 0l0 -1.453125l1.890625 0l0 -3.4375l1.4375 0zm25.884338 5.453125l-1.4375 0.140625q-0.109375 -0.5625 -0.453125 -0.8125q-0.328125 -0.25 -1.015625 -0.25q-1.03125 0 -2.125 0.75q-1.09375 0.734375 -3.34375 2.890625l0 5.359375l5.171875 0l0 1.46875l-9.96875 0l0 -1.46875l3.328125 0l0 -8.640625l-3.328125 0l0 -1.453125l4.796875 0l0 3.078125l1.3125 -1.171875q1.40625 -1.265625 2.46875 -1.765625q1.078125 -0.5 2.171875 -0.5q1.09375 0 1.671875 0.578125q0.59375 0.578125 0.75 1.796875zm13.384308 1.515625l0 6.5625l2.1875 0l0 1.46875l-3.609375 0l0 -2.234375q-2.625 2.546875 -5.328125 2.546875q-1.203125 0 -2.171875 -0.484375q-0.96875 -0.5 -1.515625 -1.3125q-0.546875 -0.828125 -0.546875 -1.796875q0 -1.03125 0.65625 -1.921875q0.671875 -0.90625 1.984375 -1.4375q1.328125 -0.53125 3.140625 -0.53125q1.359375 0 3.765625 0.375l0 -0.90625q0 -1.515625 -0.828125 -2.109375q-0.828125 -0.609375 -2.59375 -0.609375q-1.03125 0 -2.28125 0.3125q-1.234375 0.296875 -2.296875 0.8125l-0.375 -1.453125q2.875 -1.171875 5.203125 -1.171875q2.203125 0 3.40625 0.96875q1.203125 0.953125 1.203125 2.921875zm-6.71875 6.890625q2.875 0 5.28125 -2.859375l0 -1.328125q-2.0 -0.34375 -3.734375 -0.34375q-2.328125 0 -3.328125 0.71875q-1.0 0.71875 -1.0 1.703125q0 0.828125 0.828125 1.46875q0.828125 0.640625 1.953125 0.640625zm18.899963 -0.328125l4.640625 0l0 1.46875l-10.78125 0l0 -1.46875l4.671875 0l0 -13.78125l-4.53125 0l0 -1.46875l6.0 0l0 15.25zm18.946808 -9.9375q0 1.171875 -0.453125 1.984375q-0.453125 0.8125 -1.625 1.609375q1.421875 0.34375 2.203125 1.3125q0.78125 0.953125 0.78125 2.390625q0 1.34375 -0.71875 2.34375q-0.71875 1.0 -1.953125 1.546875q-1.21875 0.53125 -2.65625 0.53125q-2.40625 0 -5.09375 -1.171875l0.375 -1.25q2.609375 0.96875 4.421875 0.96875q1.875 0 3.046875 -0.859375q1.171875 -0.859375 1.171875 -2.15625q0 -1.09375 -1.0 -1.921875q-1.0 -0.828125 -3.234375 -0.828125l-0.703125 0l0 -1.46875q1.890625 0 2.9375 -0.84375q1.0625 -0.859375 1.0625 -2.140625q0 -1.203125 -0.90625 -1.984375q-0.90625 -0.78125 -2.421875 -0.78125q-1.8125 0 -3.921875 1.25l-0.484375 -1.171875q2.34375 -1.515625 4.78125 -1.515625q1.171875 0 2.171875 0.515625q1.015625 0.515625 1.609375 1.46875q0.609375 0.9375 0.609375 2.171875z" fill-rule="nonzero"/><path fill="#000000" fill-opacity="0.0" d="m660.78876 10.509187l283.685 0l0 534.2677l-283.685 0z" fill-rule="evenodd"/><path stroke="#000000" stroke-width="1.0" stroke-linejoin="round" stroke-linecap="butt" stroke-dasharray="1.0,3.0" d="m660.78876 10.509187l283.685 0l0 534.2677l-283.685 0z" fill-rule="evenodd"/><path fill="#000000" d="m674.1325 41.03106q0 1.5 0.78125 2.234375q0.796875 0.71875 2.265625 0.71875q2.125 0 4.15625 -2.5l0 -6.484375l-2.21875 0l0 -1.453125l3.65625 0l0 10.09375l2.1875 0l0 1.46875l-3.625 0l0 -1.78125q-1.15625 1.09375 -2.171875 1.59375q-1.0 0.5 -2.28125 0.5q-1.953125 0 -3.078125 -0.984375q-1.109375 -1.0 -1.109375 -2.71875l0 -6.71875l-2.21875 0l0 -1.453125l3.65625 0l0 7.484375zm23.321777 -6.765625l0 -1.078125l1.4375 0l0 4.21875l-1.4375 0l0 -1.578125q-0.90625 -0.5625 -1.96875 -0.859375q-1.046875 -0.3125 -2.078125 -0.3125q-1.515625 0 -2.515625 0.53125q-0.984375 0.53125 -0.984375 1.46875q0 0.984375 1.125 1.46875q1.140625 0.484375 3.84375 0.5q1.8125 0.03125 2.828125 0.390625q1.03125 0.34375 1.421875 0.96875q0.40625 0.625 0.40625 1.640625q0 1.71875 -1.421875 2.765625q-1.40625 1.03125 -3.640625 1.03125q-1.21875 0 -2.296875 -0.25q-1.0625 -0.25 -2.453125 -0.9375l0 1.1875l-1.453125 0l0 -4.53125l1.453125 0l0 1.578125q1.953125 1.5 4.4375 1.5q1.75 0 2.828125 -0.578125q1.078125 -0.578125 1.078125 -1.609375q0 -0.71875 -0.40625 -1.078125q-0.40625 -0.359375 -1.046875 -0.453125q-0.625 -0.09375 -1.8125 -0.15625l-1.171875 -0.078125q-1.546875 -0.109375 -2.578125 -0.3125q-1.03125 -0.21875 -1.8125 -0.875q-0.765625 -0.65625 -0.765625 -1.921875q0 -1.6875 1.3125 -2.703125q1.328125 -1.015625 3.546875 -1.015625q2.390625 0 4.125 1.078125zm16.556213 4.953125l-8.53125 0l0 -1.46875l8.53125 0l0 1.46875zm17.884338 0.296875l-10.921875 0q0.015625 1.828125 1.140625 3.15625q1.140625 1.3125 3.921875 1.3125q1.203125 0 2.6875 -0.4375q1.5 -0.4375 2.875 -1.203125l0.453125 1.40625q-1.484375 0.796875 -3.078125 1.234375q-1.578125 0.4375 -3.015625 0.4375q-3.0625 0 -4.796875 -1.65625q-1.71875 -1.671875 -1.71875 -4.4375q0 -1.796875 0.84375 -3.1875q0.84375 -1.40625 2.296875 -2.171875q1.453125 -0.78125 3.234375 -0.78125q2.828125 0 4.4375 1.6875q1.609375 1.671875 1.640625 4.640625zm-6.09375 -4.828125q-1.90625 0 -3.21875 0.9375q-1.296875 0.921875 -1.5625 2.421875l9.3125 0q-0.171875 -1.4375 -1.40625 -2.390625q-1.21875 -0.96875 -3.125 -0.96875zm20.493713 2.390625l0 6.5625l2.1875 0l0 1.46875l-3.609375 0l0 -2.234375q-2.625 2.546875 -5.328125 2.546875q-1.203125 0 -2.171875 -0.484375q-0.96875 -0.5 -1.515625 -1.3125q-0.546875 -0.828125 -0.546875 -1.796875q0 -1.03125 0.65625 -1.921875q0.671875 -0.90625 1.984375 -1.4375q1.328125 -0.53125 3.140625 -0.53125q1.359375 0 3.765625 0.375l0 -0.90625q0 -1.515625 -0.828125 -2.109375q-0.828125 -0.609375 -2.59375 -0.609375q-1.03125 0 -2.28125 0.3125q-1.234375 0.296875 -2.296875 0.8125l-0.375 -1.453125q2.875 -1.171875 5.203125 -1.171875q2.203125 0 3.40625 0.96875q1.203125 0.953125 1.203125 2.921875zm-6.71875 6.890625q2.875 0 5.28125 -2.859375l0 -1.328125q-2.0 -0.34375 -3.734375 -0.34375q-2.328125 0 -3.328125 0.71875q-1.0 0.71875 -1.0 1.703125q0 0.828125 0.828125 1.46875q0.828125 0.640625 1.953125 0.640625zm21.853027 -9.703125l0 -1.078125l1.4375 0l0 4.21875l-1.4375 0l0 -1.578125q-0.90625 -0.5625 -1.96875 -0.859375q-1.046875 -0.3125 -2.078125 -0.3125q-1.515625 0 -2.515625 0.53125q-0.984375 0.53125 -0.984375 1.46875q0 0.984375 1.125 1.46875q1.140625 0.484375 3.84375 0.5q1.8125 0.03125 2.828125 0.390625q1.03125 0.34375 1.421875 0.96875q0.40625 0.625 0.40625 1.640625q0 1.71875 -1.421875 2.765625q-1.40625 1.03125 -3.640625 1.03125q-1.21875 0 -2.296875 -0.25q-1.0625 -0.25 -2.453125 -0.9375l0 1.1875l-1.453125 0l0 -4.53125l1.453125 0l0 1.578125q1.953125 1.5 4.4375 1.5q1.75 0 2.828125 -0.578125q1.078125 -0.578125 1.078125 -1.609375q0 -0.71875 -0.40625 -1.078125q-0.40625 -0.359375 -1.046875 -0.453125q-0.625 -0.09375 -1.8125 -0.15625l-1.171875 -0.078125q-1.546875 -0.109375 -2.578125 -0.3125q-1.03125 -0.21875 -1.8125 -0.875q-0.765625 -0.65625 -0.765625 -1.921875q0 -1.6875 1.3125 -2.703125q1.328125 -1.015625 3.546875 -1.015625q2.390625 0 4.125 1.078125zm9.571838 -4.15625l0 3.4375l6.875 0l0 1.453125l-6.875 0l0 6.375q0 1.390625 0.796875 2.0q0.796875 0.59375 2.328125 0.59375q0.875 0 1.859375 -0.265625q0.984375 -0.265625 3.328125 -1.203125l0.171875 1.4375q-1.8125 0.796875 -3.171875 1.140625q-1.34375 0.34375 -2.484375 0.34375q-1.953125 0 -3.109375 -0.90625q-1.15625 -0.921875 -1.15625 -2.5l0 -7.015625l-1.890625 0l0 -1.453125l1.890625 0l0 -3.4375l1.4375 0zm24.259338 13.53125l0 1.46875l-10.71875 0l0 -1.46875l4.6875 0l0 -12.234375l-4.6875 0.96875l0 -1.46875l6.15625 -1.359375l0 14.09375l4.5625 0z" fill-rule="nonzero"/><path fill="#00ff00" d="m39.878963 157.26698l13.153488 -54.69481l53.256306 -24.341484l53.2563 24.341484l13.153488 54.69481l-36.854965 43.862l-59.10965 0z" fill-rule="evenodd"/><path stroke="#000000" stroke-width="1.0" stroke-linejoin="round" stroke-linecap="butt" d="m39.878963 157.26698l13.153488 -54.69481l53.256306 -24.341484l53.2563 24.341484l13.153488 54.69481l-36.854965 43.862l-59.10965 0z" fill-rule="evenodd"/><path fill="#000000" d="m79.74406 126.59201l2.53125 0.640625q-0.796875 3.109375 -2.859375 4.75q-2.0625 1.625 -5.046875 1.625q-3.09375 0 -5.03125 -1.25q-1.921875 -1.265625 -2.9375 -3.640625q-1.0 -2.390625 -1.0 -5.125q0 -2.984375 1.140625 -5.203125q1.140625 -2.21875 3.234375 -3.359375q2.109375 -1.15625 4.625 -1.15625q2.875 0 4.828125 1.46875q1.953125 1.453125 2.71875 4.09375l-2.484375 0.578125q-0.671875 -2.078125 -1.9375 -3.03125q-1.25 -0.953125 -3.171875 -0.953125q-2.203125 0 -3.6875 1.0625q-1.46875 1.046875 -2.0625 2.828125q-0.59375 1.78125 -0.59375 3.65625q0 2.4375 0.703125 4.265625q0.703125 1.8125 2.203125 2.71875q1.5 0.890625 3.25 0.890625q2.109375 0 3.578125 -1.21875q1.484375 -1.234375 2.0 -3.640625zm5.28154 6.6875l0 -19.078125l2.34375 0l0 19.078125l-2.34375 0zm15.03154 0l0 -2.03125q-1.609375 2.34375 -4.375 2.34375q-1.234375 0 -2.296875 -0.46875q-1.0625 -0.46875 -1.578125 -1.171875q-0.5 -0.71875 -0.71875 -1.75q-0.140625 -0.6875 -0.140625 -2.1875l0 -8.5625l2.34375 0l0 7.671875q0 1.828125 0.140625 2.46875q0.21875 0.921875 0.9375 1.453125q0.71875 0.53125 1.765625 0.53125q1.0625 0 1.984375 -0.53125q0.921875 -0.546875 1.296875 -1.46875q0.390625 -0.9375 0.390625 -2.71875l0 -7.40625l2.34375 0l0 13.828125l-2.09375 0zm4.824936 -4.125l2.328125 -0.359375q0.1875 1.390625 1.078125 2.140625q0.890625 0.734375 2.5 0.734375q1.609375 0 2.390625 -0.65625q0.78125 -0.65625 0.78125 -1.546875q0 -0.796875 -0.6875 -1.25q-0.484375 -0.3125 -2.390625 -0.796875q-2.578125 -0.65625 -3.578125 -1.125q-1.0 -0.46875 -1.515625 -1.3125q-0.515625 -0.84375 -0.515625 -1.859375q0 -0.921875 0.421875 -1.703125q0.4375 -0.796875 1.15625 -1.3125q0.546875 -0.40625 1.484375 -0.6875q0.953125 -0.28125 2.03125 -0.28125q1.625 0 2.859375 0.46875q1.234375 0.46875 1.8125 1.28125q0.59375 0.796875 0.8125 2.140625l-2.296875 0.3125q-0.15625 -1.078125 -0.90625 -1.671875q-0.75 -0.59375 -2.109375 -0.59375q-1.609375 0 -2.3125 0.53125q-0.6875 0.53125 -0.6875 1.25q0 0.453125 0.296875 0.8125q0.28125 0.375 0.890625 0.625q0.359375 0.140625 2.078125 0.609375q2.484375 0.65625 3.46875 1.078125q0.984375 0.421875 1.53125 1.234375q0.5625 0.796875 0.5625 2.0q0 1.171875 -0.6875 2.21875q-0.671875 1.03125 -1.96875 1.59375q-1.28125 0.5625 -2.90625 0.5625q-2.703125 0 -4.125 -1.109375q-1.40625 -1.125 -1.796875 -3.328125zm19.390633 2.03125l0.328125 2.0625q-0.984375 0.21875 -1.765625 0.21875q-1.265625 0 -1.96875 -0.40625q-0.703125 -0.40625 -1.0 -1.0625q-0.28125 -0.65625 -0.28125 -2.765625l0 -7.953125l-1.71875 0l0 -1.828125l1.71875 0l0 -3.421875l2.328125 -1.40625l0 4.828125l2.359375 0l0 1.828125l-2.359375 0l0 8.078125q0 1.0 0.125 1.296875q0.125 0.28125 0.40625 0.453125q0.28125 0.171875 0.796875 0.171875q0.390625 0 1.03125 -0.09375zm11.74971 -2.359375l2.421875 0.296875q-0.578125 2.125 -2.125 3.296875q-1.546875 1.171875 -3.953125 1.171875q-3.03125 0 -4.8125 -1.859375q-1.78125 -1.875 -1.78125 -5.25q0 -3.484375 1.796875 -5.40625q1.796875 -1.9375 4.671875 -1.9375q2.765625 0 4.515625 1.890625q1.765625 1.890625 1.765625 5.3125q0 0.203125 -0.015625 0.625l-10.3125 0q0.140625 2.28125 1.296875 3.5q1.15625 1.203125 2.890625 1.203125q1.28125 0 2.1875 -0.671875q0.921875 -0.6875 1.453125 -2.171875zm-7.6875 -3.78125l7.71875 0q-0.15625 -1.75 -0.890625 -2.625q-1.125 -1.34375 -2.90625 -1.34375q-1.609375 0 -2.71875 1.078125q-1.09375 1.078125 -1.203125 2.890625zm13.028061 8.234375l0 -13.828125l2.109375 0l0 2.09375q0.796875 -1.46875 1.484375 -1.9375q0.6875 -0.46875 1.5 -0.46875q1.1875 0 2.40625 0.765625l-0.796875 2.171875q-0.859375 -0.515625 -1.71875 -0.515625q-0.765625 0 -1.390625 0.46875q-0.609375 0.453125 -0.859375 1.28125q-0.390625 1.25 -0.390625 2.734375l0 7.234375l-2.34375 0z" fill-rule="nonzero"/><path fill="#000000" d="m97.36775 165.27951l7.3125 -19.078125l2.734375 0l7.796875 19.078125l-2.875 0l-2.21875 -5.78125l-7.984375 0l-2.09375 5.78125l-2.671875 0zm5.5 -7.828125l6.46875 0l-2.0 -5.296875q-0.90625 -2.40625 -1.34375 -3.953125q-0.375 1.84375 -1.03125 3.640625l-2.09375 5.609375z" fill-rule="nonzero"/><path fill="#ff00ff" d="m130.78181 280.16992l13.153488 -54.69481l53.256317 -24.341476l53.2563 24.341476l13.153488 54.69481l-36.85498 43.862l-59.109634 0z" fill-rule="evenodd"/><path stroke="#000000" stroke-width="1.0" stroke-linejoin="round" stroke-linecap="butt" d="m130.78181 280.16992l13.153488 -54.69481l53.256317 -24.341476l53.2563 24.341476l13.153488 54.69481l-36.85498 43.862l-59.109634 0z" fill-rule="evenodd"/><path fill="#000000" d="m170.64691 249.49495l2.53125 0.640625q-0.796875 3.109375 -2.859375 4.75q-2.0625 1.6250153 -5.046875 1.6250153q-3.09375 0 -5.03125 -1.2500153q-1.921875 -1.265625 -2.9375 -3.640625q-1.0 -2.390625 -1.0 -5.125q0 -2.984375 1.140625 -5.203125q1.140625 -2.21875 3.234375 -3.359375q2.109375 -1.15625 4.625 -1.15625q2.875 0 4.828125 1.46875q1.953125 1.453125 2.71875 4.09375l-2.484375 0.578125q-0.671875 -2.078125 -1.9375 -3.03125q-1.25 -0.953125 -3.171875 -0.953125q-2.203125 0 -3.6875 1.0625q-1.46875 1.046875 -2.0625 2.828125q-0.59375 1.78125 -0.59375 3.65625q0 2.4375 0.703125 4.265625q0.703125 1.8125 2.203125 2.71875q1.5 0.890625 3.25 0.890625q2.109375 0 3.578125 -1.21875q1.484375 -1.234375 2.0 -3.640625zm5.28154 6.6875153l0 -19.07814l2.34375 0l0 19.07814l-2.34375 0zm15.03154 0l0 -2.0312653q-1.609375 2.3437653 -4.375 2.3437653q-1.234375 0 -2.296875 -0.46875q-1.0625 -0.46876526 -1.578125 -1.1718903q-0.5 -0.71875 -0.71875 -1.75q-0.140625 -0.6875 -0.140625 -2.1875l0 -8.5625l2.34375 0l0 7.671875q0 1.828125 0.140625 2.46875q0.21875 0.921875 0.9375 1.453125q0.71875 0.53125 1.765625 0.53125q1.0625 0 1.984375 -0.53125q0.921875 -0.546875 1.296875 -1.46875q0.390625 -0.9375 0.390625 -2.71875l0 -7.40625l2.34375 0l0 13.82814l-2.09375 0zm4.824936 -4.1250153l2.328125 -0.359375q0.1875 1.390625 1.078125 2.140625q0.890625 0.734375 2.5 0.734375q1.609375 0 2.390625 -0.65625q0.78125 -0.65625 0.78125 -1.546875q0 -0.796875 -0.6875 -1.25q-0.484375 -0.3125 -2.390625 -0.796875q-2.578125 -0.65625 -3.578125 -1.125q-1.0 -0.46875 -1.515625 -1.3125q-0.515625 -0.84375 -0.515625 -1.859375q0 -0.921875 0.421875 -1.703125q0.4375 -0.796875 1.15625 -1.3125q0.546875 -0.40625 1.484375 -0.6875q0.953125 -0.28125 2.03125 -0.28125q1.625 0 2.859375 0.46875q1.234375 0.46875 1.8125 1.28125q0.59375 0.796875 0.8125 2.140625l-2.296875 0.3125q-0.15625 -1.078125 -0.90625 -1.671875q-0.75 -0.59375 -2.109375 -0.59375q-1.609375 0 -2.3125 0.53125q-0.6875 0.53125 -0.6875 1.25q0 0.453125 0.296875 0.8125q0.28125 0.375 0.890625 0.625q0.359375 0.140625 2.078125 0.609375q2.484375 0.65625 3.46875 1.078125q0.984375 0.421875 1.53125 1.234375q0.5625 0.796875 0.5625 2.0q0 1.171875 -0.6875 2.21875q-0.671875 1.03125 -1.96875 1.59375q-1.28125 0.56251526 -2.90625 0.56251526q-2.703125 0 -4.125 -1.1093903q-1.40625 -1.125 -1.796875 -3.328125zm19.390625 2.03125l0.328125 2.0625153q-0.984375 0.21875 -1.765625 0.21875q-1.265625 0 -1.96875 -0.40626526q-0.703125 -0.40625 -1.0 -1.0625q-0.28125 -0.65625 -0.28125 -2.765625l0 -7.953125l-1.71875 0l0 -1.828125l1.71875 0l0 -3.421875l2.328125 -1.40625l0 4.828125l2.359375 0l0 1.828125l-2.359375 0l0 8.078125q0 1.0 0.125 1.296875q0.125 0.28125 0.40625 0.453125q0.28125 0.171875 0.796875 0.171875q0.390625 0 1.03125 -0.09375zm11.74971 -2.359375l2.421875 0.296875q-0.578125 2.125 -2.125 3.296875q-1.546875 1.1718903 -3.953125 1.1718903q-3.03125 0 -4.8125 -1.8593903q-1.78125 -1.875 -1.78125 -5.25q0 -3.484375 1.796875 -5.40625q1.796875 -1.9375 4.671875 -1.9375q2.765625 0 4.515625 1.890625q1.765625 1.890625 1.765625 5.3125q0 0.203125 -0.015625 0.625l-10.3125 0q0.140625 2.28125 1.296875 3.5q1.15625 1.203125 2.890625 1.203125q1.28125 0 2.1875 -0.671875q0.921875 -0.6875 1.453125 -2.171875zm-7.6875 -3.78125l7.71875 0q-0.15625 -1.75 -0.890625 -2.625q-1.125 -1.34375 -2.90625 -1.34375q-1.609375 0 -2.71875 1.078125q-1.09375 1.078125 -1.203125 2.890625zm13.028061 8.23439l0 -13.82814l2.109375 0l0 2.09375q0.796875 -1.46875 1.484375 -1.9375q0.6875 -0.46875 1.5 -0.46875q1.1875 0 2.40625 0.765625l-0.796875 2.171875q-0.859375 -0.515625 -1.71875 -0.515625q-0.765625 0 -1.390625 0.46875q-0.609375 0.453125 -0.859375 1.28125q-0.390625 1.25 -0.390625 2.734375l0 7.2343903l-2.34375 0z" fill-rule="nonzero"/><path fill="#000000" d="m190.25499 288.18246l0 -19.078125l7.15625 0q2.1875 0 3.5 0.578125q1.328125 0.578125 2.078125 1.78125q0.75 1.203125 0.75 2.515625q0 1.21875 -0.671875 2.3125q-0.65625 1.078125 -2.0 1.734375q1.734375 0.515625 2.65625 1.734375q0.9375 1.21875 0.9375 2.890625q0 1.34375 -0.5625 2.5q-0.5625 1.140625 -1.40625 1.765625q-0.828125 0.625 -2.09375 0.953125q-1.25 0.3125 -3.0625 0.3125l-7.28125 0zm2.53125 -11.0625l4.125 0q1.671875 0 2.40625 -0.21875q0.953125 -0.296875 1.4375 -0.953125q0.5 -0.671875 0.5 -1.671875q0 -0.9375 -0.453125 -1.65625q-0.453125 -0.734375 -1.3125 -1.0q-0.84375 -0.265625 -2.890625 -0.265625l-3.8125 0l0 5.765625zm0 8.8125l4.75 0q1.21875 0 1.71875 -0.09375q0.859375 -0.15625 1.4375 -0.515625q0.59375 -0.375 0.96875 -1.0625q0.390625 -0.703125 0.390625 -1.609375q0 -1.0625 -0.546875 -1.84375q-0.546875 -0.796875 -1.515625 -1.109375q-0.96875 -0.328125 -2.796875 -0.328125l-4.40625 0l0 6.5625z" fill-rule="nonzero"/><path fill="#f6b26b" d="m33.10607 424.75082l13.153488 -54.694794l53.2563 -24.341492l53.25631 24.341492l13.153488 54.694794l-36.85498 43.862l-59.109634 0z" fill-rule="evenodd"/><path stroke="#000000" stroke-width="1.0" stroke-linejoin="round" stroke-linecap="butt" d="m33.10607 424.75082l13.153488 -54.694794l53.2563 -24.341492l53.25631 24.341492l13.153488 54.694794l-36.85498 43.862l-59.109634 0z" fill-rule="evenodd"/><path fill="#000000" d="m72.97117 394.07587l2.53125 0.640625q-0.796875 3.109375 -2.859375 4.75q-2.0625 1.625 -5.046875 1.625q-3.09375 0 -5.031254 -1.25q-1.921875 -1.265625 -2.9375 -3.640625q-1.0 -2.390625 -1.0 -5.125q0 -2.984375 1.140625 -5.203125q1.140625 -2.21875 3.234375 -3.359375q2.1093788 -1.15625 4.625004 -1.15625q2.875 0 4.828125 1.46875q1.953125 1.453125 2.71875 4.09375l-2.484375 0.578125q-0.671875 -2.078125 -1.9375 -3.03125q-1.25 -0.953125 -3.171875 -0.953125q-2.203125 0 -3.6875038 1.0625q-1.46875 1.046875 -2.0625 2.828125q-0.59375 1.78125 -0.59375 3.65625q0 2.4375 0.703125 4.265625q0.703125 1.8125 2.2031288 2.71875q1.5 0.890625 3.25 0.890625q2.109375 0 3.578125 -1.21875q1.484375 -1.234375 2.0 -3.640625zm5.28154 6.6875l0 -19.078125l2.34375 0l0 19.078125l-2.34375 0zm15.03154 0l0 -2.03125q-1.609375 2.34375 -4.375 2.34375q-1.234375 0 -2.296875 -0.46875q-1.0625 -0.46875 -1.578125 -1.171875q-0.5 -0.71875 -0.71875 -1.75q-0.140625 -0.6875 -0.140625 -2.1875l0 -8.5625l2.34375 0l0 7.671875q0 1.828125 0.140625 2.46875q0.21875 0.921875 0.9375 1.453125q0.71875 0.53125 1.765625 0.53125q1.0625 0 1.984375 -0.53125q0.921875 -0.546875 1.296875 -1.46875q0.390625 -0.9375 0.390625 -2.71875l0 -7.40625l2.34375 0l0 13.828125l-2.09375 0zm4.824936 -4.125l2.328125 -0.359375q0.1875 1.390625 1.078125 2.140625q0.890625 0.734375 2.5 0.734375q1.609375 0 2.390625 -0.65625q0.78125 -0.65625 0.78125 -1.546875q0 -0.796875 -0.6875 -1.25q-0.484375 -0.3125 -2.390625 -0.796875q-2.578125 -0.65625 -3.578125 -1.125q-1.0 -0.46875 -1.515625 -1.3125q-0.515625 -0.84375 -0.515625 -1.859375q0 -0.921875 0.421875 -1.703125q0.4375 -0.796875 1.15625 -1.3125q0.546875 -0.40625 1.484375 -0.6875q0.953125 -0.28125 2.03125 -0.28125q1.625 0 2.859375 0.46875q1.234375 0.46875 1.8125 1.28125q0.59375 0.796875 0.8125 2.140625l-2.296875 0.3125q-0.15625 -1.078125 -0.90625 -1.671875q-0.75 -0.59375 -2.109375 -0.59375q-1.609375 0 -2.3125 0.53125q-0.6875 0.53125 -0.6875 1.25q0 0.453125 0.296875 0.8125q0.28125 0.375 0.890625 0.625q0.359375 0.140625 2.078125 0.609375q2.484375 0.65625 3.46875 1.078125q0.984375 0.421875 1.53125 1.234375q0.5625 0.796875 0.5625 2.0q0 1.171875 -0.6875 2.21875q-0.671875 1.03125 -1.96875 1.59375q-1.28125 0.5625 -2.90625 0.5625q-2.703125 0 -4.125 -1.109375q-1.40625 -1.125 -1.796875 -3.328125zm19.390625 2.03125l0.328125 2.0625q-0.984375 0.21875 -1.765625 0.21875q-1.265625 0 -1.96875 -0.40625q-0.703125 -0.40625 -1.0 -1.0625q-0.28125 -0.65625 -0.28125 -2.765625l0 -7.953125l-1.71875 0l0 -1.828125l1.71875 0l0 -3.421875l2.328125 -1.40625l0 4.828125l2.359375 0l0 1.828125l-2.359375 0l0 8.078125q0 1.0 0.125 1.296875q0.125 0.28125 0.40625 0.453125q0.28125 0.171875 0.796875 0.171875q0.390625 0 1.03125 -0.09375zm11.749718 -2.359375l2.421875 0.296875q-0.578125 2.125 -2.125 3.296875q-1.5468826 1.171875 -3.9531326 1.171875q-3.03125 0 -4.8125 -1.859375q-1.78125 -1.875 -1.78125 -5.25q0 -3.484375 1.796875 -5.40625q1.796875 -1.9375 4.671875 -1.9375q2.7656326 0 4.5156326 1.890625q1.765625 1.890625 1.765625 5.3125q0 0.203125 -0.015625 0.625l-10.312508 0q0.140625 2.28125 1.296875 3.5q1.15625 1.203125 2.890625 1.203125q1.28125 0 2.1875 -0.671875q0.9218826 -0.6875 1.4531326 -2.171875zm-7.6875076 -3.78125l7.7187576 0q-0.15625 -1.75 -0.890625 -2.625q-1.1250076 -1.34375 -2.9062576 -1.34375q-1.609375 0 -2.71875 1.078125q-1.09375 1.078125 -1.203125 2.890625zm13.028069 8.234375l0 -13.828125l2.109375 0l0 2.09375q0.796875 -1.46875 1.484375 -1.9375q0.6875 -0.46875 1.5 -0.46875q1.1875 0 2.40625 0.765625l-0.796875 2.171875q-0.859375 -0.515625 -1.71875 -0.515625q-0.765625 0 -1.390625 0.46875q-0.609375 0.453125 -0.859375 1.28125q-0.390625 1.25 -0.390625 2.734375l0 7.234375l-2.34375 0z" fill-rule="nonzero"/><path fill="#000000" d="m105.5626 426.07587l2.53125 0.640625q-0.796875 3.109375 -2.859375 4.75q-2.0625 1.625 -5.046875 1.625q-3.09375 0 -5.03125 -1.25q-1.921875 -1.265625 -2.9375 -3.640625q-1.0 -2.390625 -1.0 -5.125q0 -2.984375 1.140625 -5.203125q1.140625 -2.21875 3.234375 -3.359375q2.109375 -1.15625 4.625 -1.15625q2.875 0 4.828125 1.46875q1.953125 1.453125 2.71875 4.09375l-2.484375 0.578125q-0.671875 -2.078125 -1.9375 -3.03125q-1.25 -0.953125 -3.171875 -0.953125q-2.203125 0 -3.6875 1.0625q-1.46875 1.046875 -2.0625 2.828125q-0.59375 1.78125 -0.59375 3.65625q0 2.4375 0.703125 4.265625q0.703125 1.8125 2.203125 2.71875q1.5 0.890625 3.25 0.890625q2.109375 0 3.578125 -1.21875q1.484375 -1.234375 2.0 -3.640625z" fill-rule="nonzero"/><path fill="#00ff00" d="m439.18124 189.79198l13.153503 -54.69481l53.256287 -24.341484l53.256317 24.341484l13.153503 54.69481l-36.85498 43.861984l-59.10965 0z" fill-rule="evenodd"/><path stroke="#000000" stroke-width="1.0" stroke-linejoin="round" stroke-linecap="butt" d="m439.18124 189.79198l13.153503 -54.69481l53.256287 -24.341484l53.256317 24.341484l13.153503 54.69481l-36.85498 43.861984l-59.10965 0z" fill-rule="evenodd"/><path fill="#000000" d="m479.04636 159.117l2.53125 0.640625q-0.796875 3.109375 -2.859375 4.75q-2.0625 1.625 -5.046875 1.625q-3.09375 0 -5.03125 -1.25q-1.921875 -1.265625 -2.9375 -3.640625q-1.0 -2.390625 -1.0 -5.125q0 -2.984375 1.140625 -5.203125q1.140625 -2.21875 3.234375 -3.359375q2.109375 -1.15625 4.625 -1.15625q2.875 0 4.828125 1.46875q1.953125 1.453125 2.71875 4.09375l-2.484375 0.578125q-0.671875 -2.078125 -1.9375 -3.03125q-1.25 -0.953125 -3.171875 -0.953125q-2.203125 0 -3.6875 1.0625q-1.46875 1.046875 -2.0625 2.828125q-0.59375 1.78125 -0.59375 3.65625q0 2.4375 0.703125 4.265625q0.703125 1.8125 2.203125 2.71875q1.5 0.890625 3.25 0.890625q2.109375 0 3.578125 -1.21875q1.484375 -1.234375 2.0 -3.640625zm5.2815247 6.6875l0 -19.078125l2.34375 0l0 19.078125l-2.34375 0zm15.031555 0l0 -2.03125q-1.609375 2.34375 -4.375 2.34375q-1.234375 0 -2.296875 -0.46875q-1.0625 -0.46875 -1.578125 -1.171875q-0.5 -0.71875 -0.71875 -1.75q-0.140625 -0.6875 -0.140625 -2.1875l0 -8.5625l2.34375 0l0 7.671875q0 1.828125 0.140625 2.46875q0.21875 0.921875 0.9375 1.453125q0.71875 0.53125 1.765625 0.53125q1.0625 0 1.984375 -0.53125q0.921875 -0.546875 1.296875 -1.46875q0.390625 -0.9375 0.390625 -2.71875l0 -7.40625l2.34375 0l0 13.828125l-2.09375 0zm4.8249207 -4.125l2.328125 -0.359375q0.1875 1.390625 1.078125 2.140625q0.890625 0.734375 2.5 0.734375q1.609375 0 2.3906555 -0.65625q0.78125 -0.65625 0.78125 -1.546875q0 -0.796875 -0.6875 -1.25q-0.484375 -0.3125 -2.3906555 -0.796875q-2.578125 -0.65625 -3.578125 -1.125q-1.0 -0.46875 -1.515625 -1.3125q-0.515625 -0.84375 -0.515625 -1.859375q0 -0.921875 0.421875 -1.703125q0.4375 -0.796875 1.15625 -1.3125q0.546875 -0.40625 1.484375 -0.6875q0.953125 -0.28125 2.03125 -0.28125q1.625 0 2.8594055 0.46875q1.234375 0.46875 1.8125 1.28125q0.59375 0.796875 0.8125 2.140625l-2.296875 0.3125q-0.15625 -1.078125 -0.9062805 -1.671875q-0.75 -0.59375 -2.109375 -0.59375q-1.609375 0 -2.3125 0.53125q-0.6875 0.53125 -0.6875 1.25q0 0.453125 0.296875 0.8125q0.28125 0.375 0.890625 0.625q0.359375 0.140625 2.078125 0.609375q2.4844055 0.65625 3.4687805 1.078125q0.984375 0.421875 1.53125 1.234375q0.5625 0.796875 0.5625 2.0q0 1.171875 -0.6875 2.21875q-0.671875 1.03125 -1.96875 1.59375q-1.2812805 0.5625 -2.9062805 0.5625q-2.703125 0 -4.125 -1.109375q-1.40625 -1.125 -1.796875 -3.328125zm19.390656 2.03125l0.328125 2.0625q-0.984375 0.21875 -1.765625 0.21875q-1.265625 0 -1.96875 -0.40625q-0.703125 -0.40625 -1.0 -1.0625q-0.28125 -0.65625 -0.28125 -2.765625l0 -7.953125l-1.71875 0l0 -1.828125l1.71875 0l0 -3.421875l2.328125 -1.40625l0 4.828125l2.359375 0l0 1.828125l-2.359375 0l0 8.078125q0 1.0 0.125 1.296875q0.125 0.28125 0.40625 0.453125q0.28125 0.171875 0.796875 0.171875q0.390625 0 1.03125 -0.09375zm11.749695 -2.359375l2.421875 0.296875q-0.578125 2.125 -2.125 3.296875q-1.546875 1.171875 -3.953125 1.171875q-3.03125 0 -4.8125 -1.859375q-1.78125 -1.875 -1.78125 -5.25q0 -3.484375 1.796875 -5.40625q1.796875 -1.9375 4.671875 -1.9375q2.765625 0 4.515625 1.890625q1.765625 1.890625 1.765625 5.3125q0 0.203125 -0.015625 0.625l-10.3125 0q0.140625 2.28125 1.296875 3.5q1.15625 1.203125 2.890625 1.203125q1.28125 0 2.1875 -0.671875q0.921875 -0.6875 1.453125 -2.171875zm-7.6875 -3.78125l7.71875 0q-0.15625 -1.75 -0.890625 -2.625q-1.125 -1.34375 -2.90625 -1.34375q-1.609375 0 -2.71875 1.078125q-1.09375 1.078125 -1.203125 2.890625zm13.028076 8.234375l0 -13.828125l2.109375 0l0 2.09375q0.796875 -1.46875 1.484375 -1.9375q0.6875 -0.46875 1.5 -0.46875q1.1875 0 2.40625 0.765625l-0.796875 2.171875q-0.859375 -0.515625 -1.71875 -0.515625q-0.765625 0 -1.390625 0.46875q-0.609375 0.453125 -0.859375 1.28125q-0.390625 1.25 -0.390625 2.734375l0 7.234375l-2.34375 0z" fill-rule="nonzero"/><path fill="#000000" d="m498.81067 197.8045l0 -19.078125l13.796875 0l0 2.25l-11.265625 0l0 5.84375l10.546875 0l0 2.234375l-10.546875 0l0 6.5l11.703125 0l0 2.25l-14.234375 0z" fill-rule="nonzero"/><path fill="#d5a6bd" d="m364.35068 371.33966l13.153503 -54.694794l53.256317 -24.341492l53.256287 24.341492l13.153503 54.694794l-36.85498 43.862l-59.10965 0z" fill-rule="evenodd"/><path stroke="#000000" stroke-width="1.0" stroke-linejoin="round" stroke-linecap="butt" d="m364.35068 371.33966l13.153503 -54.694794l53.256317 -24.341492l53.256287 24.341492l13.153503 54.694794l-36.85498 43.862l-59.10965 0z" fill-rule="evenodd"/><path fill="#000000" d="m404.2158 340.6647l2.53125 0.640625q-0.796875 3.109375 -2.859375 4.75q-2.0625 1.625 -5.046875 1.625q-3.09375 0 -5.03125 -1.25q-1.921875 -1.265625 -2.9375 -3.640625q-1.0 -2.390625 -1.0 -5.125q0 -2.984375 1.140625 -5.203125q1.140625 -2.21875 3.234375 -3.359375q2.109375 -1.15625 4.625 -1.15625q2.875 0 4.828125 1.46875q1.953125 1.453125 2.71875 4.09375l-2.484375 0.578125q-0.671875 -2.078125 -1.9375 -3.03125q-1.25 -0.953125 -3.171875 -0.953125q-2.203125 0 -3.6875 1.0625q-1.46875 1.046875 -2.0625 2.828125q-0.59375 1.78125 -0.59375 3.65625q0 2.4375 0.703125 4.265625q0.703125 1.8125 2.203125 2.71875q1.5 0.890625 3.25 0.890625q2.109375 0 3.578125 -1.21875q1.484375 -1.234375 2.0 -3.640625zm5.2815247 6.6875l0 -19.078125l2.34375 0l0 19.078125l-2.34375 0zm15.031555 0l0 -2.03125q-1.609375 2.34375 -4.375 2.34375q-1.234375 0 -2.296875 -0.46875q-1.0625 -0.46875 -1.578125 -1.171875q-0.5 -0.71875 -0.71875 -1.75q-0.140625 -0.6875 -0.140625 -2.1875l0 -8.5625l2.34375 0l0 7.671875q0 1.828125 0.140625 2.46875q0.21875 0.921875 0.9375 1.453125q0.71875 0.53125 1.765625 0.53125q1.0625 0 1.984375 -0.53125q0.921875 -0.546875 1.296875 -1.46875q0.390625 -0.9375 0.390625 -2.71875l0 -7.40625l2.34375 0l0 13.828125l-2.09375 0zm4.8249207 -4.125l2.328125 -0.359375q0.1875 1.390625 1.078125 2.140625q0.890625 0.734375 2.5 0.734375q1.609375 0 2.390625 -0.65625q0.78125 -0.65625 0.78125 -1.546875q0 -0.796875 -0.6875 -1.25q-0.484375 -0.3125 -2.390625 -0.796875q-2.578125 -0.65625 -3.578125 -1.125q-1.0 -0.46875 -1.515625 -1.3125q-0.515625 -0.84375 -0.515625 -1.859375q0 -0.921875 0.421875 -1.703125q0.4375 -0.796875 1.15625 -1.3125q0.546875 -0.40625 1.484375 -0.6875q0.953125 -0.28125 2.03125 -0.28125q1.625 0 2.859375 0.46875q1.234375 0.46875 1.8125 1.28125q0.59375 0.796875 0.8125 2.140625l-2.296875 0.3125q-0.15625 -1.078125 -0.90625 -1.671875q-0.75 -0.59375 -2.109375 -0.59375q-1.609375 0 -2.3125 0.53125q-0.6875 0.53125 -0.6875 1.25q0 0.453125 0.296875 0.8125q0.28125 0.375 0.890625 0.625q0.359375 0.140625 2.078125 0.609375q2.484375 0.65625 3.46875 1.078125q0.984375 0.421875 1.53125 1.234375q0.5625 0.796875 0.5625 2.0q0 1.171875 -0.6875 2.21875q-0.671875 1.03125 -1.96875 1.59375q-1.28125 0.5625 -2.90625 0.5625q-2.703125 0 -4.125 -1.109375q-1.40625 -1.125 -1.796875 -3.328125zm19.390625 2.03125l0.328125 2.0625q-0.984375 0.21875 -1.765625 0.21875q-1.265625 0 -1.96875 -0.40625q-0.703125 -0.40625 -1.0 -1.0625q-0.28125 -0.65625 -0.28125 -2.765625l0 -7.953125l-1.71875 0l0 -1.828125l1.71875 0l0 -3.421875l2.328125 -1.40625l0 4.828125l2.359375 0l0 1.828125l-2.359375 0l0 8.078125q0 1.0 0.125 1.296875q0.125 0.28125 0.40625 0.453125q0.28125 0.171875 0.796875 0.171875q0.390625 0 1.03125 -0.09375zm11.749725 -2.359375l2.421875 0.296875q-0.578125 2.125 -2.125 3.296875q-1.546875 1.171875 -3.953125 1.171875q-3.03125 0 -4.8125 -1.859375q-1.78125 -1.875 -1.78125 -5.25q0 -3.484375 1.796875 -5.40625q1.796875 -1.9375 4.671875 -1.9375q2.765625 0 4.515625 1.890625q1.765625 1.890625 1.765625 5.3125q0 0.203125 -0.015625 0.625l-10.3125 0q0.140625 2.28125 1.296875 3.5q1.15625 1.203125 2.890625 1.203125q1.28125 0 2.1875 -0.671875q0.921875 -0.6875 1.453125 -2.171875zm-7.6875 -3.78125l7.71875 0q-0.15625 -1.75 -0.890625 -2.625q-1.125 -1.34375 -2.90625 -1.34375q-1.609375 0 -2.71875 1.078125q-1.09375 1.078125 -1.203125 2.890625zm13.028046 8.234375l0 -13.828125l2.109375 0l0 2.09375q0.796875 -1.46875 1.484375 -1.9375q0.6875 -0.46875 1.5 -0.46875q1.1875 0 2.40625 0.765625l-0.796875 2.171875q-0.859375 -0.515625 -1.71875 -0.515625q-0.765625 0 -1.390625 0.46875q-0.609375 0.453125 -0.859375 1.28125q-0.390625 1.25 -0.390625 2.734375l0 7.234375l-2.34375 0z" fill-rule="nonzero"/><path fill="#000000" d="m423.19785 379.3522l0 -19.078125l6.5625 0q2.234375 0 3.40625 0.265625q1.640625 0.375 2.796875 1.375q1.5 1.265625 2.25 3.25q0.75 1.984375 0.75 4.546875q0 2.171875 -0.515625 3.859375q-0.5 1.671875 -1.296875 2.78125q-0.78125 1.09375 -1.734375 1.71875q-0.9375 0.625 -2.28125 0.953125q-1.328125 0.328125 -3.0625 0.328125l-6.875 0zm2.515625 -2.25l4.078125 0q1.890625 0 2.953125 -0.34375q1.078125 -0.359375 1.71875 -1.0q0.890625 -0.890625 1.390625 -2.40625q0.515625 -1.515625 0.515625 -3.6875q0 -2.984375 -0.984375 -4.59375q-0.984375 -1.609375 -2.390625 -2.15625q-1.015625 -0.390625 -3.265625 -0.390625l-4.015625 0l0 14.578125z" fill-rule="nonzero"/><path fill="#00ff00" d="m677.0422 143.39114l13.153442 -54.694794l53.256348 -24.341484l53.256287 24.341484l13.153503 54.694794l-36.85498 43.862l-59.10962 0z" fill-rule="evenodd"/><path stroke="#000000" stroke-width="1.0" stroke-linejoin="round" stroke-linecap="butt" d="m677.0422 143.39114l13.153442 -54.694794l53.256348 -24.341484l53.256287 24.341484l13.153503 54.694794l-36.85498 43.862l-59.10962 0z" fill-rule="evenodd"/><path fill="#000000" d="m716.9072 112.71618l2.53125 0.640625q-0.796875 3.109375 -2.859375 4.75q-2.0625 1.625 -5.046875 1.625q-3.09375 0 -5.03125 -1.25q-1.921875 -1.265625 -2.9375 -3.640625q-1.0 -2.390625 -1.0 -5.125q0 -2.984375 1.140625 -5.203125q1.140625 -2.21875 3.234375 -3.359375q2.109375 -1.15625 4.625 -1.15625q2.875 0 4.828125 1.46875q1.953125 1.453125 2.71875 4.09375l-2.484375 0.578125q-0.671875 -2.078125 -1.9375 -3.03125q-1.25 -0.953125 -3.171875 -0.953125q-2.203125 0 -3.6875 1.0625q-1.46875 1.046875 -2.0625 2.828125q-0.59375 1.78125 -0.59375 3.65625q0 2.4375 0.703125 4.265625q0.703125 1.8125 2.203125 2.71875q1.5 0.890625 3.25 0.890625q2.109375 0 3.578125 -1.21875q1.484375 -1.234375 2.0 -3.640625zm5.281555 6.6875l0 -19.078125l2.34375 0l0 19.078125l-2.34375 0zm15.031555 0l0 -2.03125q-1.609375 2.34375 -4.375 2.34375q-1.234375 0 -2.296875 -0.46875q-1.0625 -0.46875 -1.578125 -1.171875q-0.5 -0.71875 -0.71875 -1.75q-0.140625 -0.6875 -0.140625 -2.1875l0 -8.5625l2.34375 0l0 7.671875q0 1.828125 0.140625 2.46875q0.21875 0.921875 0.9375 1.453125q0.71875 0.53125 1.765625 0.53125q1.0625 0 1.984375 -0.53125q0.921875 -0.546875 1.296875 -1.46875q0.390625 -0.9375 0.390625 -2.71875l0 -7.40625l2.34375 0l0 13.828125l-2.09375 0zm4.824951 -4.125l2.328125 -0.359375q0.1875 1.390625 1.078125 2.140625q0.890625 0.734375 2.5 0.734375q1.609375 0 2.390625 -0.65625q0.78125 -0.65625 0.78125 -1.546875q0 -0.796875 -0.6875 -1.25q-0.484375 -0.3125 -2.390625 -0.796875q-2.578125 -0.65625 -3.578125 -1.125q-1.0 -0.46875 -1.515625 -1.3125q-0.515625 -0.84375 -0.515625 -1.859375q0 -0.921875 0.421875 -1.703125q0.4375 -0.796875 1.15625 -1.3125q0.546875 -0.40625 1.484375 -0.6875q0.953125 -0.28125 2.03125 -0.28125q1.625 0 2.859375 0.46875q1.234375 0.46875 1.8125 1.28125q0.59375 0.796875 0.8125 2.140625l-2.296875 0.3125q-0.15625 -1.078125 -0.90625 -1.671875q-0.75 -0.59375 -2.109375 -0.59375q-1.609375 0 -2.3125 0.53125q-0.6875 0.53125 -0.6875 1.25q0 0.453125 0.296875 0.8125q0.28125 0.375 0.890625 0.625q0.359375 0.140625 2.078125 0.609375q2.484375 0.65625 3.46875 1.078125q0.984375 0.421875 1.53125 1.234375q0.5625 0.796875 0.5625 2.0q0 1.171875 -0.6875 2.21875q-0.671875 1.03125 -1.96875 1.59375q-1.28125 0.5625 -2.90625 0.5625q-2.703125 0 -4.125 -1.109375q-1.40625 -1.125 -1.796875 -3.328125zm19.390625 2.03125l0.328125 2.0625q-0.984375 0.21875 -1.765625 0.21875q-1.265625 0 -1.96875 -0.40625q-0.703125 -0.40625 -1.0 -1.0625q-0.28125 -0.65625 -0.28125 -2.765625l0 -7.953125l-1.71875 0l0 -1.828125l1.71875 0l0 -3.421875l2.328125 -1.40625l0 4.828125l2.359375 0l0 1.828125l-2.359375 0l0 8.078125q0 1.0 0.125 1.296875q0.125 0.28125 0.40625 0.453125q0.28125 0.171875 0.796875 0.171875q0.390625 0 1.03125 -0.09375zm11.749695 -2.359375l2.421875 0.296875q-0.578125 2.125 -2.125 3.296875q-1.546875 1.171875 -3.953125 1.171875q-3.03125 0 -4.8125 -1.859375q-1.78125 -1.875 -1.78125 -5.25q0 -3.484375 1.796875 -5.40625q1.796875 -1.9375 4.671875 -1.9375q2.765625 0 4.515625 1.890625q1.765625 1.890625 1.765625 5.3125q0 0.203125 -0.015625 0.625l-10.3125 0q0.140625 2.28125 1.296875 3.5q1.15625 1.203125 2.890625 1.203125q1.28125 0 2.1875 -0.671875q0.921875 -0.6875 1.453125 -2.171875zm-7.6875 -3.78125l7.71875 0q-0.15625 -1.75 -0.890625 -2.625q-1.125 -1.34375 -2.90625 -1.34375q-1.609375 0 -2.71875 1.078125q-1.09375 1.078125 -1.203125 2.890625zm13.028076 8.234375l0 -13.828125l2.109375 0l0 2.09375q0.796875 -1.46875 1.484375 -1.9375q0.6875 -0.46875 1.5 -0.46875q1.1875 0 2.40625 0.765625l-0.796875 2.171875q-0.859375 -0.515625 -1.71875 -0.515625q-0.765625 0 -1.390625 0.46875q-0.609375 0.453125 -0.859375 1.28125q-0.390625 1.25 -0.390625 2.734375l0 7.234375l-2.34375 0z" fill-rule="nonzero"/><path fill="#000000" d="m737.4981 151.40369l0 -19.078125l12.875 0l0 2.25l-10.34375 0l0 5.90625l8.953125 0l0 2.25l-8.953125 0l0 8.671875l-2.53125 0z" fill-rule="nonzero"/><path fill="#6aa84f" d="m791.3016 248.43674l13.153503 -54.69481l53.256287 -24.341476l53.256348 24.341476l13.153442 54.69481l-36.85492 43.862l-59.10968 0z" fill-rule="evenodd"/><path stroke="#000000" stroke-width="1.0" stroke-linejoin="round" stroke-linecap="butt" d="m791.3016 248.43674l13.153503 -54.69481l53.256287 -24.341476l53.256348 24.341476l13.153442 54.69481l-36.85492 43.862l-59.10968 0z" fill-rule="evenodd"/><path fill="#000000" d="m831.1667 217.76176l2.53125 0.640625q-0.796875 3.109375 -2.859375 4.75q-2.0625 1.625 -5.046875 1.625q-3.09375 0 -5.03125 -1.25q-1.921875 -1.265625 -2.9375 -3.640625q-1.0 -2.390625 -1.0 -5.125q0 -2.984375 1.140625 -5.203125q1.140625 -2.21875 3.234375 -3.359375q2.109375 -1.15625 4.625 -1.15625q2.875 0 4.828125 1.46875q1.953125 1.453125 2.71875 4.09375l-2.484375 0.578125q-0.671875 -2.078125 -1.9375 -3.03125q-1.25 -0.953125 -3.171875 -0.953125q-2.203125 0 -3.6875 1.0625q-1.46875 1.046875 -2.0625 2.828125q-0.59375 1.78125 -0.59375 3.65625q0 2.4375 0.703125 4.265625q0.703125 1.8125 2.203125 2.71875q1.5 0.890625 3.25 0.890625q2.109375 0 3.578125 -1.21875q1.484375 -1.234375 2.0 -3.640625zm5.281555 6.6875l0 -19.078125l2.34375 0l0 19.078125l-2.34375 0zm15.031555 0l0 -2.03125q-1.609375 2.34375 -4.375 2.34375q-1.234375 0 -2.296875 -0.46875q-1.0625 -0.46875 -1.578125 -1.171875q-0.5 -0.71875 -0.71875 -1.75q-0.140625 -0.6875 -0.140625 -2.1875l0 -8.5625l2.34375 0l0 7.671875q0 1.828125 0.140625 2.46875q0.21875 0.921875 0.9375 1.453125q0.71875 0.53125 1.765625 0.53125q1.0625 0 1.984375 -0.53125q0.921875 -0.546875 1.296875 -1.46875q0.390625 -0.9375 0.390625 -2.71875l0 -7.40625l2.34375 0l0 13.828125l-2.09375 0zm4.82489 -4.125l2.328125 -0.359375q0.1875 1.390625 1.078125 2.140625q0.890625 0.734375 2.5 0.734375q1.609375 0 2.390625 -0.65625q0.78125 -0.65625 0.78125 -1.546875q0 -0.796875 -0.6875 -1.25q-0.484375 -0.3125 -2.390625 -0.796875q-2.578125 -0.65625 -3.578125 -1.125q-1.0 -0.46875 -1.515625 -1.3125q-0.515625 -0.84375 -0.515625 -1.859375q0 -0.921875 0.421875 -1.703125q0.4375 -0.796875 1.15625 -1.3125q0.546875 -0.40625 1.484375 -0.6875q0.953125 -0.28125 2.03125 -0.28125q1.625 0 2.859375 0.46875q1.234375 0.46875 1.8125 1.28125q0.59375 0.796875 0.8125 2.140625l-2.296875 0.3125q-0.15625 -1.078125 -0.90625 -1.671875q-0.75 -0.59375 -2.109375 -0.59375q-1.609375 0 -2.3125 0.53125q-0.6875 0.53125 -0.6875 1.25q0 0.453125 0.296875 0.8125q0.28125 0.375 0.890625 0.625q0.359375 0.140625 2.078125 0.609375q2.484375 0.65625 3.46875 1.078125q0.984375 0.421875 1.53125 1.234375q0.5625 0.796875 0.5625 2.0q0 1.171875 -0.6875 2.21875q-0.671875 1.03125 -1.96875 1.59375q-1.28125 0.5625 -2.90625 0.5625q-2.703125 0 -4.125 -1.109375q-1.40625 -1.125 -1.796875 -3.328125zm19.390625 2.03125l0.328125 2.0625q-0.984375 0.21875 -1.765625 0.21875q-1.265625 0 -1.96875 -0.40625q-0.703125 -0.40625 -1.0 -1.0625q-0.28125 -0.65625 -0.28125 -2.765625l0 -7.953125l-1.71875 0l0 -1.828125l1.71875 0l0 -3.421875l2.328125 -1.40625l0 4.828125l2.359375 0l0 1.828125l-2.359375 0l0 8.078125q0 1.0 0.125 1.296875q0.125 0.28125 0.40625 0.453125q0.28125 0.171875 0.796875 0.171875q0.390625 0 1.03125 -0.09375zm11.749756 -2.359375l2.421875 0.296875q-0.578125 2.125 -2.125 3.296875q-1.546875 1.171875 -3.953125 1.171875q-3.03125 0 -4.8125 -1.859375q-1.78125 -1.875 -1.78125 -5.25q0 -3.484375 1.796875 -5.40625q1.796875 -1.9375 4.671875 -1.9375q2.765625 0 4.515625 1.890625q1.765625 1.890625 1.765625 5.3125q0 0.203125 -0.015625 0.625l-10.3125 0q0.140625 2.28125 1.296875 3.5q1.15625 1.203125 2.890625 1.203125q1.28125 0 2.1875 -0.671875q0.921875 -0.6875 1.453125 -2.171875zm-7.6875 -3.78125l7.71875 0q-0.15625 -1.75 -0.890625 -2.625q-1.125 -1.34375 -2.90625 -1.34375q-1.609375 0 -2.71875 1.078125q-1.09375 1.078125 -1.203125 2.890625zm13.028015 8.234375l0 -13.828125l2.109375 0l0 2.09375q0.796875 -1.46875 1.484375 -1.9375q0.6875 -0.46875 1.5 -0.46875q1.1875 0 2.40625 0.765625l-0.796875 2.171875q-0.859375 -0.515625 -1.71875 -0.515625q-0.765625 0 -1.390625 0.46875q-0.609375 0.453125 -0.859375 1.28125q-0.390625 1.25 -0.390625 2.734375l0 7.234375l-2.34375 0z" fill-rule="nonzero"/><path fill="#000000" d="m858.32874 248.96489l0 -2.234375l8.078125 -0.015625l0 7.078125q-1.859375 1.484375 -3.84375 2.2343597q-1.96875 0.75 -4.046875 0.75q-2.8125 0 -5.109375 -1.2031097q-2.296875 -1.203125 -3.46875 -3.484375q-1.171875 -2.28125 -1.171875 -5.09375q0 -2.78125 1.15625 -5.1875q1.171875 -2.421875 3.359375 -3.59375q2.1875 -1.171875 5.03125 -1.171875q2.078125 0 3.75 0.671875q1.671875 0.671875 2.609375 1.875q0.953125 1.1875 1.453125 3.109375l-2.28125 0.625q-0.421875 -1.453125 -1.0625 -2.28125q-0.640625 -0.84375 -1.828125 -1.34375q-1.171875 -0.5 -2.625 -0.5q-1.734375 0 -3.0 0.53125q-1.25 0.53125 -2.03125 1.390625q-0.765625 0.859375 -1.203125 1.890625q-0.734375 1.765625 -0.734375 3.828125q0 2.5625 0.875 4.28125q0.890625 1.703125 2.5625 2.546875q1.6875 0.828125 3.578125 0.828125q1.640625 0 3.1875 -0.625q1.5625 -0.640625 2.375 -1.359375l0 -3.546875l-5.609375 0z" fill-rule="nonzero"/><path fill="#ff00ff" d="m677.0422 352.6712l13.153442 -54.694794l53.256348 -24.341492l53.256287 24.341492l13.153503 54.694794l-36.85498 43.862l-59.10962 0z" fill-rule="evenodd"/><path stroke="#000000" stroke-width="1.0" stroke-linejoin="round" stroke-linecap="butt" d="m677.0422 352.6712l13.153442 -54.694794l53.256348 -24.341492l53.256287 24.341492l13.153503 54.694794l-36.85498 43.862l-59.10962 0z" fill-rule="evenodd"/><path fill="#000000" d="m716.9072 321.99622l2.53125 0.640625q-0.796875 3.109375 -2.859375 4.75q-2.0625 1.625 -5.046875 1.625q-3.09375 0 -5.03125 -1.25q-1.921875 -1.265625 -2.9375 -3.640625q-1.0 -2.390625 -1.0 -5.125q0 -2.984375 1.140625 -5.203125q1.140625 -2.21875 3.234375 -3.359375q2.109375 -1.15625 4.625 -1.15625q2.875 0 4.828125 1.46875q1.953125 1.453125 2.71875 4.09375l-2.484375 0.578125q-0.671875 -2.078125 -1.9375 -3.03125q-1.25 -0.953125 -3.171875 -0.953125q-2.203125 0 -3.6875 1.0625q-1.46875 1.046875 -2.0625 2.828125q-0.59375 1.78125 -0.59375 3.65625q0 2.4375 0.703125 4.265625q0.703125 1.8125 2.203125 2.71875q1.5 0.890625 3.25 0.890625q2.109375 0 3.578125 -1.21875q1.484375 -1.234375 2.0 -3.640625zm5.281555 6.6875l0 -19.078125l2.34375 0l0 19.078125l-2.34375 0zm15.031555 0l0 -2.03125q-1.609375 2.34375 -4.375 2.34375q-1.234375 0 -2.296875 -0.46875q-1.0625 -0.46875 -1.578125 -1.171875q-0.5 -0.71875 -0.71875 -1.75q-0.140625 -0.6875 -0.140625 -2.1875l0 -8.5625l2.34375 0l0 7.671875q0 1.828125 0.140625 2.46875q0.21875 0.921875 0.9375 1.453125q0.71875 0.53125 1.765625 0.53125q1.0625 0 1.984375 -0.53125q0.921875 -0.546875 1.296875 -1.46875q0.390625 -0.9375 0.390625 -2.71875l0 -7.40625l2.34375 0l0 13.828125l-2.09375 0zm4.824951 -4.125l2.328125 -0.359375q0.1875 1.390625 1.078125 2.140625q0.890625 0.734375 2.5 0.734375q1.609375 0 2.390625 -0.65625q0.78125 -0.65625 0.78125 -1.546875q0 -0.796875 -0.6875 -1.25q-0.484375 -0.3125 -2.390625 -0.796875q-2.578125 -0.65625 -3.578125 -1.125q-1.0 -0.46875 -1.515625 -1.3125q-0.515625 -0.84375 -0.515625 -1.859375q0 -0.921875 0.421875 -1.703125q0.4375 -0.796875 1.15625 -1.3125q0.546875 -0.40625 1.484375 -0.6875q0.953125 -0.28125 2.03125 -0.28125q1.625 0 2.859375 0.46875q1.234375 0.46875 1.8125 1.28125q0.59375 0.796875 0.8125 2.140625l-2.296875 0.3125q-0.15625 -1.078125 -0.90625 -1.671875q-0.75 -0.59375 -2.109375 -0.59375q-1.609375 0 -2.3125 0.53125q-0.6875 0.53125 -0.6875 1.25q0 0.453125 0.296875 0.8125q0.28125 0.375 0.890625 0.625q0.359375 0.140625 2.078125 0.609375q2.484375 0.65625 3.46875 1.078125q0.984375 0.421875 1.53125 1.234375q0.5625 0.796875 0.5625 2.0q0 1.171875 -0.6875 2.21875q-0.671875 1.03125 -1.96875 1.59375q-1.28125 0.5625 -2.90625 0.5625q-2.703125 0 -4.125 -1.109375q-1.40625 -1.125 -1.796875 -3.328125zm19.390625 2.03125l0.328125 2.0625q-0.984375 0.21875 -1.765625 0.21875q-1.265625 0 -1.96875 -0.40625q-0.703125 -0.40625 -1.0 -1.0625q-0.28125 -0.65625 -0.28125 -2.765625l0 -7.953125l-1.71875 0l0 -1.828125l1.71875 0l0 -3.421875l2.328125 -1.40625l0 4.828125l2.359375 0l0 1.828125l-2.359375 0l0 8.078125q0 1.0 0.125 1.296875q0.125 0.28125 0.40625 0.453125q0.28125 0.171875 0.796875 0.171875q0.390625 0 1.03125 -0.09375zm11.749695 -2.359375l2.421875 0.296875q-0.578125 2.125 -2.125 3.296875q-1.546875 1.171875 -3.953125 1.171875q-3.03125 0 -4.8125 -1.859375q-1.78125 -1.875 -1.78125 -5.25q0 -3.484375 1.796875 -5.40625q1.796875 -1.9375 4.671875 -1.9375q2.765625 0 4.515625 1.890625q1.765625 1.890625 1.765625 5.3125q0 0.203125 -0.015625 0.625l-10.3125 0q0.140625 2.28125 1.296875 3.5q1.15625 1.203125 2.890625 1.203125q1.28125 0 2.1875 -0.671875q0.921875 -0.6875 1.453125 -2.171875zm-7.6875 -3.78125l7.71875 0q-0.15625 -1.75 -0.890625 -2.625q-1.125 -1.34375 -2.90625 -1.34375q-1.609375 0 -2.71875 1.078125q-1.09375 1.078125 -1.203125 2.890625zm13.028076 8.234375l0 -13.828125l2.109375 0l0 2.09375q0.796875 -1.46875 1.484375 -1.9375q0.6875 -0.46875 1.5 -0.46875q1.1875 0 2.40625 0.765625l-0.796875 2.171875q-0.859375 -0.515625 -1.71875 -0.515625q-0.765625 0 -1.390625 0.46875q-0.609375 0.453125 -0.859375 1.28125q-0.390625 1.25 -0.390625 2.734375l0 7.234375l-2.34375 0z" fill-rule="nonzero"/><path fill="#000000" d="m735.9674 360.68372l0 -19.078125l2.515625 0l0 7.828125l9.921875 0l0 -7.828125l2.53125 0l0 19.078125l-2.53125 0l0 -9.0l-9.921875 0l0 9.0l-2.515625 0z" fill-rule="nonzero"/><path fill="#d5a6bd" d="m785.2958 471.00037l13.153503 -54.694794l53.256287 -24.341492l53.256348 24.341492l13.153442 54.694794l-36.85498 43.862l-59.10962 0z" fill-rule="evenodd"/><path stroke="#000000" stroke-width="1.0" stroke-linejoin="round" stroke-linecap="butt" d="m785.2958 471.00037l13.153503 -54.694794l53.256287 -24.341492l53.256348 24.341492l13.153442 54.694794l-36.85498 43.862l-59.10962 0z" fill-rule="evenodd"/><path fill="#000000" d="m825.1609 440.3254l2.53125 0.640625q-0.796875 3.109375 -2.859375 4.75q-2.0625 1.625 -5.046875 1.625q-3.09375 0 -5.03125 -1.25q-1.921875 -1.265625 -2.9375 -3.640625q-1.0 -2.390625 -1.0 -5.125q0 -2.984375 1.140625 -5.203125q1.140625 -2.21875 3.234375 -3.359375q2.109375 -1.15625 4.625 -1.15625q2.875 0 4.828125 1.46875q1.953125 1.453125 2.71875 4.09375l-2.484375 0.578125q-0.671875 -2.078125 -1.9375 -3.03125q-1.25 -0.953125 -3.171875 -0.953125q-2.203125 0 -3.6875 1.0625q-1.46875 1.046875 -2.0625 2.828125q-0.59375 1.78125 -0.59375 3.65625q0 2.4375 0.703125 4.265625q0.703125 1.8125 2.203125 2.71875q1.5 0.890625 3.25 0.890625q2.109375 0 3.578125 -1.21875q1.484375 -1.234375 2.0 -3.640625zm5.281555 6.6875l0 -19.078125l2.34375 0l0 19.078125l-2.34375 0zm15.031494 0l0 -2.03125q-1.609375 2.34375 -4.375 2.34375q-1.234375 0 -2.296875 -0.46875q-1.0625 -0.46875 -1.578125 -1.171875q-0.5 -0.71875 -0.71875 -1.75q-0.140625 -0.6875 -0.140625 -2.1875l0 -8.5625l2.34375 0l0 7.671875q0 1.828125 0.140625 2.46875q0.21875 0.921875 0.9375 1.453125q0.71875 0.53125 1.765625 0.53125q1.0625 0 1.984375 -0.53125q0.921875 -0.546875 1.296875 -1.46875q0.390625 -0.9375 0.390625 -2.71875l0 -7.40625l2.34375 0l0 13.828125l-2.09375 0zm4.824951 -4.125l2.328125 -0.359375q0.1875 1.390625 1.078125 2.140625q0.890625 0.734375 2.5 0.734375q1.609375 0 2.390625 -0.65625q0.78125 -0.65625 0.78125 -1.546875q0 -0.796875 -0.6875 -1.25q-0.484375 -0.3125 -2.390625 -0.796875q-2.578125 -0.65625 -3.578125 -1.125q-1.0 -0.46875 -1.515625 -1.3125q-0.515625 -0.84375 -0.515625 -1.859375q0 -0.921875 0.421875 -1.703125q0.4375 -0.796875 1.15625 -1.3125q0.546875 -0.40625 1.484375 -0.6875q0.953125 -0.28125 2.03125 -0.28125q1.625 0 2.859375 0.46875q1.234375 0.46875 1.8125 1.28125q0.59375 0.796875 0.8125 2.140625l-2.296875 0.3125q-0.15625 -1.078125 -0.90625 -1.671875q-0.75 -0.59375 -2.109375 -0.59375q-1.609375 0 -2.3125 0.53125q-0.6875 0.53125 -0.6875 1.25q0 0.453125 0.296875 0.8125q0.28125 0.375 0.890625 0.625q0.359375 0.140625 2.078125 0.609375q2.484375 0.65625 3.46875 1.078125q0.984375 0.421875 1.53125 1.234375q0.5625 0.796875 0.5625 2.0q0 1.171875 -0.6875 2.21875q-0.671875 1.03125 -1.96875 1.59375q-1.28125 0.5625 -2.90625 0.5625q-2.703125 0 -4.125 -1.109375q-1.40625 -1.125 -1.796875 -3.328125zm19.390625 2.03125l0.328125 2.0625q-0.984375 0.21875 -1.765625 0.21875q-1.265625 0 -1.96875 -0.40625q-0.703125 -0.40625 -1.0 -1.0625q-0.28125 -0.65625 -0.28125 -2.765625l0 -7.953125l-1.71875 0l0 -1.828125l1.71875 0l0 -3.421875l2.328125 -1.40625l0 4.828125l2.359375 0l0 1.828125l-2.359375 0l0 8.078125q0 1.0 0.125 1.296875q0.125 0.28125 0.40625 0.453125q0.28125 0.171875 0.796875 0.171875q0.390625 0 1.03125 -0.09375zm11.749695 -2.359375l2.421875 0.296875q-0.578125 2.125 -2.125 3.296875q-1.546875 1.171875 -3.953125 1.171875q-3.03125 0 -4.8125 -1.859375q-1.78125 -1.875 -1.78125 -5.25q0 -3.484375 1.796875 -5.40625q1.796875 -1.9375 4.671875 -1.9375q2.765625 0 4.515625 1.890625q1.765625 1.890625 1.765625 5.3125q0 0.203125 -0.015625 0.625l-10.3125 0q0.140625 2.28125 1.296875 3.5q1.15625 1.203125 2.890625 1.203125q1.28125 0 2.1875 -0.671875q0.921875 -0.6875 1.453125 -2.171875zm-7.6875 -3.78125l7.71875 0q-0.15625 -1.75 -0.890625 -2.625q-1.125 -1.34375 -2.90625 -1.34375q-1.609375 0 -2.71875 1.078125q-1.09375 1.078125 -1.203125 2.890625zm13.028076 8.234375l0 -13.828125l2.109375 0l0 2.09375q0.796875 -1.46875 1.484375 -1.9375q0.6875 -0.46875 1.5 -0.46875q1.1875 0 2.40625 0.765625l-0.796875 2.171875q-0.859375 -0.515625 -1.71875 -0.515625q-0.765625 0 -1.390625 0.46875q-0.609375 0.453125 -0.859375 1.28125q-0.390625 1.25 -0.390625 2.734375l0 7.234375l-2.34375 0z" fill-rule="nonzero"/><path fill="#000000" d="m850.487 479.0129l0 -19.078125l2.53125 0l0 19.078125l-2.53125 0z" fill-rule="nonzero"/></g></svg>